<svg
   width="72"
   height="210"
   viewBox="0 0 19.050002 55.5625"
   version="1.1"
   id="svg1"
   xml:space="preserve"
   sodipodi:docname="44.1.svg"
   inkscape:version="1.4 (86a8ad7, 2024-10-11)"
   xmlns:inkscape="http://www.inkscape.org/namespaces/inkscape"
   xmlns:sodipodi="http://sodipodi.sourceforge.net/DTD/sodipodi-0.dtd"
   xmlns="http://www.w3.org/2000/svg"
   xmlns:svg="http://www.w3.org/2000/svg"><sodipodi:namedview
     id="namedview1"
     pagecolor="#ffffff"
     bordercolor="#000000"
     borderopacity="0.25"
     inkscape:showpageshadow="2"
     inkscape:pageopacity="0.0"
     inkscape:pagecheckerboard="0"
     inkscape:deskcolor="#d1d1d1"
     inkscape:document-units="mm"
     inkscape:zoom="1.3772587"
     inkscape:cx="394.98752"
     inkscape:cy="193.50032"
     inkscape:window-width="1920"
     inkscape:window-height="991"
     inkscape:window-x="-9"
     inkscape:window-y="-9"
     inkscape:window-maximized="1"
     inkscape:current-layer="layer1" /><defs
     id="defs1"><rect
       x="413.8656"
       y="306.40576"
       width="56.634239"
       height="161.18976"
       id="rect1" /><clipPath
       clipPathUnits="userSpaceOnUse"
       id="clipPath6"><rect
         style="fill:#88a995;fill-opacity:1;stroke-width:1.00157;stroke-dasharray:none"
         id="rect7"
         width="60.069668"
         height="157.61874"
         x="0.022902591"
         y="-2.4076056"
         ry="5.134161"
         rx="0" /></clipPath><clipPath
       clipPathUnits="userSpaceOnUse"
       id="clipPath9"><rect
         style="fill:#88a995;fill-opacity:1;stroke-width:1.00157;stroke-dasharray:none"
         id="rect9"
         width="55.962337"
         height="157.61874"
         x="1.8468617"
         y="-0.26983967"
         ry="5.134161" /></clipPath><clipPath
       clipPathUnits="userSpaceOnUse"
       id="clipPath11"><rect
         style="fill:#88a995;fill-opacity:1;stroke-width:1.00157;stroke-dasharray:none"
         id="rect12"
         width="71.155853"
         height="209.83714"
         x="1.1238592"
         y="1.4975842"
         ry="0" /></clipPath><clipPath
       clipPathUnits="userSpaceOnUse"
       id="clipPath13"><rect
         style="fill:#88a995;fill-opacity:1;stroke-width:1.00157;stroke-dasharray:none"
         id="rect14"
         width="74.060158"
         height="210.5632"
         x="-2.9023304"
         y="0.045434937" /></clipPath></defs><g
     inkscape:label="Слой 1"
     inkscape:groupmode="layer"
     id="layer1"><text
       xml:space="preserve"
       transform="scale(0.26458333)"
       id="text1"
       style="text-align:start;writing-mode:lr-tb;direction:ltr;white-space:pre;shape-inside:url(#rect1);display:inline;fill:none" /><rect
       style="fill:none;stroke-width:0.264583"
       id="rect2"
       width="14.806709"
       height="40.616562"
       x="100.2509"
       y="96.175667"
       ry="0" /><rect
       style="fill:none;stroke-width:0.264583"
       id="rect3"
       width="1.0867307"
       height="40.888241"
       x="114.51424"
       y="94.817261" /><rect
       style="fill:none;stroke-width:0.264583"
       id="rect4"
       width="15.89344"
       height="41.974976"
       x="100.25091"
       y="94.953094" /><rect
       style="fill:none;stroke-width:0.264583"
       id="rect5"
       width="16.165115"
       height="41.43161"
       x="100.25091"
       y="95.49646"
       ry="1.3584135" /><g
       style="fill:none"
       id="g12"
       transform="matrix(0.26458333,0,0,0.26458333,0.76790825,0.18008734)"
       clip-path="url(#clipPath13)"><path
         d="m -0.246477,210 c -2.000003,0 -3.600003,-0.6 -4.800003,-1.8 -1,-1.4 -1.3,-3.1 -0.9,-5.1 l 9.3,-43.2 H -95.0465 c -2,0 -3.5,-0.6 -4.5,-1.8 -0.9995,-1.4 -1.3995,-3.1 -1.1995,-5.1 l 2.6995,-12 c 0.4,-1.8 0.9,-3.2 1.5,-4.2 0.6,-1.2 1.5,-2.5 2.7,-3.9 L 24.3535,5.09999 c 3,-3.4 7,-5.1000043051 12,-5.1000043051 h 22.8 c 2,0 3.5,0.7000033051 4.5,2.1000043051 1.2,1.2 1.6,2.8 1.2,4.8 l -27,126.90001 h 27 c 2.2,0 3.7,0.7 4.5,2.1 1,1.2 1.3,2.8 0.9,4.8 l -2.7,12.3 c -0.2,2 -1.1,3.7 -2.7,5.1 -1.6,1.2 -3.4,1.8 -5.4,1.8 h -27.3 l -9.3,43.2 c -0.4,2 -1.4,3.7 -3,5.1 -1.4,1.2 -3.1,1.8 -5.1,1.8 z M -61.1465,134.4 H 9.05352 L 30.3535,34.5 Z"
         fill="#edf2ef"
         id="path1" /></g></g></svg>
