
<svg
   width="88"
   height="214"
   viewBox="0 0 23.283336 56.620833"
   version="1.1"
   id="svg1"
   xml:space="preserve"
   sodipodi:docname="34.1.svg"
   inkscape:version="1.4 (86a8ad7, 2024-10-11)"
   xmlns:inkscape="http://www.inkscape.org/namespaces/inkscape"
   xmlns:sodipodi="http://sodipodi.sourceforge.net/DTD/sodipodi-0.dtd"
   xmlns="http://www.w3.org/2000/svg"
   xmlns:svg="http://www.w3.org/2000/svg"><sodipodi:namedview
     id="namedview1"
     pagecolor="#ffffff"
     bordercolor="#000000"
     borderopacity="0.25"
     inkscape:showpageshadow="2"
     inkscape:pageopacity="0.0"
     inkscape:pagecheckerboard="0"
     inkscape:deskcolor="#d1d1d1"
     inkscape:document-units="mm"
     inkscape:zoom="1.3772587"
     inkscape:cx="394.98752"
     inkscape:cy="193.50032"
     inkscape:window-width="1920"
     inkscape:window-height="991"
     inkscape:window-x="-9"
     inkscape:window-y="-9"
     inkscape:window-maximized="1"
     inkscape:current-layer="layer1" /><defs
     id="defs1"><rect
       x="413.8656"
       y="306.40576"
       width="56.634239"
       height="161.18976"
       id="rect1" /><clipPath
       clipPathUnits="userSpaceOnUse"
       id="clipPath6"><rect
         style="fill:#88a995;fill-opacity:1;stroke-width:1.00157;stroke-dasharray:none"
         id="rect7"
         width="60.069668"
         height="157.61874"
         x="0.022902591"
         y="-2.4076056"
         ry="5.134161"
         rx="0" /></clipPath><clipPath
       clipPathUnits="userSpaceOnUse"
       id="clipPath9"><rect
         style="fill:#88a995;fill-opacity:1;stroke-width:1.00157;stroke-dasharray:none"
         id="rect9"
         width="55.962337"
         height="157.61874"
         x="1.8468617"
         y="-0.26983967"
         ry="5.134161" /></clipPath><clipPath
       clipPathUnits="userSpaceOnUse"
       id="clipPath11"><rect
         style="fill:#88a995;fill-opacity:1;stroke-width:1.00157;stroke-dasharray:none"
         id="rect12"
         width="71.155853"
         height="209.83714"
         x="1.1238592"
         y="1.4975842"
         ry="0" /></clipPath><clipPath
       clipPathUnits="userSpaceOnUse"
       id="clipPath13"><rect
         style="fill:#88a995;fill-opacity:1;stroke-width:1.00157;stroke-dasharray:none"
         id="rect14"
         width="74.060158"
         height="210.5632"
         x="-2.9023304"
         y="0.045434937" /></clipPath><clipPath
       clipPathUnits="userSpaceOnUse"
       id="clipPath15"><rect
         style="fill:#88a995;fill-opacity:1;stroke-width:1.00157;stroke-dasharray:none"
         id="rect16"
         width="87.855682"
         height="212.01535"
         x="-2.3530991"
         y="0.43518978" /></clipPath><clipPath
       clipPathUnits="userSpaceOnUse"
       id="clipPath17"><rect
         style="fill:#88a995;fill-opacity:1;stroke-width:1.00157;stroke-dasharray:none"
         id="rect18"
         width="89.307838"
         height="216.37184"
         x="-1.7496444"
         y="-1.5169678" /></clipPath></defs><g
     inkscape:label="Слой 1"
     inkscape:groupmode="layer"
     id="layer1"><text
       xml:space="preserve"
       transform="scale(0.26458333)"
       id="text1"
       style="text-align:start;writing-mode:lr-tb;direction:ltr;white-space:pre;shape-inside:url(#rect1);display:inline;fill:none" /><rect
       style="fill:none;stroke-width:0.264583"
       id="rect2"
       width="14.806709"
       height="40.616562"
       x="100.2509"
       y="96.175667"
       ry="0" /><rect
       style="fill:none;stroke-width:0.264583"
       id="rect3"
       width="1.0867307"
       height="40.888241"
       x="114.51424"
       y="94.817261" /><rect
       style="fill:none;stroke-width:0.264583"
       id="rect4"
       width="15.89344"
       height="41.974976"
       x="100.25091"
       y="94.953094" /><rect
       style="fill:none;stroke-width:0.264583"
       id="rect5"
       width="16.165115"
       height="41.43161"
       x="100.25091"
       y="95.49646"
       ry="1.3584135" /><g
       style="fill:none"
       id="g16"
       transform="matrix(0.26458333,0,0,0.26458333,0.27081806,0.01714705)"
       clip-path="url(#clipPath17)"><path
         d="m -23.0465,213 c -12.6,0 -23.3,-1.5 -32.1,-4.5 -8.8,-3.2 -15.9,-7.4 -21.3,-12.6 -5.2,-5.2 -8.8,-10.9 -10.8,-17.1 -2,-6.2 -2.4,-12.6 -1.2,-19.2 0.4,-1.8 1.3,-3.2 2.7,-4.2 1.4,-1 3,-1.5 4.8,-1.5 h 14.7 c 2,0 3.6,0.4 4.8,1.2 1.4,0.8 2.3,2.5 2.7,5.1 0.2,7.2 2.3,12.8 6.3,16.8 4.2,4 9.4,6.8 15.6,8.4 6.4,1.4 12.8,2.1 19.2,2.1 13.80002,0 25.70002,-3.3 35.7,-9.9 10,-6.6 16.4,-16.3 19.2,-29.1 2.8,-13 0.8,-22.3 -6,-27.9 -6.6,-5.6 -16.7,-8.4 -30.299978,-8.4 H -27.5465 c -2,0 -3.5,-0.6 -4.5,-1.8 -1,-1.2 -1.4,-2.9 -1.2,-5.1 l 1.8,-8.1 c 0.4,-1.8 1.1,-3.3 2.1,-4.5 1,-1.4 2,-2.6 3,-3.6 l 71.4,-63.6 h -88.2 c -2.2,0 -3.8,-0.6 -4.8,-1.8 -0.8,-1.2 -1,-2.9 -0.6,-5.1 l 2.4,-11.40002 c 0.4,-2.19999 1.4,-3.89999 3,-5.09999 1.6,-1.400001 3.4,-2.1000043051 5.4,-2.1000043051 h 119.7 c 2.2,0 3.7,0.7000033051 4.5,2.1000043051 1,1.2 1.3,2.9 0.9,5.09999 L 85.2535,18 c -0.2,1.4 -0.8,2.7 -1.8,3.9 -0.8,1 -1.7,2 -2.7,3 L 8.75352,89.4 13.8535,89.7 c 12.8,0.4 23.7,2.8 32.7,7.2 9,4.4 15.4,11 19.2,19.8 3.8,8.6 4.2,19.5 1.2,32.7 -2.8,13.4 -8.6,24.9 -17.4,34.5 -8.6,9.4 -19.2,16.6 -31.8,21.6 -12.59998,5 -26.19998,7.5 -40.8,7.5 z"
         fill="#edf2ef"
         id="path1" /></g></g></svg>
