
<svg
   width="85"
   height="214"
   viewBox="0 0 22.489586 56.620833"
   version="1.1"
   id="svg1"
   xml:space="preserve"
   sodipodi:docname="24.1.svg"
   inkscape:version="1.4 (86a8ad7, 2024-10-11)"
   xmlns:inkscape="http://www.inkscape.org/namespaces/inkscape"
   xmlns:sodipodi="http://sodipodi.sourceforge.net/DTD/sodipodi-0.dtd"
   xmlns="http://www.w3.org/2000/svg"
   xmlns:svg="http://www.w3.org/2000/svg"><sodipodi:namedview
     id="namedview1"
     pagecolor="#ffffff"
     bordercolor="#000000"
     borderopacity="0.25"
     inkscape:showpageshadow="2"
     inkscape:pageopacity="0.0"
     inkscape:pagecheckerboard="0"
     inkscape:deskcolor="#d1d1d1"
     inkscape:document-units="mm"
     inkscape:zoom="1.3772587"
     inkscape:cx="394.98752"
     inkscape:cy="193.50032"
     inkscape:window-width="1920"
     inkscape:window-height="991"
     inkscape:window-x="-9"
     inkscape:window-y="-9"
     inkscape:window-maximized="1"
     inkscape:current-layer="layer1" /><defs
     id="defs1"><rect
       x="413.8656"
       y="306.40576"
       width="56.634239"
       height="161.18976"
       id="rect1" /><clipPath
       clipPathUnits="userSpaceOnUse"
       id="clipPath6"><rect
         style="fill:#88a995;fill-opacity:1;stroke-width:1.00157;stroke-dasharray:none"
         id="rect7"
         width="60.069668"
         height="157.61874"
         x="0.022902591"
         y="-2.4076056"
         ry="5.134161"
         rx="0" /></clipPath><clipPath
       clipPathUnits="userSpaceOnUse"
       id="clipPath9"><rect
         style="fill:#88a995;fill-opacity:1;stroke-width:1.00157;stroke-dasharray:none"
         id="rect9"
         width="55.962337"
         height="157.61874"
         x="1.8468617"
         y="-0.26983967"
         ry="5.134161" /></clipPath><clipPath
       clipPathUnits="userSpaceOnUse"
       id="clipPath11"><rect
         style="fill:#88a995;fill-opacity:1;stroke-width:1.00157;stroke-dasharray:none"
         id="rect12"
         width="71.155853"
         height="209.83714"
         x="1.1238592"
         y="1.4975842"
         ry="0" /></clipPath><clipPath
       clipPathUnits="userSpaceOnUse"
       id="clipPath13"><rect
         style="fill:#88a995;fill-opacity:1;stroke-width:1.00157;stroke-dasharray:none"
         id="rect14"
         width="74.060158"
         height="210.5632"
         x="-2.9023304"
         y="0.045434937" /></clipPath><clipPath
       clipPathUnits="userSpaceOnUse"
       id="clipPath15"><rect
         style="fill:#88a995;fill-opacity:1;stroke-width:1.00157;stroke-dasharray:none"
         id="rect16"
         width="87.855682"
         height="212.01535"
         x="-2.3530991"
         y="0.43518978" /></clipPath><clipPath
       clipPathUnits="userSpaceOnUse"
       id="clipPath17"><rect
         style="fill:#88a995;fill-opacity:1;stroke-width:1.00157;stroke-dasharray:none"
         id="rect18"
         width="89.307838"
         height="216.37184"
         x="-1.7496444"
         y="-1.5169678" /></clipPath><clipPath
       clipPathUnits="userSpaceOnUse"
       id="clipPath20"><rect
         style="fill:#88a995;fill-opacity:1;stroke-width:1.00157;stroke-dasharray:none"
         id="rect21"
         width="84.225288"
         height="212.74144"
         x="-1.9855235"
         y="1.6200742" /></clipPath></defs><g
     inkscape:label="Слой 1"
     inkscape:groupmode="layer"
     id="layer1"><text
       xml:space="preserve"
       transform="scale(0.26458333)"
       id="text1"
       style="text-align:start;writing-mode:lr-tb;direction:ltr;white-space:pre;shape-inside:url(#rect1);display:inline;fill:none" /><rect
       style="fill:none;stroke-width:0.264583"
       id="rect2"
       width="14.806709"
       height="40.616562"
       x="100.2509"
       y="96.175667"
       ry="0" /><rect
       style="fill:none;stroke-width:0.264583"
       id="rect3"
       width="1.0867307"
       height="40.888241"
       x="114.51424"
       y="94.817261" /><rect
       style="fill:none;stroke-width:0.264583"
       id="rect4"
       width="15.89344"
       height="41.974976"
       x="100.25091"
       y="94.953094" /><rect
       style="fill:none;stroke-width:0.264583"
       id="rect5"
       width="16.165115"
       height="41.43161"
       x="100.25091"
       y="95.49646"
       ry="1.3584135" /><g
       style="fill:none"
       id="g18"
       transform="matrix(0.26458333,0,0,0.26458333,0.71744507,-0.04442728)"
       clip-path="url(#clipPath20)"><path
         d="m -86.2465,214 c -2,0 -3.5,-0.6 -4.5,-1.8 -1,-1.4 -1.3,-3.1 -0.9,-5.1 l 2.1,-9.6 c 0.4,-1.8 1.3,-3.8 2.7,-6 1.4,-2.2 3.9,-4.6 7.5,-7.2 l 77.40002,-63.6 c 11.8,-8.6 21.29998,-15.9 28.49998,-21.9 7.4,-6.2 12.9,-12.1 16.5,-17.7 3.8,-5.6 6.3,-11.4 7.5,-17.4 2.4,-11.4 1.1,-20.4 -3.9,-27 -5,-6.8 -13.8,-10.2 -26.4,-10.2 -8,0 -15.19998,1.7 -21.59998,5.1 -6.4,3.2 -11.90002,7.7 -16.50002,13.5 -4.6,5.6 -8.2,12 -10.8,19.2 -0.8,2.6 -2.2,4.4 -4.2,5.4 -1.8,1 -3.5,1.5 -5.1,1.5 h -15.3 c -2,0 -3.4,-0.5 -4.2,-1.5 -0.8,-1.2 -1.1,-2.6 -0.9,-4.2 1.8,-7.6 5,-15.2 9.6,-22.8 4.6,-7.8 10.5,-14.8 17.7,-21 7.2,-6.2 15.5,-11.2 24.90002,-15.00001 9.6,-4 20.19998,-5.999998 31.79998,-5.999998 15.8,0 28.1,2.899998 36.9,8.699998 9,5.60001 14.9,13.10001 17.7,22.50001 2.8,9.4 3,19.7 0.6,30.9 -1.8,8.8 -5,16.9 -9.6,24.3 -4.4,7.2 -10.2,14.3 -17.4,21.3 -7.2,6.8 -15.8,13.8 -25.8,21 l -69.9,58.5 h 93.6 c 2.2,0 3.7,0.6 4.5,1.8 1,1.2 1.3,2.9 0.9,5.1 l -2.4,12.3 c -0.4,2 -1.4,3.7 -3,5.1 -1.6,1.2 -3.5,1.8 -5.7,1.8 z"
         fill="#edf2ef"
         id="path1-7" /></g><circle
       id="path18"
       style="fill:#88a995;stroke:#000000;stroke-width:0.264583"
       cx="8.6448898"
       cy="16.137127"
       r="0.025628986" /><circle
       id="path19"
       style="fill:#88a995;stroke:#000000;stroke-width:0.264583"
       cx="11.334411"
       cy="29.392626"
       r="0.025628986" /><circle
       id="path20"
       style="fill:#88a995;stroke:#000000;stroke-width:0.264583"
       cx="12.871281"
       cy="25.550453"
       r="0.025628986" /></g></svg>
