<svg width="351" height="562" viewBox="0 0 351 562" fill="none" xmlns="http://www.w3.org/2000/svg">
<path d="M306.945 517.707L283.74 523.01L288.686 534.067L311.796 527.279L306.945 517.707Z" fill="#F2C3C2"/>
<path d="M48.732 317.341L65.7051 301.408L55.2031 290.221L38.23 306.154L48.732 317.341Z" fill="#F2C3C2"/>
<path d="M105.567 26.1605C105.342 23.1142 105.342 19.0336 106.226 14.3513C107.279 8.82282 109.159 4.479 110.739 1.52671C113.522 0.92497 117.113 0.417251 121.307 0.511273C126.516 0.6241 130.859 1.62073 133.962 2.59856C133.172 9.51858 133.116 13.0726 133.849 13.223C134.075 13.2795 134.376 12.9974 134.733 12.3957C135.316 12.358 136.087 12.3957 136.99 12.5649C138.005 12.7905 138.814 13.1478 139.359 13.4487C135.466 18.7703 131.555 24.092 127.663 29.4136L105.567 26.1417V26.1605Z" fill="#F2C3C2"/>
<path d="M334.738 43.3661C335.472 40.3951 336.167 36.3709 336.073 31.6134C335.961 25.9909 334.832 21.3838 333.76 18.2059C331.128 17.1528 327.649 16.0622 323.512 15.4416C318.341 14.6894 313.922 14.9339 310.687 15.3664C310.311 22.324 309.766 25.8216 309.033 25.8593C308.807 25.8593 308.563 25.5396 308.299 24.8814C307.735 24.7498 306.964 24.637 306.043 24.6746C304.99 24.7122 304.143 24.9378 303.561 25.1635C306.513 31.0681 309.465 36.9727 312.417 42.8772L334.738 43.3473V43.3661Z" fill="#F2C3C2"/>
<path d="M236.295 184.475H202.222L208.86 155.967C209.969 145.531 208.032 141.789 206.002 140.322C204.497 139.231 202.748 139.25 201.488 137.182C200.341 135.32 199.852 132.142 201.432 130.243C202.692 128.738 204.648 128.795 205.08 128.795C207.581 128.87 209.123 130.845 209.368 131.164C209.405 129.434 209.744 126.802 211.304 124.432C212.696 122.345 214.652 121.123 220.688 119.073C223.772 118.02 227.871 116.779 232.835 115.669C234.659 123.887 237.01 127.591 238.909 129.434C239.511 130.017 241.749 132.048 241.279 133.834C241.072 134.587 240.489 135 240.263 135.17C236.709 138.047 242.125 150.815 238.345 154.82C237.537 155.666 235.863 156.607 231.914 156.005C233.381 165.482 234.847 174.96 236.314 184.418L236.295 184.475Z" fill="#F4D4CE"/>
<path d="M103.592 24.6182L82.5879 117.493L156.959 199.067L143.383 281.392L242.501 294.217L264.765 210.124L336.974 132.443V42.6704L308.466 38.4018L299.91 118.208L249.308 170.221C243.535 169.356 237.649 169.957 231.876 169.092C231.688 176.708 227.231 181.484 221.759 182.801C214.501 184.55 206.716 178.344 205.926 167.099C200.623 166.855 193.327 166.178 188.024 165.933C166.418 147.166 144.793 128.4 123.187 109.633L131.743 28.3979L103.574 24.5994L103.592 24.6182Z" fill="#FCD77C"/>
<path d="M143.403 281.393C176.424 285.191 209.557 289.892 242.577 293.691C237.876 297.075 232.235 301.908 225.24 308.057C217.116 315.184 203.765 326.899 193.066 342.45C177.383 365.204 183.983 371.992 169.071 390.909C160.76 401.44 150.906 413.926 137.292 414.941C124.9 415.863 114.839 406.856 79.769 365.975C64.3306 347.96 51.5248 332.503 42.0098 320.844C49.682 313.473 57.373 306.12 65.0452 298.749C85.7864 315.767 106.528 332.804 127.269 349.822C132.891 327.332 137.799 303.901 143.422 281.411L143.403 281.393Z" fill="#575554"/>
<path d="M189.248 348.186C193.122 340.551 198.763 331.281 206.943 321.822C219.636 307.155 232.912 298.994 242.577 293.672C265.801 368.1 289.306 441.644 312.53 516.072L282.367 524.609L189.267 348.186H189.248Z" fill="#3F3F3F"/>
<path d="M209.801 153.052C212.715 154.087 216.345 155.102 220.576 155.685C224.92 156.287 228.756 156.287 231.877 156.061C232.479 160.33 232.705 162.831 233.306 167.118C232.761 167.137 232.197 167.156 231.52 167.118C226.687 166.799 223.152 164.974 221.196 163.884C215.235 160.574 211.456 155.516 209.801 153.071V153.052Z" fill="url(#paint0_linear_5737_15586)"/>
<path d="M199.308 103.86C207.112 99.3097 211.606 96.6959 215.479 92.4085C218.074 89.5314 220.933 85.3005 222.982 79.001C223.904 79.3959 234.491 84.2286 236.973 96.6395C238.966 106.549 234.359 114.24 233.513 115.632C228.718 116.741 224.712 117.851 221.685 118.772C216.062 120.465 214.276 121.292 212.696 123.041C210.271 125.711 209.594 129.115 209.349 131.183C208.052 129.378 206.171 128.419 204.629 128.908C202.26 129.66 201.527 133.665 202.335 136.054C202.692 137.088 203.52 138.009 205.212 139.852C206.19 140.924 207.055 141.751 207.676 142.315C208.24 143.857 208.86 146.02 209.124 148.69C209.406 151.492 209.161 153.88 208.879 155.554C205.306 152.959 200.699 149.01 196.261 143.256C190.808 136.185 187.781 129.19 186.107 124.338C185.449 121.311 184.96 116.854 186.934 112.905C188.796 109.182 191.579 108.373 199.289 103.879L199.308 103.86Z" fill="#1D1D1B"/>
<path d="M305.401 558.25L341.581 540.875C346.188 540.63 349.911 537.753 350.795 534.011C351.566 530.758 349.93 527.994 349.498 527.317C345.944 525.323 335.112 519.87 321.178 522.089C312.491 523.462 306.21 527.26 302.844 529.667C298.575 529.385 294.326 529.103 290.057 528.821C288.741 529.122 287.048 529.743 286.146 531.228C284.641 533.673 286.315 536.794 288.966 543.996C289.831 546.366 290.978 549.638 292.201 553.624C292.257 556.783 294.307 559.585 297.278 560.582C300.174 561.56 303.427 560.638 305.383 558.25H305.401Z" fill="#31A055"/>
<path d="M350.437 529.047C337.18 537.734 325.616 542.153 317.492 544.56C304.743 548.359 293.347 549.506 292.426 554.339C291.956 556.84 294.588 559.604 297.259 560.789C303.69 563.628 308.09 556.689 325.296 550.032C325.296 550.032 345.36 542.266 349.535 536.55C350.362 535.403 350.72 534.143 350.72 534.143C351.303 532.093 350.832 530.194 350.419 529.028L350.437 529.047Z" fill="white"/>
<path d="M316.045 523.8C316.045 523.8 313.883 526.433 315.068 531.567" stroke="#1D1D1B" stroke-width="0.52" stroke-miterlimit="10" stroke-linecap="round"/>
<path d="M312.942 524.609C312.942 524.609 310.46 526.922 311.663 532.055" stroke="#1D1D1B" stroke-width="0.52" stroke-miterlimit="10" stroke-linecap="round"/>
<path d="M318.884 523.311C318.884 523.311 316.891 525.117 318.075 530.25" stroke="#1D1D1B" stroke-width="0.52" stroke-miterlimit="10" stroke-linecap="round"/>
<path d="M29.6934 277.5L5.56731 309.561C1.59958 311.893 -0.393689 316.162 0.546531 319.904C1.35512 323.157 4.08176 324.849 4.77752 325.263C8.85808 325.395 20.9681 325.263 32.326 316.895C39.4152 311.667 43.2325 305.424 45.113 301.739C49.0243 300.028 52.9356 298.316 56.8469 296.605C57.8811 295.74 59.0846 294.405 59.2163 292.675C59.4231 289.817 56.5084 287.823 50.8483 282.633C48.9867 280.922 46.4669 278.553 43.5522 275.563C42.0478 272.78 38.9451 271.238 35.8424 271.727C32.8149 272.197 30.3703 274.51 29.7122 277.519L29.6934 277.5Z" fill="#31A055"/>
<path d="M3.04659 323.985C11.0761 309.825 19.538 300.441 25.7059 294.537C35.2585 285.398 44.8864 279.061 43.4761 274.341C42.7427 271.896 39.1322 270.655 36.2176 270.843C29.4292 271.276 27.2855 278.816 16.2661 293.277C5.82964 306.985 -1.56049 312.213 0.282341 319.246C0.846474 321.408 2.08756 322.988 3.06539 323.985H3.04659Z" fill="white"/>
<path d="M37.6278 311.48C37.6278 311.48 38.3423 308.151 34.9199 304.127" stroke="#1D1D1B" stroke-width="0.52" stroke-miterlimit="10" stroke-linecap="round"/>
<path d="M39.8456 308.941C39.8456 308.941 40.9927 305.763 37.5703 301.739" stroke="#1D1D1B" stroke-width="0.52" stroke-miterlimit="10" stroke-linecap="round"/>
<path d="M42.2537 305.744C42.2537 305.744 43.1939 303.224 39.7715 299.2" stroke="#1D1D1B" stroke-width="0.52" stroke-miterlimit="10" stroke-linecap="round"/>
<path d="M225.428 126.463C225.428 126.463 228.474 121.912 233.683 122.665" stroke="#1D1D1B" stroke-width="0.5" stroke-miterlimit="10"/>
<path d="M230.186 145.436C233.307 146.96 236.466 146.189 239.475 144.891C238.911 146.452 236.598 147.279 234.962 147.11C233.326 147.035 231.182 146.527 230.204 145.436H230.186Z" fill="#1D1D1B"/>
<path d="M235.488 126.463C236.222 129.209 231.709 129.133 230.035 128.532C231.728 128.137 235.3 128.795 235.488 126.463Z" fill="#1D1D1B"/>
<defs>
<linearGradient id="paint0_linear_5737_15586" x1="218.47" y1="165.069" x2="222.005" y2="159.352" gradientUnits="userSpaceOnUse">
<stop stop-color="white" stop-opacity="0"/>
<stop offset="1" stop-color="#BBA5A0"/>
</linearGradient>
</defs>
</svg>
