<svg width="256" height="464" viewBox="0 0 256 464" fill="none" xmlns="http://www.w3.org/2000/svg">
<g clip-path="url(#clip0_6545_15134)">
<path d="M82.0254 427.351L104.378 424.317L106.205 435.702L82.6577 438.619L82.0254 427.351Z" fill="#F2C3C2"/>
<path d="M185.451 409.5L204.303 399.088L209.42 408.411L191.692 419.316L185.451 409.5Z" fill="#F2C3C2"/>
<path d="M243.308 200.335C243.577 203.286 243.636 207.234 242.851 211.79C241.914 217.154 240.146 221.394 238.671 224.287C235.989 224.908 232.512 225.447 228.449 225.423C223.39 225.388 219.187 224.486 216.166 223.596C216.833 216.873 216.821 213.441 216.13 213.301C215.908 213.254 215.627 213.523 215.276 214.121C214.714 214.156 213.952 214.156 213.086 213.98C212.091 213.781 211.306 213.441 210.768 213.148C214.468 207.936 218.168 202.712 221.868 197.5L243.308 200.346V200.335Z" fill="#F2C3C2"/>
<path d="M33.3129 199.339C30.8423 200.967 27.388 202.888 22.997 204.341C17.8332 206.051 13.2549 206.496 10.0114 206.543C8.19651 204.469 6.07713 201.658 4.19193 198.063C1.83837 193.588 0.64402 189.454 0.0117188 186.373C6.25276 183.796 9.27376 182.157 9.0747 181.477C9.01616 181.266 8.64146 181.138 7.95061 181.114C7.64617 180.634 7.29489 179.966 7.03729 179.123C6.74455 178.151 6.6743 177.296 6.6743 176.687C13.0207 177.483 19.3554 178.291 25.7019 179.088L33.3246 199.339H33.3129Z" fill="#F2C3C2"/>
<path d="M111.229 95.8687C113.571 101.994 118.384 106.715 123.981 107.523C132.364 108.729 142.212 101.139 143.582 89.0285C141.814 84.2145 140.046 79.4006 138.278 74.5867C137.212 64.4669 139.086 60.8476 141.041 59.4304C142.493 58.3762 144.202 58.3879 145.42 56.3968C146.521 54.593 147.013 51.5126 145.479 49.6737C144.261 48.2096 142.352 48.2681 141.943 48.2799C139.507 48.3501 138.032 50.271 137.798 50.5873C137.751 48.9123 137.446 46.3473 135.912 44.0633C134.554 42.037 132.681 40.8657 126.826 38.8745C123.84 37.8555 119.859 36.6491 115.07 35.5833C113.302 43.5362 111.03 47.132 109.18 48.9241C108.595 49.498 106.428 51.454 106.885 53.1875C107.084 53.9137 107.658 54.3236 107.857 54.4876C111.299 57.2635 106.054 69.6439 109.719 73.5325C110.503 74.3641 112.119 75.266 115.96 74.6687C114.379 81.7431 112.798 88.8059 111.229 95.8804V95.8687Z" fill="#F4D4CE"/>
<path d="M218.94 198.437C221.387 179.966 223.823 161.495 226.27 143.024C213.202 135.575 200.135 128.125 187.079 120.688C190.334 150.59 193.589 180.481 196.844 210.384C181.412 211.426 165.967 212.457 150.534 213.5C135.558 214.636 120.57 215.772 105.594 216.908C101.203 190.648 96.8121 164.4 92.4211 138.14C89.4586 153.53 86.5079 168.909 83.5455 184.3C65.7474 190.66 47.9493 197.02 30.1511 203.38C27.2472 194.548 24.3316 185.729 21.4277 176.897C34.7412 172.458 48.0546 168.019 61.3681 163.58C65.4546 143.563 69.5529 123.534 73.6394 103.517C86.2503 100.706 98.8612 97.8949 111.472 95.0838C113.826 99.6167 116.495 103.751 120.816 105.508C120.992 105.578 127.479 105.508 130.137 105.403C136.963 105.122 139.68 99.0427 143.591 89.0166C158.579 87.9274 173.566 86.8498 188.554 85.7605C211.036 100.554 233.518 115.347 256 130.14C251.761 155.779 247.522 181.43 243.283 207.069C235.169 204.188 227.066 201.307 218.952 198.425L218.94 198.437Z" fill="#FCD77C"/>
<path d="M196.681 210.384C166.296 212.727 135.84 213.851 105.454 216.194C102.609 236.527 99.986 258.079 97.1289 278.4C104.588 300.783 117.199 330.405 139.001 361.268C154.059 382.585 169.785 399.252 183.508 411.843C191.787 408.095 200.077 404.347 208.355 400.599C187.548 359.71 166.741 318.832 145.933 277.943C162.888 255.42 179.703 232.896 196.67 210.373L196.681 210.384Z" fill="#575554"/>
<path d="M196.68 210.384C173.484 211.942 165.124 212.985 141.928 214.542C118.58 250.149 80.8756 287.15 57.5273 322.756C65.2203 358.562 72.9133 394.368 80.6063 430.174C89.5639 428.604 98.5098 427.035 107.467 425.465C108.264 400.494 108.182 374.304 106.941 347.025C106.578 339.072 106.121 331.236 105.594 323.506C126.811 310.727 159.808 286.353 182.676 244.644C189.081 232.955 193.273 220.773 196.704 210.384H196.68Z" fill="#3F3F3F"/>
<path d="M137.36 71.7522C134.527 72.7478 131.014 73.7317 126.916 74.2939C122.712 74.8795 118.989 74.8678 115.968 74.6452C115.382 78.7798 115.171 81.2161 114.586 85.3507C115.113 85.3741 115.663 85.3858 116.331 85.3507C121.014 85.0462 124.445 83.2658 126.33 82.2234C132.103 79.0141 135.768 74.1182 137.36 71.7522Z" fill="url(#paint0_linear_6545_15134)"/>
<path d="M147.525 24.0814C139.961 19.6774 135.617 17.1474 131.87 12.9894C129.352 10.1901 126.589 6.10234 124.61 0C123.72 0.38652 113.463 5.0599 111.051 17.1006C109.13 26.705 113.58 34.1543 114.411 35.5013C119.06 36.5672 122.936 37.6564 125.863 38.5349C131.308 40.1747 133.029 40.9829 134.575 42.6812C136.916 45.2697 137.584 48.561 137.806 50.5756C139.059 48.8304 140.886 47.8934 142.373 48.3619C144.668 49.0881 145.371 52.965 144.598 55.2841C144.258 56.2914 143.45 57.1816 141.823 58.9736C140.874 60.0043 140.043 60.8125 139.434 61.363C138.884 62.8623 138.275 64.9588 138.029 67.5356C137.76 70.253 137.982 72.5604 138.263 74.1885C141.717 71.6819 146.179 67.8519 150.488 62.2649C155.768 55.413 158.696 48.6313 160.323 43.9228C160.967 40.9829 161.436 36.6726 159.515 32.8308C157.712 29.2116 155.019 28.4268 147.537 24.0814H147.525Z" fill="#1D1D1B"/>
<path d="M122.232 45.9723C122.829 45.4218 121.939 37.7616 114.492 42.1422" stroke="#1D1D1B" stroke-width="0.91192" stroke-miterlimit="10"/>
<path d="M214.433 437.81L177.49 449.886C174.118 452.802 169.575 453.283 166.437 451.256C163.708 449.499 163.006 446.466 162.854 445.693C164.001 441.921 167.924 430.841 179.165 423.052C186.167 418.191 193.099 416.645 197.068 416.071C199.867 413.026 202.653 409.969 205.452 406.924C206.564 406.256 208.168 405.565 209.796 405.987C212.477 406.689 213.402 409.992 216.377 416.809C217.36 419.046 218.742 422.103 220.569 425.711C222.653 427.971 223.086 431.298 221.669 433.992C220.288 436.615 217.407 438.138 214.433 437.798V437.81Z" fill="#31A055"/>
<path d="M163.346 447.532C178.451 444.732 189.493 440.071 196.799 436.323C208.263 430.443 217.009 423.603 220.885 426.367C222.899 427.796 222.899 431.509 221.822 434.132C219.222 440.422 211.494 438.525 194.996 445.4C194.996 445.4 175.758 453.411 169.013 452.205C167.666 451.959 166.566 451.315 166.566 451.315C164.786 450.261 163.837 448.633 163.357 447.543L163.346 447.532Z" fill="white"/>
<path d="M183.893 420.827C183.893 420.827 187.171 421.213 189.782 425.605" stroke="#1D1D1B" stroke-width="0.935302" stroke-miterlimit="10" stroke-linecap="round"/>
<path d="M186.621 419.316C186.621 419.316 189.9 419.269 192.511 423.661" stroke="#1D1D1B" stroke-width="0.935302" stroke-miterlimit="10" stroke-linecap="round"/>
<path d="M181.576 422.385C181.576 422.385 184.187 422.314 186.799 426.707" stroke="#1D1D1B" stroke-width="0.935302" stroke-miterlimit="10" stroke-linecap="round"/>
<path d="M104.166 462.489L65.3151 461.142C61.1466 462.712 56.7205 461.611 54.4606 458.624C52.5051 456.035 52.8916 452.943 53.0086 452.17C55.3856 449.02 62.8796 439.966 76.0993 436.51C84.3427 434.355 91.38 435.281 95.3143 436.112C98.991 434.203 102.656 432.305 106.333 430.396C107.609 430.15 109.354 430.057 110.735 431.005C113.007 432.587 112.738 436.007 113.194 443.433C113.347 445.869 113.604 449.219 114.073 453.224C115.255 456.059 114.517 459.338 112.269 461.377C110.068 463.368 106.836 463.801 104.166 462.466V462.489Z" fill="#31A055"/>
<path d="M52.8457 454.068C67.9975 456.633 79.9644 456.047 88.1023 455.04C100.889 453.459 111.451 450.027 114.144 453.962C115.537 456 114.273 459.491 112.352 461.576C107.751 466.589 101.146 462.161 83.2898 462.934C83.2898 462.934 62.4707 463.848 56.5458 460.393C55.3632 459.702 54.5552 458.718 54.5552 458.718C53.2438 457.113 52.9159 455.263 52.834 454.068H52.8457Z" fill="white"/>
<path d="M81.3223 436.053C81.3223 436.053 84.273 437.541 85.2097 442.566" stroke="#1D1D1B" stroke-width="0.935302" stroke-miterlimit="10" stroke-linecap="round"/>
<path d="M84.4023 435.562C84.4023 435.562 87.4936 436.639 88.442 441.676" stroke="#1D1D1B" stroke-width="0.935302" stroke-miterlimit="10" stroke-linecap="round"/>
<path d="M78.6152 436.709C78.6152 436.709 81.0859 437.541 82.0343 442.566" stroke="#1D1D1B" stroke-width="0.935302" stroke-miterlimit="10" stroke-linecap="round"/>
<path d="M114.646 46.6871C114.19 48.034 114.822 49.4395 116.075 49.8261C117.328 50.2126 118.698 49.4278 119.154 48.0809C119.611 46.7339 118.979 45.3284 117.738 44.9419C116.496 44.5553 115.115 45.3401 114.658 46.6871H114.646Z" stroke="#1D1D1B" stroke-width="0.502725" stroke-miterlimit="10"/>
<path d="M110.16 63.4129C109.914 65.1581 110.441 66.6339 111.319 66.7042C112.198 66.7745 113.111 65.4275 113.345 63.6823C113.579 61.9371 113.076 60.4613 112.198 60.3911C111.319 60.3208 110.406 61.6677 110.172 63.4129H110.16Z" fill="#1D1D1B"/>
</g>
<defs>
<linearGradient id="paint0_linear_6545_15134" x1="128.965" y1="83.3947" x2="125.544" y2="77.8554" gradientUnits="userSpaceOnUse">
<stop stop-color="white" stop-opacity="0"/>
<stop offset="1" stop-color="#BBA5A0"/>
</linearGradient>
<clipPath id="clip0_6545_15134">
<rect width="256" height="464" fill="white"/>
</clipPath>
</defs>
</svg>
