<svg width="104" height="101" viewBox="0 0 104 101" fill="none" xmlns="http://www.w3.org/2000/svg">
<g clip-path="url(#clip0_6691_8851)">
<path d="M47.3793 4.85795L2.05764 90.3363C0.00637186 94.2068 2.57213 99.0449 6.67467 99.0449H97.318C101.421 99.0449 103.986 94.2068 101.935 90.3363L56.6201 4.85795C54.5688 0.987454 49.4373 0.987454 47.386 4.85795H47.3793Z" fill="#C22347"/>
<path d="M47.3793 4.85795L2.05764 90.3363C0.00637182 94.2068 2.57213 99.0449 6.67467 99.0449H97.318C101.421 99.0449 103.986 94.2068 101.935 90.3363L56.6201 4.85795C54.5688 0.987454 49.4373 0.987454 47.386 4.85795H47.3793Z" stroke="white" stroke-width="4" stroke-miterlimit="10"/>
<path d="M47.3793 4.85795L2.05764 90.3363C0.00637182 94.2068 2.57213 99.0449 6.67467 99.0449H97.318C101.421 99.0449 103.986 94.2068 101.935 90.3363L56.6201 4.85795C54.5688 0.987454 49.4373 0.987454 47.386 4.85795H47.3793Z" stroke="#C22347" stroke-miterlimit="10"/>
<path d="M52.0034 81.664C53.675 81.664 55.0301 80.1884 55.0301 78.3683C55.0301 76.5481 53.675 75.0725 52.0034 75.0725C50.3317 75.0725 48.9766 76.5481 48.9766 78.3683C48.9766 80.1884 50.3317 81.664 52.0034 81.664Z" fill="white"/>
<path d="M55.0223 45.9202C55.0223 56.1057 53.666 72.2352 51.9955 72.2352C50.3251 72.2352 48.9688 56.1057 48.9688 45.9202C48.9688 35.7347 50.3251 35.3418 51.9955 35.3418C53.666 35.3418 55.0223 35.7274 55.0223 45.9202Z" fill="white"/>
</g>
<defs>
<clipPath id="clip0_6691_8851">
<rect width="104" height="100" fill="white" transform="translate(0 0.5)"/>
</clipPath>
</defs>
</svg>
