<svg width="82" height="81" viewBox="0 0 82 81" fill="none" xmlns="http://www.w3.org/2000/svg">
<ellipse cx="41.0005" cy="39.9154" rx="41" ry="39.3109" fill="url(#paint0_linear_1634_10175)"/>
<path d="M15.3129 70.4526C8.76006 66.9861 21.1847 52.9974 26.8514 42.9423L42.5437 32.543C42.595 33.5509 51.9284 33.9443 54.8514 41.9835C58.9491 53.2532 63.6976 57.6931 63.6976 65.8798C63.6976 75.9841 52.7745 72.1489 48.6206 73.919C44.4668 75.6891 28.6976 77.533 15.3129 70.4526Z" fill="#B0937A"/>
<path d="M29.543 60.5667C34.1581 59.5833 34.6765 52.9341 34.8475 50.6396H44.5906C46.9494 58.8997 47.6239 60.5667 49.3122 60.5667C47.2183 63.4347 44.1803 67.553 38.9498 68.3397C33.7193 69.1264 30.825 64.0903 29.543 60.5667Z" fill="#F4D4CD"/>
<path d="M46.0706 53.8359C46.0706 53.8359 41.7939 55.188 40.1273 55.188C38.3325 54.9422 33.7627 53.8359 33.7627 53.8359C33.7627 53.8359 37.3444 58.7526 40.1273 58.7526C43.4605 58.7526 45.215 56.2829 46.0706 53.8359Z" fill="url(#paint1_linear_1634_10175)"/>
<path d="M54.1277 35.772C54.1277 41.7528 52.9454 43.1961 51.9483 47.9899C51.2489 51.3527 43.2308 57.6512 40.2306 57.6512C37.5901 57.6512 28.8375 52.0656 28.1291 47.9899C27.4206 43.9142 26.3086 41.2611 26.3086 35.2803C26.3086 24.2829 31.6636 15.8594 40.2306 15.8594C48.7977 15.8594 54.1277 24.7745 54.1277 35.772Z" fill="#F4D4CD"/>
<ellipse cx="3.1981" cy="4.4353" rx="3.1981" ry="4.4353" transform="matrix(0.975234 -0.221177 0.239521 0.970891 22.9805 36.3242)" fill="#F4D4CD"/>
<ellipse cx="3.1981" cy="4.4353" rx="3.1981" ry="4.4353" transform="matrix(-0.975234 -0.221177 -0.239521 0.970891 56.9814 36.0801)" fill="#F4D4CD"/>
<path d="M58.009 31.068C59.1442 25.9765 59.0861 23.7468 56.086 18.3824C51.6724 10.4906 38.5475 6.95044 28.3937 18.3823C26.6529 20.3422 19.3069 22.1438 21.2398 29.8142C21.7907 32.0005 25.6693 40.6393 28.3937 43.4588C28.3937 43.4588 25.8552 32.3219 30.086 26.6428C36.7014 36.8209 58.7644 37.4846 60.6244 37.4846C60.6244 37.4846 57.2821 34.3287 58.009 31.068Z" fill="#B0937A"/>
<path d="M39.8594 52.1618C38.1933 52.1618 36.4491 51.3993 35.8594 50.9811C39.1825 52.457 42.6286 51.4485 43.9363 50.7598C43.3466 51.0795 41.7825 52.1618 39.8594 52.1618Z" fill="black" stroke="black" stroke-width="0.147684" stroke-linejoin="round"/>
<path d="M42.0145 45.6756C42.0145 45.6756 40.8465 40.8818 40.0795 40.8818C39.0517 41.0047 38.1571 45.6756 38.1571 45.6756C38.1571 45.6756 36.488 47.243 38.6686 47.5194C39.1298 47.5779 39.3348 47.9191 40.0794 47.8881C40.6358 47.8649 41.0054 47.4481 41.3923 47.3964C42.2897 47.2767 43.0589 46.9048 42.0145 45.6756Z" fill="url(#paint2_linear_1634_10175)"/>
<path d="M35.3803 36.8096C34.4705 36.7732 33.5523 36.7846 32.6471 36.8872C31.7457 36.9645 30.8571 37.151 29.9944 37.4102C29.9215 37.4251 29.8838 37.5029 29.9129 37.5789C29.9346 37.6358 29.996 37.6789 30.0689 37.664C30.9248 37.5128 31.7853 37.4151 32.6576 37.4434C33.5248 37.4566 34.3925 37.5149 35.2465 37.6643L35.2601 37.6703C35.5016 37.7146 35.7435 37.5542 35.7762 37.3166C35.8225 37.085 35.6552 36.853 35.4073 36.8217C35.4136 36.8087 35.4001 36.8027 35.3803 36.8096Z" fill="black"/>
<path d="M45.2817 36.7895C46.1918 36.76 47.1098 36.7785 48.0142 36.888C48.9149 36.9722 49.802 37.1655 50.6624 37.4314C50.7352 37.4468 50.7722 37.5249 50.7426 37.6006C50.7203 37.6574 50.6586 37.7 50.5858 37.6845C49.7312 37.5268 48.8716 37.4225 47.999 37.4441C47.1317 37.4507 46.2636 37.5023 45.4084 37.6451L45.3948 37.651C45.1529 37.6935 44.9123 37.5312 44.8816 37.2934C44.8373 37.0614 45.0065 36.8307 45.2546 36.8013C45.2484 36.7883 45.262 36.7824 45.2817 36.7895Z" fill="black"/>
<path d="M47.291 41.3327C48.3217 41.3934 49.3667 41.339 50.2955 40.9396C50.3866 40.9003 50.4923 40.9387 50.5334 41.0261C50.5662 41.096 50.5443 41.1895 50.4614 41.2463C49.6395 41.7325 48.2944 42.0277 47.3212 42.0971C46.3377 42.1806 45.3656 42.0918 44.4162 41.8382C44.1073 41.7404 43.9332 41.4163 44.027 41.1027C44.129 40.8065 44.467 40.6395 44.7941 40.7295C44.8106 40.6879 46.1434 41.24 47.291 41.3327Z" fill="black"/>
<path d="M33.0073 41.3088C31.9897 41.3688 30.958 41.3151 30.041 40.9208C29.9511 40.882 29.8467 40.9199 29.8062 41.0061C29.7738 41.0751 29.7954 41.1674 29.8772 41.2235C30.6887 41.7035 32.0167 41.995 32.9774 42.0635C33.9484 42.146 34.9081 42.0583 35.8454 41.8079C36.1504 41.7114 36.3223 41.3914 36.2297 41.0818C36.129 40.7893 35.7953 40.6245 35.4723 40.7133C35.4561 40.6723 34.1403 41.2173 33.0073 41.3088Z" fill="black"/>
<path d="M14.1602 69.6403C14.1602 69.6403 15.3449 66.5447 17.2371 66.0264L18.4678 73.033L14.9294 70.2303L14.1602 69.6403Z" fill="url(#paint3_linear_1634_10175)"/>
<path d="M30.4666 60.2013C27.3128 61.6026 20.287 64.7905 17.082 66.1016L18.3128 72.887C18.3128 72.887 26.6974 79.1561 41.8513 79.1561C57.0051 79.1561 64.7743 71.7069 64.7743 71.7069L63.6205 66.1016C61.9796 64.6266 52.3897 61.8977 47.7743 59.7588C46.4069 62.2581 43.7696 65.344 38.8468 65.1473C33.924 64.9506 31.535 62.5367 30.4666 60.2013Z" fill="url(#paint4_linear_1634_10175)"/>
<path d="M27.6235 36.3777C27.6235 36.3777 28.1377 37.9827 27.9312 40.2867C27.8808 40.8494 28.5232 38.9839 28.9418 39.8536C28.7325 40.3219 28.7428 42.1282 28.9418 42.998C29.2115 44.1759 31.0627 45.0071 30.756 45.3395C29.1512 47.079 27.8627 46.1625 27.9312 46.8508C28.1496 49.0459 28.9418 50.0222 28.9418 50.0222C28.9418 50.0222 38.3086 45.0795 36.9661 41.4592C36.4243 39.9982 35.4701 38.9463 34.2389 38.0003C30.8841 36.8007 31.6235 35.7877 27.6235 36.3777Z" fill="url(#paint5_linear_1634_10175)"/>
<g filter="url(#filter0_ii_1634_10175)">
<ellipse cx="3.69862" cy="3.47586" rx="3.69862" ry="3.47586" transform="matrix(0.995894 0.104214 -0.112936 0.992153 29.5293 37.9219)" fill="#F6C069"/>
</g>
<path d="M36.3198 42.1221C36.1157 43.915 34.3922 45.2247 32.4485 45.0213C30.5048 44.8179 29.1165 43.1826 29.3206 41.3897C29.5247 39.5968 31.2482 38.2871 33.1919 38.4905C35.1356 38.6939 36.5238 40.3292 36.3198 42.1221Z" stroke="#FEDD81" stroke-width="0.369209"/>
<path d="M32.1466 39.8643C31.9847 39.8474 31.8403 39.9534 31.8234 40.1015L31.6406 41.7079L31.3479 41.6773C31.186 41.6604 31.0416 41.7663 31.0247 41.9144C31.0079 42.0625 31.125 42.1959 31.2869 42.2128L31.5796 42.2434L31.5491 42.5112L31.2564 42.4806C31.0946 42.4636 30.9502 42.5696 30.9333 42.7177C30.9164 42.8658 31.0336 42.9991 31.1955 43.0161L31.4882 43.0467L31.4577 43.3144C31.4408 43.4625 31.558 43.5959 31.7199 43.6128C31.8818 43.6297 32.0262 43.5238 32.043 43.3757L32.0735 43.1079L33.5369 43.2611C33.6987 43.278 33.8431 43.172 33.86 43.0239C33.8769 42.8758 33.7597 42.7425 33.5978 42.7256L32.1345 42.5724L32.1649 42.3047L33.1893 42.4119C33.9164 42.488 34.5677 42.01 34.6434 41.3448C34.7192 40.6797 34.1907 40.0782 33.4636 40.0022L32.1466 39.8643ZM33.2502 41.8764L32.2259 41.7692L32.3783 40.4305L33.4026 40.5377C33.8069 40.58 34.1002 40.9138 34.0581 41.2836C34.016 41.6534 33.6545 41.9187 33.2502 41.8764Z" fill="#FEDD81"/>
<path d="M18.9574 52.8243L15.1865 70.5427C15.1865 70.5427 17.0753 72.0013 18.9538 73.2441C21.2334 74.7521 24.0468 75.8783 24.0468 75.8783L24.7359 55.1098C24.758 53.8972 25.202 53.5426 27.0929 51.5226C27.3603 50.6994 35.3056 45.9447 34.2166 45.4526C32.0567 43.9011 28.4578 48.832 27.2213 45.8381C27.562 44.19 27.4557 43.599 27.1676 42.5928C27.0945 42.3376 27.9605 39.5834 28.6583 39.1819C29.9841 38.419 32.6111 39.0586 33.3246 37.7667C33.6417 37.1927 29.1472 36.1098 27.8214 36.6397C26.4956 37.1696 25.1844 39.854 24.7385 39.9436C24.2927 40.0332 23.0167 40.3803 19.9681 40.9415C14.3114 41.9828 17.5019 50.2646 18.9574 52.8243Z" fill="#F4D4CD"/>
<path d="M21.888 41.2383C24.1152 42.3575 24.881 42.7977 24.8531 44.4997C24.835 45.6021 24.2822 47.0366 23.3394 47.433C22.8476 47.6397 22.1682 46.9495 22.1682 46.9495M19.5164 42.5C21.4036 43.5836 21.847 44.2302 21.7816 45.7445C21.7354 46.8125 21.499 48.1229 20.4867 48.023C19.7537 47.9506 19.1628 47.3973 19.0587 46.6202C19.0041 46.2121 19.2663 45.6151 19.2663 45.6151M25.212 40.5637C25.212 40.5637 27.1364 42.0399 27.3484 43.4067C27.5601 44.7713 27.3393 46.1388 26.1496 46.5738C25.5951 46.7766 24.6126 46.5431 24.6126 46.5431" stroke="#E4C5BE" stroke-width="0.219104" stroke-linecap="round" stroke-linejoin="round"/>
<path d="M51.3876 41.0988C51.3876 41.0988 51.0799 40.2136 52.3107 39.9923C56.5414 39.2317 56.3876 40.5088 55.1568 42.2789C54.4591 43.2824 50.9393 44.8673 51.1254 45.2737C51.3917 45.855 52.0715 46.9009 52.003 47.5893C51.5414 49.6544 50.3876 50.687 50.3876 50.687C50.3876 50.687 46.1568 45.8187 47.7722 43.2375C48.3236 42.3564 49.3876 41.8362 51.3876 41.0988Z" fill="url(#paint6_linear_1634_10175)"/>
<g filter="url(#filter1_ii_1634_10175)">
<ellipse cx="3.70416" cy="3.47023" rx="3.70416" ry="3.47023" transform="matrix(-0.995519 -0.0937388 -0.101902 0.994879 55.4429 41.6787)" fill="#F6C069"/>
</g>
<path d="M47.8979 44.454C47.7141 46.2482 49.1203 47.8695 51.0669 48.0527C53.0134 48.236 54.7217 46.9081 54.9055 45.1139C55.0892 43.3197 53.6831 41.6984 51.7365 41.5151C49.7899 41.3319 48.0817 42.6598 47.8979 44.454Z" stroke="#FEDD81" stroke-width="0.369209"/>
<path d="M51.1698 42.8027C51.0149 42.7542 50.8509 42.8295 50.8028 42.9712L50.2801 44.5075L50.0002 44.42C49.8454 44.3716 49.6814 44.4469 49.6332 44.5885C49.585 44.7301 49.6711 44.8837 49.8259 44.9321L50.1058 45.0196L50.0187 45.2757L49.7388 45.1882C49.584 45.1397 49.42 45.2151 49.3718 45.3567C49.3236 45.4983 49.4098 45.6519 49.5646 45.7003L49.8445 45.7878L49.7574 46.0439C49.7092 46.1855 49.7953 46.3391 49.9502 46.3875C50.105 46.4359 50.269 46.3606 50.3172 46.219L50.4043 45.9629L51.8038 46.4006C51.9586 46.449 52.1226 46.3737 52.1708 46.2321C52.2189 46.0904 52.1328 45.9369 51.978 45.8885L50.5785 45.4508L50.6656 45.1947L51.6453 45.5011C52.3406 45.7186 53.0804 45.3789 53.2968 44.7428C53.5132 44.1066 53.1246 43.4141 52.4293 43.1966L51.1698 42.8027ZM51.8195 44.989L50.8399 44.6826L51.2754 43.4023L52.2551 43.7087C52.6417 43.8296 52.8573 44.214 52.737 44.5677C52.6167 44.9214 52.2061 45.1099 51.8195 44.989Z" fill="#FEDD81"/>
<path d="M63.698 58.1365L66.7749 70.3797C66.7749 70.3797 64.5741 72.0667 63.1595 73.0348C60.8964 74.5837 59.0057 75.395 59.0057 75.395L57.3835 58.1365C57.6214 56.9454 55.567 56.7973 54.1487 54.4488C54.0632 53.5906 48.0656 48.3944 49.2369 48.1268C51.6832 47.0329 54.1501 52.5659 56.0013 49.8789C56.0208 48.1991 56.2514 47.6416 56.7488 46.7135C56.875 46.4781 56.6171 43.6124 56.02 43.0823C54.8857 42.0751 52.1774 42.1848 51.7556 40.7803C51.5682 40.1561 56.1992 39.9797 57.3835 40.7588C58.5677 41.538 59.2764 44.4228 59.6936 44.5981C60.1108 44.7734 61.2821 45.3717 64.1493 46.5123C69.0826 48.4747 65.6707 55.9176 63.698 58.1365Z" fill="#F4D4CD"/>
<path d="M62.2876 46.3953C59.844 47.0593 58.9918 47.3423 58.6517 49.0304C58.4313 50.1238 58.6678 51.6518 59.5142 52.2309C59.9556 52.533 60.7764 51.9856 60.7764 51.9856M64.3595 48.1138C62.2597 48.8101 61.6816 49.3612 61.419 50.8712C61.2339 51.9361 61.1844 53.2786 62.2067 53.3809C62.947 53.455 63.6508 53.0253 63.9216 52.2779C64.0638 51.8852 63.9335 51.243 63.9335 51.243M59.1474 45.0681C59.1474 45.0681 56.926 46.1451 56.421 47.4541C55.9168 48.7611 55.8395 50.1569 56.9217 50.8233C57.426 51.1339 58.4478 51.0983 58.4478 51.0983" stroke="#E4C5BE" stroke-width="0.219104" stroke-linecap="round" stroke-linejoin="round"/>
<defs>
<filter id="filter0_ii_1634_10175" x="29.1157" y="37.6131" width="7.40918" height="8.28554" filterUnits="userSpaceOnUse" color-interpolation-filters="sRGB">
<feFlood flood-opacity="0" result="BackgroundImageFix"/>
<feBlend mode="normal" in="SourceGraphic" in2="BackgroundImageFix" result="shape"/>
<feColorMatrix in="SourceAlpha" type="matrix" values="0 0 0 0 0 0 0 0 0 0 0 0 0 0 0 0 0 0 127 0" result="hardAlpha"/>
<feOffset dy="0.672065"/>
<feGaussianBlur stdDeviation="0.403239"/>
<feComposite in2="hardAlpha" operator="arithmetic" k2="-1" k3="1"/>
<feColorMatrix type="matrix" values="0 0 0 0 0.0901961 0 0 0 0 0.0980392 0 0 0 0 0.101961 0 0 0 0.1 0"/>
<feBlend mode="normal" in2="shape" result="effect1_innerShadow_1634_10175"/>
<feColorMatrix in="SourceAlpha" type="matrix" values="0 0 0 0 0 0 0 0 0 0 0 0 0 0 0 0 0 0 127 0" result="hardAlpha"/>
<feOffset dy="-0.672065"/>
<feGaussianBlur stdDeviation="0.403239"/>
<feComposite in2="hardAlpha" operator="arithmetic" k2="-1" k3="1"/>
<feColorMatrix type="matrix" values="0 0 0 0 0.0901961 0 0 0 0 0.0980392 0 0 0 0 0.101961 0 0 0 0.1 0"/>
<feBlend mode="normal" in2="effect1_innerShadow_1634_10175" result="effect2_innerShadow_1634_10175"/>
</filter>
<filter id="filter1_ii_1634_10175" x="47.6968" y="40.6414" width="7.40967" height="8.28456" filterUnits="userSpaceOnUse" color-interpolation-filters="sRGB">
<feFlood flood-opacity="0" result="BackgroundImageFix"/>
<feBlend mode="normal" in="SourceGraphic" in2="BackgroundImageFix" result="shape"/>
<feColorMatrix in="SourceAlpha" type="matrix" values="0 0 0 0 0 0 0 0 0 0 0 0 0 0 0 0 0 0 127 0" result="hardAlpha"/>
<feOffset dy="0.672065"/>
<feGaussianBlur stdDeviation="0.403239"/>
<feComposite in2="hardAlpha" operator="arithmetic" k2="-1" k3="1"/>
<feColorMatrix type="matrix" values="0 0 0 0 0.0901961 0 0 0 0 0.0980392 0 0 0 0 0.101961 0 0 0 0.1 0"/>
<feBlend mode="normal" in2="shape" result="effect1_innerShadow_1634_10175"/>
<feColorMatrix in="SourceAlpha" type="matrix" values="0 0 0 0 0 0 0 0 0 0 0 0 0 0 0 0 0 0 127 0" result="hardAlpha"/>
<feOffset dy="-0.672065"/>
<feGaussianBlur stdDeviation="0.403239"/>
<feComposite in2="hardAlpha" operator="arithmetic" k2="-1" k3="1"/>
<feColorMatrix type="matrix" values="0 0 0 0 0.0901961 0 0 0 0 0.0980392 0 0 0 0 0.101961 0 0 0 0.1 0"/>
<feBlend mode="normal" in2="effect1_innerShadow_1634_10175" result="effect2_innerShadow_1634_10175"/>
</filter>
<linearGradient id="paint0_linear_1634_10175" x1="54.1115" y1="102.601" x2="49.7128" y2="30.2325" gradientUnits="userSpaceOnUse">
<stop offset="0.0260417" stop-color="#749DAE"/>
<stop offset="1" stop-color="#C9E2E7" stop-opacity="0.4"/>
</linearGradient>
<linearGradient id="paint1_linear_1634_10175" x1="42.6599" y1="55.9333" x2="43.6334" y2="61.9135" gradientUnits="userSpaceOnUse">
<stop stop-color="#DEC1C0"/>
<stop offset="1" stop-color="#DEC1C0" stop-opacity="0"/>
</linearGradient>
<linearGradient id="paint2_linear_1634_10175" x1="40.6232" y1="49.9777" x2="40.1516" y2="42.6" gradientUnits="userSpaceOnUse">
<stop stop-color="#DEC1C0"/>
<stop offset="1" stop-color="#DEC1C0" stop-opacity="0"/>
</linearGradient>
<linearGradient id="paint3_linear_1634_10175" x1="18.4055" y1="85.1812" x2="4.72714" y2="82.1386" gradientUnits="userSpaceOnUse">
<stop offset="0.00395736" stop-color="#F5BD67"/>
<stop offset="1" stop-color="#FFDE82"/>
</linearGradient>
<linearGradient id="paint4_linear_1634_10175" x1="21.3208" y1="85.0576" x2="30.0278" y2="56.8087" gradientUnits="userSpaceOnUse">
<stop offset="0.00395736" stop-color="#F5BD67"/>
<stop offset="1" stop-color="#FFDE82"/>
</linearGradient>
<linearGradient id="paint5_linear_1634_10175" x1="29.018" y1="39.791" x2="43.7617" y2="31.8689" gradientUnits="userSpaceOnUse">
<stop stop-color="#DEC1C0"/>
<stop offset="1" stop-color="#DEC1C0" stop-opacity="0"/>
</linearGradient>
<linearGradient id="paint6_linear_1634_10175" x1="53.1553" y1="39.6121" x2="38.4117" y2="31.69" gradientUnits="userSpaceOnUse">
<stop stop-color="#DEC1C0"/>
<stop offset="1" stop-color="#DEC1C0" stop-opacity="0"/>
</linearGradient>
</defs>
</svg>
