<svg width="82" height="81" viewBox="0 0 82 81" fill="none" xmlns="http://www.w3.org/2000/svg">
<ellipse cx="39.5271" cy="40.5815" rx="39.5271" ry="39.977" fill="url(#paint0_linear_1634_10377)"/>
<path d="M9.78564 66.9277C9.78564 66.9277 12.8622 62.8502 14.7737 62.2979L16.8501 73.3171L13.2475 70.5695L9.78564 66.9277Z" fill="url(#paint1_linear_1634_10377)"/>
<path d="M28.093 58.3684C25.192 58.4732 17.8114 60.9007 14.5737 62.2978L16.5542 73.0184C16.5542 73.0184 24.7507 80.6041 40.0592 80.6041C55.3677 80.6041 63.5591 72.6933 63.5591 72.6933L65.0814 63.7386C63.4237 62.1669 52.613 59.3726 47.519 58.1064C46.1376 60.7697 42.34 65.9129 37.367 65.7034C32.3939 65.4938 29.1722 60.857 28.093 58.3684Z" fill="url(#paint2_linear_1634_10377)"/>
<path d="M26.9844 58.8928C31.6466 57.845 33.1575 52.693 33.3302 50.248H43.1727C45.5557 59.05 49.0006 59.6787 50.4251 58.8928C48.3098 61.949 42.7583 68.2711 37.4744 69.1093C32.1906 69.9476 28.2794 62.6476 26.9844 58.8928Z" fill="#F4D4CD"/>
<path d="M44.6674 53.6533C44.6674 53.6533 40.3471 55.0941 38.6635 55.0941C36.8504 54.8322 32.2339 53.6533 32.2339 53.6533C32.2339 53.6533 35.8521 58.8926 38.6635 58.8926C42.0306 58.8926 43.803 56.2608 44.6674 53.6533Z" fill="url(#paint3_linear_1634_10377)"/>
<path d="M51.7095 34.3996C51.7095 40.7728 50.5151 44.8258 49.5078 49.934C49.1721 51.6368 41.7893 57.7143 38.7584 57.7143C36.091 57.7143 27.945 51.8988 27.6213 49.934C26.9056 45.591 25.7822 40.2489 25.7822 33.8757C25.7822 22.1568 30.1039 13.1807 38.7584 13.1807C47.4129 13.1807 51.7095 22.6807 51.7095 34.3996Z" fill="#F4D4CD"/>
<ellipse cx="2.83187" cy="4.11937" rx="2.83187" ry="4.11937" transform="matrix(0.972557 -0.232666 0.227731 0.973724 22.3955 35.9541)" fill="#F4D4CD"/>
<ellipse cx="2.62119" cy="3.8129" rx="2.62119" ry="3.8129" transform="matrix(-0.972557 -0.232666 -0.227731 0.973724 55.1333 36.2051)" fill="#F4D4CD"/>
<path d="M53.3667 30.0987C55.1692 24.0528 54.226 19.1978 52.28 18.0411C32.4595 6.25924 28.6192 16.7224 26.4938 18.5575C21.2885 23.0518 24.2258 28.9027 25.921 39.7324C27.7543 39.7324 24.1506 20.152 45.8091 28.9026C53.3667 29.3686 50.2024 39.0179 51.0179 39.0179C51.0179 39.0179 52.3328 33.5664 53.3667 30.0987Z" fill="#B0937A"/>
<path d="M31.2322 27.9569C37.5793 25.2617 45.1184 30.5069 48.5836 29.2002C51.5912 26.8705 53.6846 24.1247 53.2122 20.0883C52.7399 16.0519 50.9699 12.8438 50.0004 12.9248C48.6024 12.6276 48.7437 15.6882 42.2551 15.2168C33.4721 14.1391 31.1252 25.9748 31.2322 27.9569Z" fill="url(#paint4_linear_1634_10377)"/>
<path d="M40.752 45.7928C40.752 45.7928 39.5721 40.6846 38.7972 40.6846C37.759 40.8155 36.8552 45.7928 36.8552 45.7928C36.8552 45.7928 35.169 47.463 37.3719 47.7575C37.8379 47.8199 38.045 48.1836 38.7972 48.1505C39.3592 48.1258 39.7326 47.6816 40.1235 47.6266C41.03 47.499 41.8071 47.1026 40.752 45.7928Z" fill="url(#paint5_linear_1634_10377)"/>
<path d="M42.6812 50.0226C40.3497 50.4155 35.5587 50.5465 34.782 50.5465C34.0053 50.5465 36.6983 52.5374 38.6668 52.6422C40.6353 52.747 45.0127 49.6296 42.6812 50.0226Z" fill="white"/>
<path d="M34.416 34.9386C32.5783 34.861 30.7859 35.2037 29.0252 35.7619C28.4425 35.9465 28.7061 36.7248 29.1229 36.6471C30.8452 36.3261 32.2521 36.0892 33.9763 36.4073C34.5852 36.5195 34.9557 36.0203 34.9842 35.8018C35.0191 35.6173 34.9842 34.9626 34.416 34.9386Z" fill="black"/>
<path d="M42.8745 34.714C44.7122 34.6364 46.5046 34.9791 48.2653 35.5373C48.848 35.7219 48.5844 36.5002 48.1676 36.4225C46.4454 36.1015 45.0384 35.8646 43.3142 36.1827C42.7054 36.2949 42.3348 35.7957 42.3063 35.5772C42.2714 35.3927 42.3063 34.738 42.8745 34.714Z" fill="black"/>
<path d="M34.5304 39.0949C34.2176 38.4004 30.1586 38.5931 29.4717 38.9095C28.7847 39.226 30.3031 40.3109 31.3478 40.5264C33.3602 40.9415 34.8433 39.7895 34.5304 39.0949Z" fill="white"/>
<path d="M31.0354 39.2849C31.0336 39.9486 31.4855 40.488 32.0447 40.4895C32.6039 40.4911 33.0587 39.9542 33.0605 39.2905C33.0623 38.6267 32.6039 38.5397 32.0447 38.5382C31.4855 38.5367 31.0372 38.6211 31.0354 39.2849Z" fill="black"/>
<path d="M29.4031 39.1604C30.3536 38.352 33.8449 38.2495 34.4828 39.2982" stroke="black" stroke-width="0.292052" stroke-linecap="round"/>
<path d="M48.6372 38.4134C48.2774 37.7421 43.863 38.1251 43.5778 38.5842C43.2927 39.0434 44.4923 39.8012 45.5494 39.9428C47.5855 40.2155 48.997 39.0846 48.6372 38.4134Z" fill="white"/>
<path d="M45.1858 38.6766C45.1811 39.3407 45.6306 39.8824 46.1898 39.8865C46.749 39.8907 47.2061 39.3557 47.2108 38.6916C47.2156 38.0276 46.7488 37.9174 46.1896 37.9133C45.6304 37.9091 45.1905 38.0126 45.1858 38.6766Z" fill="black"/>
<path d="M43.6267 38.6416C44.5193 37.7684 48.0119 37.6404 48.7203 38.6417" stroke="black" stroke-width="0.292052" stroke-linecap="round"/>
<rect width="25.0773" height="12.4595" transform="matrix(-0.169701 0.989786 -0.980766 -0.172004 70.4282 31.3379)" fill="url(#paint6_linear_1634_10377)"/>
<path d="M65.1034 51.9374L68.0447 34.779L66.3881 32.1493L60.6585 31.0927L59.115 32.9013L55.8489 51.3543L57.2208 52.9464L62.9503 54.003L65.1034 51.9374Z" stroke="#36B35F" stroke-width="0.216644" stroke-linecap="round" stroke-linejoin="round"/>
<ellipse cx="3.57191" cy="3.55552" rx="3.57191" ry="3.55552" transform="matrix(-0.648216 0.759529 -0.754442 -0.658617 67.0918 41.8369)" fill="#36B35F"/>
<ellipse cx="1.19108" cy="1.18536" rx="1.19108" ry="1.18536" transform="matrix(-0.648216 0.759529 0.754442 0.658617 60.791 47.3877)" fill="#36B35F"/>
<ellipse cx="1.19108" cy="1.18536" rx="1.19108" ry="1.18536" transform="matrix(-0.648216 0.759529 0.754442 0.658617 63.146 33.6611)" fill="#36B35F"/>
<path d="M68.3311 30.3379L63.1692 56.3584L51.8505 53.7279L55.5207 27.7384L68.3311 30.3379Z" fill="url(#paint7_linear_1634_10377)"/>
<path d="M62.158 51.883L65.7257 33.8955L64.0533 31.0797L58.0483 29.8063L56.3731 31.6678L52.4279 51.0095L53.829 52.7247L59.834 53.9981L62.158 51.883Z" stroke="#36B35F" stroke-width="0.216644" stroke-linecap="round" stroke-linejoin="round"/>
<ellipse cx="3.76283" cy="3.74586" rx="3.76283" ry="3.74586" transform="matrix(-0.667775 0.742048 -0.73702 -0.678436 64.5259 41.3027)" fill="#36B35F"/>
<ellipse cx="1.25474" cy="1.24882" rx="1.25474" ry="1.24882" transform="matrix(-0.667775 0.742048 0.73702 0.678436 57.7441 46.9717)" fill="#36B35F"/>
<ellipse cx="1.25474" cy="1.24882" rx="1.25474" ry="1.24882" transform="matrix(-0.667775 0.742048 0.73702 0.678436 60.5957 32.5801)" fill="#36B35F"/>
<rect width="24.8159" height="12.3296" transform="matrix(0.117346 0.99752 -0.988432 0.11894 63.0796 27.5234)" fill="url(#paint8_linear_1634_10377)"/>
<path d="M63.8016 48.5807L61.788 31.4687L59.4813 29.4494L53.7526 30.0879L52.7952 32.2448L54.8632 50.6774L56.6096 51.7943L62.3382 51.1558L63.8016 48.5807Z" stroke="#36B35F" stroke-width="0.216644" stroke-linecap="round" stroke-linejoin="round"/>
<ellipse cx="3.53468" cy="3.51845" rx="3.53468" ry="3.51845" transform="matrix(-0.406299 0.915329 -0.909202 -0.412819 62.8564 38.4375)" fill="#36B35F"/>
<ellipse cx="1.17866" cy="1.173" rx="1.17866" ry="1.173" transform="matrix(-0.406299 0.915329 0.909202 0.412819 58.4419 45.5)" fill="#36B35F"/>
<ellipse cx="1.17866" cy="1.173" rx="1.17866" ry="1.173" transform="matrix(-0.406299 0.915329 0.909202 0.412819 56.833 31.8105)" fill="#36B35F"/>
<path d="M63.1144 43.2051C62.2875 37.3928 60.3051 31.1037 58.1099 28.1935L48.0213 32.9766C49.3442 35.9712 50.6537 41.606 50.854 46.2522C50.9993 49.624 53.0744 55.5379 55.2329 57.807L65.492 53.2745C64.3471 50.7176 63.72 47.4616 63.1144 43.2051Z" fill="url(#paint9_linear_1634_10377)"/>
<path d="M61.4352 43.8028C60.92 39.354 59.2586 32.2512 57.5867 30.021L49.74 33.7412C50.7527 36.0321 52.1472 41.8847 52.3377 45.4723C52.474 48.0403 54.3443 54.3254 55.9858 56.0663L63.9511 52.6605C62.8803 50.7261 61.8907 47.7353 61.4352 43.8028Z" stroke="#36B35F" stroke-width="0.383853" stroke-linecap="round" stroke-linejoin="round"/>
<ellipse cx="3.55371" cy="3.56097" rx="3.55371" ry="3.56097" transform="matrix(0.422473 0.91149 -0.899396 0.426412 58.2349 39.001)" fill="#36B35F"/>
<ellipse cx="1.06676" cy="1.06891" rx="1.06676" ry="1.06891" transform="matrix(0.422473 0.91149 0.899396 -0.426412 53.2744 35.0303)" fill="#36B35F"/>
<ellipse cx="1.06676" cy="1.06891" rx="1.06676" ry="1.06891" transform="matrix(0.422473 0.91149 0.899396 -0.426412 56.9683 51.4492)" fill="#36B35F"/>
<path d="M57.6437 60.7979L59.6668 75.5871C59.6668 75.5871 62.1744 73.9468 63.6372 72.7079C65.0637 71.4998 67.0563 69.3523 67.0563 69.3523L64.525 60.7979C64.525 59.49 65.3833 58.6375 66.9786 55.8747C67.6594 54.6958 68.1772 50.9345 67.4449 49.9017C66.9738 49.2373 67.6427 53.4601 65.0817 52.4745C61.7146 51.8819 53.2243 42.0424 52.4472 43.0641C51.6701 44.0858 58.5084 51.7093 58.5084 51.7093C57.6363 52.8259 51.5924 48.8014 50.9708 49.1158C50.315 49.4473 51.2312 54.3149 52.4472 55.5604C53.3797 56.5155 56.6123 59.7158 57.6437 60.7979Z" fill="#F4D4CD"/>
<path d="M56.0269 53.6369C56.0269 53.6369 53.6968 52.3342 51.4378 51.3172M55.0132 55.714C55.0132 55.714 54.5383 55.2241 52.2793 54.2071" stroke="#E4C5BE" stroke-width="0.216644" stroke-linecap="round" stroke-linejoin="round"/>
<defs>
<linearGradient id="paint0_linear_1634_10377" x1="52.1671" y1="104.33" x2="47.4505" y2="30.765" gradientUnits="userSpaceOnUse">
<stop offset="0.0260417" stop-color="#749DAE"/>
<stop offset="1" stop-color="#C9E2E7" stop-opacity="0.4"/>
</linearGradient>
<linearGradient id="paint1_linear_1634_10377" x1="16.7164" y1="87.0533" x2="2.83213" y2="84.1254" gradientUnits="userSpaceOnUse">
<stop offset="0.00395736" stop-color="#F5BD67"/>
<stop offset="1" stop-color="#FFDE82"/>
</linearGradient>
<linearGradient id="paint2_linear_1634_10377" x1="38.2735" y1="103.688" x2="40.8204" y2="64.1686" gradientUnits="userSpaceOnUse">
<stop offset="0.00395736" stop-color="#F5BD67"/>
<stop offset="1" stop-color="#FFDE82"/>
</linearGradient>
<linearGradient id="paint3_linear_1634_10377" x1="41.2219" y1="55.8883" x2="42.313" y2="62.2424" gradientUnits="userSpaceOnUse">
<stop stop-color="#DEC1C0"/>
<stop offset="1" stop-color="#DEC1C0" stop-opacity="0"/>
</linearGradient>
<linearGradient id="paint4_linear_1634_10377" x1="33.6241" y1="15.5774" x2="36.2504" y2="30.2802" gradientUnits="userSpaceOnUse">
<stop stop-color="#C2AE9C"/>
<stop offset="1" stop-color="#B0937A"/>
</linearGradient>
<linearGradient id="paint5_linear_1634_10377" x1="39.3464" y1="50.3772" x2="38.8166" y2="42.5191" gradientUnits="userSpaceOnUse">
<stop stop-color="#DEC1C0"/>
<stop offset="1" stop-color="#DEC1C0" stop-opacity="0"/>
</linearGradient>
<linearGradient id="paint6_linear_1634_10377" x1="26.1779" y1="0.270314" x2="-10.1055" y2="17.348" gradientUnits="userSpaceOnUse">
<stop stop-color="#36B35F"/>
<stop offset="1" stop-color="#1D6A36"/>
</linearGradient>
<linearGradient id="paint7_linear_1634_10377" x1="62.6647" y1="57.444" x2="52.4266" y2="16.2698" gradientUnits="userSpaceOnUse">
<stop stop-color="#36B35F"/>
<stop offset="1" stop-color="#1D6A36"/>
</linearGradient>
<linearGradient id="paint8_linear_1634_10377" x1="25.905" y1="0.267495" x2="-10.0001" y2="17.1672" gradientUnits="userSpaceOnUse">
<stop stop-color="#36B35F"/>
<stop offset="1" stop-color="#1D6A36"/>
</linearGradient>
<linearGradient id="paint9_linear_1634_10377" x1="61.1701" y1="29.9034" x2="54.2314" y2="57.5198" gradientUnits="userSpaceOnUse">
<stop stop-color="#36B35F"/>
<stop offset="1" stop-color="#1D6A36"/>
</linearGradient>
</defs>
</svg>
