<svg width="83" height="81" viewBox="0 0 83 81" fill="none" xmlns="http://www.w3.org/2000/svg">
<ellipse cx="41.334" cy="40.6045" rx="41" ry="40" fill="url(#paint0_linear_1634_10098)"/>
<path d="M74.6959 32.3369C73.3557 29.2824 71.2893 26.1383 69.6091 24.8725L64.61 28.9796C65.8086 30.4206 67.3956 33.3067 68.2059 35.8166C68.7938 37.638 70.8565 40.5633 72.4198 41.4841L78.772 37.0592C77.2142 36.3544 75.6773 34.5738 74.6959 32.3369Z" fill="url(#paint1_linear_1634_10098)"/>
<path d="M73.8327 32.913C72.8736 30.5577 70.8672 26.9213 69.5854 25.9497L65.6972 29.1442C66.6146 30.2464 68.2824 33.239 68.9283 35.1717C69.3906 36.5551 71.3929 39.7137 72.584 40.4223L77.2533 37.1154C76.1215 36.5898 74.6805 34.9951 73.8327 32.913Z" stroke="#36B35F" stroke-width="0.261668" stroke-linecap="round" stroke-linejoin="round"/>
<ellipse cx="2.0453" cy="2.05391" rx="2.0453" ry="2.05391" transform="matrix(0.653416 0.756999 -0.772671 0.634806 71.2983 30.7607)" fill="#36B35F"/>
<ellipse cx="0.614004" cy="0.616602" rx="0.614004" ry="0.616602" transform="matrix(0.653416 0.756999 0.772671 -0.634806 67.8896 29.3252)" fill="#36B35F"/>
<ellipse cx="0.614004" cy="0.616602" rx="0.614004" ry="0.616602" transform="matrix(0.653416 0.756999 0.772671 -0.634806 72.4551 37.7539)" fill="#36B35F"/>
<path d="M60.9327 66.7818C58.7601 67.7215 56.5299 69.1564 55.6397 70.3116L58.622 73.6779C59.6418 72.849 61.6918 71.7427 63.4796 71.1687C64.777 70.7521 66.8508 69.3217 67.4953 68.2492L64.2736 63.9646C63.7834 65.0314 62.5237 66.0936 60.9327 66.7818Z" fill="url(#paint2_linear_1634_10098)"/>
<path d="M61.3491 67.3624C59.6731 68.0364 57.0904 69.4349 56.407 70.3162L58.7265 72.9344C59.5067 72.3 61.632 71.1378 63.0085 70.6808C63.9938 70.3536 66.2349 68.9623 66.731 68.145L64.324 64.9961C63.9582 65.7713 62.8306 66.7665 61.3491 67.3624Z" stroke="#36B35F" stroke-width="0.261668" stroke-linecap="round" stroke-linejoin="round"/>
<ellipse cx="1.43315" cy="1.42815" rx="1.43315" ry="1.42815" transform="matrix(0.764483 -0.644644 0.663127 0.748507 59.834 69.1064)" fill="#36B35F"/>
<ellipse cx="0.430146" cy="0.428603" rx="0.430146" ry="0.428603" transform="matrix(0.764483 -0.644644 -0.663127 -0.748507 58.8408 71.4404)" fill="#36B35F"/>
<ellipse cx="0.430146" cy="0.428603" rx="0.430146" ry="0.428603" transform="matrix(0.764483 -0.644644 -0.663127 -0.748507 64.8257 68.2588)" fill="#36B35F"/>
<path d="M10.6622 33.5664C8.32397 35.7386 6.14434 38.5699 5.54752 40.4452L10.9416 43.4195C11.8574 41.9038 13.9606 39.5733 15.9782 38.0407C17.4424 36.9284 19.424 34.1727 19.7454 32.513L13.6141 28.4709C13.4876 30.0544 12.3746 31.9756 10.6622 33.5664Z" fill="url(#paint3_linear_1634_10098)"/>
<path d="M11.471 34.1203C9.64334 35.7309 6.99564 38.6731 6.53492 40.1056L10.7303 42.419C11.4307 41.2592 13.6041 38.8234 15.1505 37.6242C16.2574 36.7657 18.4713 33.9852 18.7226 32.7183L14.1663 29.765C14.0621 30.92 13.0865 32.6966 11.471 34.1203Z" stroke="#36B35F" stroke-width="0.261668" stroke-linecap="round" stroke-linejoin="round"/>
<ellipse cx="1.93075" cy="1.95549" rx="1.93075" ry="1.95549" transform="matrix(0.501277 -0.865287 0.875696 0.482862 10.3501 37.0303)" fill="#36B35F"/>
<ellipse cx="0.579602" cy="0.587068" rx="0.579602" ry="0.587068" transform="matrix(0.501277 -0.865287 -0.875696 -0.482862 10.1665 40.46)" fill="#36B35F"/>
<ellipse cx="0.579602" cy="0.587068" rx="0.579602" ry="0.587068" transform="matrix(0.501277 -0.865287 -0.875696 -0.482862 16.3384 33.7178)" fill="#36B35F"/>
<path d="M24.1757 57.5564C22.3336 56.0515 20.0052 54.7162 18.534 54.4427L16.7314 58.583C17.9569 59.1166 19.8992 60.4387 21.2298 61.7659C22.1953 62.7289 24.4498 63.9277 25.7346 64.0206L28.2847 59.2592C27.074 59.3005 25.5247 58.6584 24.1757 57.5564Z" fill="url(#paint4_linear_1634_10098)"/>
<path d="M23.8214 58.1855C22.4477 57.0019 19.996 55.3383 18.8718 55.1259L17.4698 58.3461C18.4074 58.7542 20.4355 60.1181 21.4739 61.1332C22.2172 61.8598 24.5099 63.2241 25.4912 63.2993L27.3479 59.7652C26.4638 59.7867 25.0357 59.2317 23.8214 58.1855Z" stroke="#36B35F" stroke-width="0.261668" stroke-linecap="round" stroke-linejoin="round"/>
<ellipse cx="1.45832" cy="1.43354" rx="1.45832" ry="1.43354" transform="matrix(0.923819 0.38283 -0.399186 0.91687 21.5215 57.6191)" fill="#36B35F"/>
<ellipse cx="0.437815" cy="0.430336" rx="0.437815" ry="0.430336" transform="matrix(0.923819 0.38283 0.399186 -0.91687 18.9082 57.7803)" fill="#36B35F"/>
<ellipse cx="0.437815" cy="0.430336" rx="0.437815" ry="0.430336" transform="matrix(0.923819 0.38283 0.399186 -0.91687 24.5371 61.6611)" fill="#36B35F"/>
<path d="M19.4738 73.1853C13.8558 70.1597 24.5079 57.95 29.3662 49.1735L42.8198 40.0967C42.8638 40.9765 50.8656 41.3198 53.3717 48.3366C56.8848 58.1732 60.9558 62.0485 60.9558 69.1941C60.9558 78.0134 51.591 74.6659 48.0298 76.2109C44.4685 77.7559 30.949 79.3653 19.4738 73.1853Z" fill="#B0937A"/>
<path d="M31.7275 64.6353C35.6782 63.7804 36.122 57.9997 36.2684 56.0049H44.6087C46.628 63.1861 47.2054 64.6353 48.6506 64.6353C46.8582 67.1288 44.2576 70.7092 39.7801 71.3931C35.3026 72.0771 32.825 67.6987 31.7275 64.6353Z" fill="#F4D4CD"/>
<path d="M45.8786 58.707C45.8786 58.707 42.19 59.904 40.7526 59.904C39.2046 59.6864 35.2632 58.707 35.2632 58.707C35.2632 58.707 38.3523 63.0598 40.7526 63.0598C43.6274 63.0598 45.1406 60.8733 45.8786 58.707Z" fill="url(#paint5_linear_1634_10098)"/>
<ellipse cx="2.74023" cy="3.85978" rx="2.74023" ry="3.85978" transform="matrix(0.974391 -0.22486 0.235626 0.971844 26.0303 43.4609)" fill="#F4D4CD"/>
<ellipse cx="2.74023" cy="3.85978" rx="2.74023" ry="3.85978" transform="matrix(-0.974391 -0.22486 -0.235626 0.971844 55.1338 43.248)" fill="#F4D4CD"/>
<path d="M52.6936 42.9786C52.6936 48.1885 51.6815 49.4457 50.8278 53.6215C50.229 56.5509 43.3649 62.0375 40.7964 62.0375C38.5359 62.0375 31.0429 57.1719 30.4364 53.6215C29.8299 50.0712 28.8779 47.7602 28.8779 42.5503C28.8779 32.9705 33.4623 25.6328 40.7964 25.6328C48.1306 25.6328 52.6936 33.3988 52.6936 42.9786Z" fill="#F4D4CD"/>
<path d="M56.0146 38.8826C56.9864 34.4473 56.9367 32.5051 54.3683 27.8322C50.5898 20.9577 39.3538 17.8739 30.6612 27.8321C29.171 29.5393 22.8821 31.1087 24.5368 37.7904C25.0085 39.6949 28.3288 47.2201 30.6612 49.6761C30.6612 49.6761 28.488 39.9748 32.1099 35.0278C37.7733 43.8939 56.6613 44.4721 58.2536 44.4721C58.2536 44.4721 55.3922 41.723 56.0146 38.8826Z" fill="#B0937A"/>
<path d="M40.6893 57.1945C39.3247 57.1945 37.8961 56.5412 37.4131 56.1829C40.1348 57.4475 42.9574 56.5833 44.0285 55.9932C43.5454 56.2672 42.2644 57.1945 40.6893 57.1945Z" fill="black" stroke="black" stroke-width="0.147684" stroke-linejoin="round"/>
<path d="M42.3579 51.6634C42.3579 51.6634 41.3458 47.4541 40.681 47.4541C39.7904 47.562 39.0151 51.6634 39.0151 51.6634C39.0151 51.6634 37.5686 53.0397 39.4583 53.2824C39.8581 53.3338 40.0357 53.6335 40.681 53.6062C41.1632 53.5858 41.4835 53.2198 41.8188 53.1745C42.5965 53.0693 43.2631 52.7428 42.3579 51.6634Z" fill="url(#paint6_linear_1634_10098)"/>
<path d="M44.8049 43.7467C45.584 43.7211 46.3699 43.7371 47.1441 43.8325C47.9152 43.9059 48.6746 44.0743 49.4112 44.3058C49.4736 44.3193 49.5052 44.3873 49.4798 44.4533C49.4608 44.5028 49.4079 44.5398 49.3456 44.5264C48.614 44.389 47.8781 44.2982 47.1311 44.317C46.3886 44.3227 45.6455 44.3677 44.9133 44.492L44.9016 44.4972C44.6945 44.5342 44.4886 44.3929 44.4623 44.1857C44.4244 43.9836 44.5692 43.7827 44.7816 43.757C44.7763 43.7457 44.788 43.7405 44.8049 43.7467Z" fill="black"/>
<path d="M36.4467 43.3905C35.6679 43.3587 34.8818 43.3687 34.1069 43.458C33.3352 43.5253 32.5744 43.6878 31.8359 43.9136C31.7735 43.9266 31.7413 43.9944 31.7661 44.0605C31.7848 44.1102 31.8373 44.1476 31.8997 44.1347C32.6324 44.003 33.3691 43.9179 34.1159 43.9426C34.8583 43.954 35.6011 44.0048 36.3322 44.1349L36.3438 44.1402C36.5506 44.1788 36.7577 44.0391 36.7857 43.8321C36.8253 43.6303 36.6821 43.4283 36.4699 43.4009C36.4753 43.3896 36.4637 43.3844 36.4467 43.3905Z" fill="black"/>
<path d="M37.214 46.954C36.9005 46.2826 32.8335 46.4689 32.1452 46.7748C31.4569 47.0806 32.9782 48.1292 34.025 48.3375C36.0414 48.7387 37.5274 47.6253 37.214 46.954Z" fill="white"/>
<path d="M33.6786 46.8341C33.6281 47.4741 34.04 48.0269 34.5987 48.0689C35.1574 48.1108 35.6512 47.626 35.7017 46.986C35.7522 46.346 35.3058 46.3726 34.7471 46.3307C34.1884 46.2887 33.7291 46.1941 33.6786 46.8341Z" fill="black"/>
<path d="M37.171 47.1339C36.5318 46.1202 33.3205 45.8791 32.1016 46.9546L31.3974 46.7051" stroke="black" stroke-width="0.443051" stroke-linecap="round"/>
<path d="M49.6651 47.0033C49.3114 46.3671 45.3439 46.82 44.6916 47.1651C44.0393 47.5103 45.6016 48.4354 46.6407 48.5696C48.6423 48.8281 50.0188 47.6395 49.6651 47.0033Z" fill="white"/>
<path d="M46.2277 47.2351C46.223 47.8648 46.6648 48.3785 47.2146 48.3823C47.7643 48.3862 48.2137 47.8789 48.2184 47.2492C48.2231 46.6194 47.788 46.6751 47.2383 46.6712C46.6886 46.6674 46.2324 46.6053 46.2277 47.2351Z" fill="black"/>
<path d="M44.6416 47.3714C45.715 46.2168 48.9193 46.26 49.6157 47.2096L50.2535 46.8927" stroke="black" stroke-width="0.443051" stroke-linecap="round"/>
<path d="M17.6479 73.3237C17.6479 73.3237 18.701 69.0526 20.3403 68.5957L21.4172 75.5L18.1864 73.6989L17.6479 73.3237Z" fill="url(#paint7_linear_1634_10098)"/>
<path d="M63.731 74.1502C63.731 74.1502 62.731 69.2722 60.1156 68.1465L59.5771 76.4459C59.5771 76.4459 60.8848 75.8147 61.7309 75.3952C62.5771 74.9758 63.731 74.1502 63.731 74.1502Z" fill="url(#paint8_linear_1634_10098)"/>
<path d="M31.9586 64.6174C29.4202 65.518 23.1198 67.4392 20.3433 68.5949L21.2663 75.3491C21.2663 75.3491 29.5222 80.7324 41.9837 80.5373C54.4453 80.3423 60.7279 75.7994 60.7279 75.7994L60.2663 68.1887C58.2663 67.5443 52.0193 65.2896 47.651 64.2422C46.4663 66.4453 43.6456 68.362 39.3809 68.1887C35.1162 68.0153 32.8841 66.6761 31.9586 64.6174Z" fill="url(#paint9_linear_1634_10098)"/>
<rect x="30.4863" y="23.7188" width="19.8556" height="4.16851" fill="url(#paint10_linear_1634_10098)"/>
<path d="M31.3657 24.9463H48.8336M31.3657 26.541H48.8336" stroke="#36B35F" stroke-width="0.295367" stroke-linecap="round" stroke-linejoin="round"/>
<rect x="50.3408" y="23.7188" width="4.52406" height="4.16851" fill="url(#paint11_linear_1634_10098)"/>
<rect x="39.5371" y="23.7188" width="2.51337" height="4.16851" fill="#D9D9D9"/>
<rect x="26.5303" y="19.4482" width="19.8556" height="4.16851" fill="url(#paint12_linear_1634_10098)"/>
<path d="M27.4102 20.6738H44.8781M27.4102 22.2685H44.8781" stroke="#36B35F" stroke-width="0.295367" stroke-linecap="round" stroke-linejoin="round"/>
<rect x="46.3853" y="19.4482" width="4.52406" height="4.16851" fill="url(#paint13_linear_1634_10098)"/>
<rect x="35.5811" y="19.4482" width="2.51337" height="4.16851" fill="#D9D9D9"/>
<rect x="23.2529" y="15.3154" width="19.8556" height="4.16851" fill="url(#paint14_linear_1634_10098)"/>
<path d="M24.1328 16.543H41.6007M24.1328 18.1377H41.6007" stroke="#36B35F" stroke-width="0.295367" stroke-linecap="round" stroke-linejoin="round"/>
<rect x="43.1079" y="15.3154" width="4.52406" height="4.16851" fill="url(#paint15_linear_1634_10098)"/>
<rect x="32.3037" y="15.3154" width="2.51337" height="4.16851" fill="#D9D9D9"/>
<rect x="28.4771" y="11.1104" width="19.8556" height="4.16851" fill="url(#paint16_linear_1634_10098)"/>
<path d="M29.3564 12.3359H46.8243M29.3564 13.9306H46.8243" stroke="#36B35F" stroke-width="0.295367" stroke-linecap="round" stroke-linejoin="round"/>
<rect x="48.332" y="11.1104" width="4.52406" height="4.16851" fill="url(#paint17_linear_1634_10098)"/>
<rect x="37.5278" y="11.1104" width="2.51337" height="4.16851" fill="#D9D9D9"/>
<defs>
<linearGradient id="paint0_linear_1634_10098" x1="54.445" y1="104.389" x2="49.8913" y2="30.7614" gradientUnits="userSpaceOnUse">
<stop offset="0.0260417" stop-color="#749DAE"/>
<stop offset="1" stop-color="#C9E2E7" stop-opacity="0.4"/>
</linearGradient>
<linearGradient id="paint1_linear_1634_10098" x1="71.5995" y1="25.3543" x2="71.8833" y2="41.4741" gradientUnits="userSpaceOnUse">
<stop stop-color="#36B35F"/>
<stop offset="1" stop-color="#1D6A36"/>
</linearGradient>
<linearGradient id="paint2_linear_1634_10098" x1="55.9664" y1="68.9523" x2="67.4921" y2="68.5872" gradientUnits="userSpaceOnUse">
<stop stop-color="#36B35F"/>
<stop offset="1" stop-color="#1D6A36"/>
</linearGradient>
<linearGradient id="paint3_linear_1634_10098" x1="5.32773" y1="38.5605" x2="19.8106" y2="32.7254" gradientUnits="userSpaceOnUse">
<stop stop-color="#36B35F"/>
<stop offset="1" stop-color="#1D6A36"/>
</linearGradient>
<linearGradient id="paint4_linear_1634_10098" x1="19.944" y1="54.1264" x2="25.1951" y2="64.2839" gradientUnits="userSpaceOnUse">
<stop stop-color="#36B35F"/>
<stop offset="1" stop-color="#1D6A36"/>
</linearGradient>
<linearGradient id="paint5_linear_1634_10098" x1="42.9369" y1="60.5638" x2="43.8203" y2="65.8508" gradientUnits="userSpaceOnUse">
<stop stop-color="#DEC1C0"/>
<stop offset="1" stop-color="#DEC1C0" stop-opacity="0"/>
</linearGradient>
<linearGradient id="paint6_linear_1634_10098" x1="41.1522" y1="55.441" x2="40.7327" y2="48.9635" gradientUnits="userSpaceOnUse">
<stop stop-color="#DEC1C0"/>
<stop offset="1" stop-color="#DEC1C0" stop-opacity="0"/>
</linearGradient>
<linearGradient id="paint7_linear_1634_10098" x1="21.6684" y1="85.8506" x2="9.79957" y2="83.256" gradientUnits="userSpaceOnUse">
<stop offset="0.00395736" stop-color="#F5BD67"/>
<stop offset="1" stop-color="#FFDE82"/>
</linearGradient>
<linearGradient id="paint8_linear_1634_10098" x1="58.5208" y1="88.5582" x2="70.3896" y2="85.9635" gradientUnits="userSpaceOnUse">
<stop offset="0.00395736" stop-color="#F5BD67"/>
<stop offset="1" stop-color="#FFDE82"/>
</linearGradient>
<linearGradient id="paint9_linear_1634_10098" x1="40.1584" y1="99.6104" x2="42.1913" y2="66.9097" gradientUnits="userSpaceOnUse">
<stop offset="0.00395736" stop-color="#F5BD67"/>
<stop offset="1" stop-color="#FFDE82"/>
</linearGradient>
<linearGradient id="paint10_linear_1634_10098" x1="40.2885" y1="22.4927" x2="40.4566" y2="29.2317" gradientUnits="userSpaceOnUse">
<stop offset="0.185301" stop-color="#36B35F"/>
<stop offset="1" stop-color="#1D6A36"/>
</linearGradient>
<linearGradient id="paint11_linear_1634_10098" x1="46.3194" y1="26.7838" x2="54.4879" y2="26.7833" gradientUnits="userSpaceOnUse">
<stop stop-color="#36B35F"/>
<stop offset="1" stop-color="#1D6A36"/>
</linearGradient>
<linearGradient id="paint12_linear_1634_10098" x1="36.3324" y1="18.2222" x2="36.5005" y2="24.9612" gradientUnits="userSpaceOnUse">
<stop offset="0.185301" stop-color="#36B35F"/>
<stop offset="1" stop-color="#1D6A36"/>
</linearGradient>
<linearGradient id="paint13_linear_1634_10098" x1="42.3639" y1="22.5133" x2="50.5323" y2="22.5128" gradientUnits="userSpaceOnUse">
<stop stop-color="#36B35F"/>
<stop offset="1" stop-color="#1D6A36"/>
</linearGradient>
<linearGradient id="paint14_linear_1634_10098" x1="33.0551" y1="14.0894" x2="33.2232" y2="20.8284" gradientUnits="userSpaceOnUse">
<stop offset="0.185301" stop-color="#36B35F"/>
<stop offset="1" stop-color="#1D6A36"/>
</linearGradient>
<linearGradient id="paint15_linear_1634_10098" x1="39.0865" y1="18.3805" x2="47.255" y2="18.38" gradientUnits="userSpaceOnUse">
<stop stop-color="#36B35F"/>
<stop offset="1" stop-color="#1D6A36"/>
</linearGradient>
<linearGradient id="paint16_linear_1634_10098" x1="38.2792" y1="9.88432" x2="38.4473" y2="16.6233" gradientUnits="userSpaceOnUse">
<stop offset="0.185301" stop-color="#36B35F"/>
<stop offset="1" stop-color="#1D6A36"/>
</linearGradient>
<linearGradient id="paint17_linear_1634_10098" x1="44.3106" y1="14.1754" x2="52.4791" y2="14.1749" gradientUnits="userSpaceOnUse">
<stop stop-color="#36B35F"/>
<stop offset="1" stop-color="#1D6A36"/>
</linearGradient>
</defs>
</svg>
