<svg width="82" height="81" viewBox="0 0 82 81" fill="none" xmlns="http://www.w3.org/2000/svg">
<ellipse cx="40.1298" cy="40.6045" rx="40.1298" ry="40" fill="url(#paint0_linear_1634_9984)"/>
<path d="M14.98 71.6737C8.5662 68.1465 20.7272 53.9126 26.2736 43.6812L41.6328 33.0996C41.683 34.1253 50.8183 34.5255 53.6793 42.7056C57.6901 54.1729 62.3377 58.6906 62.3377 67.0208C62.3377 77.3022 51.6465 73.3998 47.5808 75.2009C43.5151 77.002 28.0805 78.8782 14.98 71.6737Z" fill="#333333"/>
<path d="M28.9062 61.6176C33.4234 60.6171 33.9309 53.8513 34.0982 51.5166H43.6345C45.9433 59.9214 46.6035 61.6176 48.2559 61.6176C46.2064 64.536 43.2329 68.7265 38.1135 69.5269C32.994 70.3274 30.161 65.203 28.9062 61.6176Z" fill="#F4D4CD"/>
<path d="M45.0789 54.7686C45.0789 54.7686 40.893 56.1443 39.2618 56.1443C37.5051 55.8942 33.0322 54.7686 33.0322 54.7686C33.0322 54.7686 36.5379 59.7714 39.2618 59.7714C42.5242 59.7714 44.2414 57.2584 45.0789 54.7686Z" fill="url(#paint1_linear_1634_9984)"/>
<ellipse cx="3.1364" cy="4.50336" rx="3.1364" ry="4.50336" transform="matrix(0.973313 -0.229482 0.230894 0.972979 22.4839 36.9463)" fill="#F4D4CD"/>
<ellipse cx="3.1364" cy="4.50336" rx="3.1364" ry="4.50336" transform="matrix(-0.973313 -0.229482 -0.230894 0.972979 55.7617 36.6973)" fill="#F4D4CD"/>
<path d="M52.9704 36.3827C52.9704 42.4684 51.8132 43.937 50.8373 48.8148C50.1526 52.2365 42.3048 58.6455 39.3682 58.6455C36.7838 58.6455 28.217 52.9619 27.5235 48.8148C26.8301 44.6676 25.7417 41.9681 25.7417 35.8824C25.7417 24.6922 30.983 16.1211 39.3682 16.1211C47.7535 16.1211 52.9704 25.1925 52.9704 36.3827Z" fill="#F4D4CD"/>
<path d="M55.8647 31.8984C56.9758 26.7176 57.8224 24.1486 54.8859 18.6901C50.566 10.6601 37.7197 7.05781 27.7814 18.6901C26.0776 20.6843 18.8875 22.5175 20.7794 30.3224C21.3186 32.547 25.1148 41.3372 27.7814 44.2061C27.7814 44.2061 25.2968 32.874 29.4378 27.0954C35.9128 37.4519 57.5076 38.1272 59.3281 38.1272C59.3281 38.1272 55.1532 35.2162 55.8647 31.8984Z" fill="url(#paint2_linear_1634_9984)"/>
<path d="M42.7627 50.9732C40.5037 51.3484 35.8618 51.4734 35.1093 51.4735C34.3567 51.4735 36.966 53.3745 38.8732 53.4746C40.7805 53.5746 45.0217 50.598 42.7627 50.9732Z" fill="white"/>
<path d="M41.1066 46.4618C41.1066 46.4618 39.9635 41.584 39.2127 41.584C38.2068 41.709 37.3312 46.4618 37.3312 46.4618C37.3312 46.4618 35.6974 48.0566 37.8317 48.3379C38.2832 48.3974 38.4839 48.7447 39.2127 48.7131C39.7572 48.6895 40.119 48.2653 40.4977 48.2128C41.3761 48.091 42.1289 47.7125 41.1066 46.4618Z" fill="url(#paint3_linear_1634_9984)"/>
<path d="M35.2577 40.9498C34.9089 40.1868 30.3846 40.3985 29.6189 40.7461C28.8532 41.0938 30.5456 42.2856 31.7101 42.5223C33.9533 42.9783 35.6064 41.7129 35.2577 40.9498Z" fill="white"/>
<path d="M31.3552 41.1576C31.3532 41.8868 31.8569 42.4793 32.4802 42.481C33.1035 42.4827 33.6104 41.8929 33.6124 41.1638C33.6144 40.4346 33.1215 40.5013 32.4981 40.4996C31.8748 40.4979 31.3572 40.4285 31.3552 41.1576Z" fill="black"/>
<path d="M35.2342 41.2353C34.2539 39.9236 30.4894 40.224 29.5948 41.0316L28.7577 40.6746" stroke="black" stroke-width="0.450589" stroke-linecap="round"/>
<path d="M49.6158 41.0691C49.3076 40.5029 44.1424 40.5402 43.8089 41.0692C43.4754 41.5981 44.8915 42.6132 46.1278 42.7763C48.5091 43.0906 49.9239 41.6354 49.6158 41.0691Z" fill="white"/>
<path d="M45.6347 41.1664C45.629 41.9517 46.1546 42.5921 46.8086 42.5969C47.4626 42.6016 47.9974 41.9688 48.0031 41.1835C48.0088 40.3982 47.4912 40.4678 46.8372 40.4631C46.1832 40.4583 45.6405 40.3811 45.6347 41.1664Z" fill="black"/>
<path d="M43.8947 41.2832C45.4005 39.9832 48.2616 39.9833 49.6168 41.2832L50.2945 40.8093" stroke="black" stroke-width="0.450589" stroke-linecap="round"/>
<path d="M34.3144 37.3477C33.4239 37.3106 32.5252 37.3222 31.6392 37.4266C30.757 37.5052 29.8872 37.695 29.0428 37.9588C28.9714 37.9739 28.9346 38.0531 28.963 38.1304C28.9843 38.1883 29.0444 38.2321 29.1158 38.217C29.9535 38.0632 30.7957 37.9638 31.6495 37.9926C32.4983 38.006 33.3475 38.0653 34.1835 38.2173L34.1967 38.2234C34.4332 38.2685 34.6699 38.1053 34.7019 37.8635C34.7472 37.6278 34.5834 37.3918 34.3409 37.3599C34.347 37.3467 34.3338 37.3406 34.3144 37.3477Z" fill="black"/>
<path d="M44.3017 37.27C45.1925 37.24 46.091 37.2588 46.9761 37.3702C47.8577 37.4559 48.726 37.6526 49.5682 37.9231C49.6395 37.9388 49.6756 38.0183 49.6466 38.0953C49.6248 38.1531 49.5644 38.1964 49.4932 38.1807C48.6567 38.0202 47.8153 37.9141 46.9613 37.9361C46.1124 37.9427 45.2627 37.9953 44.4256 38.1406L44.4123 38.1466C44.1755 38.1898 43.9401 38.0247 43.91 37.7827C43.8667 37.5467 44.0323 37.312 44.2751 37.282C44.2691 37.2688 44.2824 37.2627 44.3017 37.27Z" fill="black"/>
<path d="M13.8511 70.8482C13.8511 70.8482 15.0106 67.6983 16.8627 67.1709L18.0673 74.3003L14.604 71.4485L13.8511 70.8482Z" fill="url(#paint4_linear_1634_9984)"/>
<path d="M29.811 61.2433C26.7241 62.6691 19.8474 65.9129 16.7104 67.247L17.9151 74.1513C17.9151 74.1513 26.1217 80.5303 40.954 80.5303C55.7862 80.5303 63.3905 72.9505 63.3905 72.9505L62.2612 67.247C60.655 65.7461 51.2688 62.9693 46.7513 60.793C45.4129 63.3361 42.8316 66.4761 38.0133 66.2759C33.1949 66.0758 30.8566 63.6196 29.811 61.2433Z" fill="url(#paint5_linear_1634_9984)"/>
<rect width="24.0934" height="11.9973" transform="matrix(-0.364473 0.929963 -0.932931 -0.363275 72.0576 36.8438)" fill="url(#paint6_linear_1634_9984)"/>
<path d="M63.0676 55.0954L69.1375 39.6065L68.0671 36.8269L62.829 34.7349L61.018 36.1301L54.3926 52.7678L55.3909 54.5217L60.6289 56.6137L63.0676 55.0954Z" stroke="#36B35F" stroke-width="0.222832" stroke-linecap="round" stroke-linejoin="round"/>
<ellipse cx="3.42751" cy="3.4279" rx="3.42751" ry="3.4279" transform="matrix(-0.792552 0.610566 -0.612477 -0.789899 66.8862 46.0273)" fill="#36B35F"/>
<ellipse cx="1.14318" cy="1.14331" rx="1.14318" ry="1.14331" transform="matrix(-0.792552 0.610566 0.612477 0.789899 59.8462 50.0088)" fill="#36B35F"/>
<ellipse cx="1.14318" cy="1.14331" rx="1.14318" ry="1.14331" transform="matrix(-0.792552 0.610566 0.612477 0.789899 64.6992 37.6162)" fill="#36B35F"/>
<path d="M70.2676 35.5049L60.3967 58.8586L50.1528 54.2177L58.6015 30.6058L70.2676 35.5049Z" fill="url(#paint7_linear_1634_9984)"/>
<path d="M60.2816 54.4776L67.1047 38.3335L66.0546 35.3767L60.5965 33.0289L58.6505 34.4481L51.2104 51.7868L52.213 53.6614L57.6712 56.0092L60.2816 54.4776Z" stroke="#36B35F" stroke-width="0.222832" stroke-linecap="round" stroke-linejoin="round"/>
<ellipse cx="3.61086" cy="3.61126" rx="3.61086" ry="3.61126" transform="matrix(-0.808392 0.589571 -0.591418 -0.805687 64.5566 45.0342)" fill="#36B35F"/>
<ellipse cx="1.20433" cy="1.20447" rx="1.20433" ry="1.20447" transform="matrix(-0.808392 0.589571 0.591418 0.805687 57.0342 49.0293)" fill="#36B35F"/>
<ellipse cx="1.20433" cy="1.20447" rx="1.20433" ry="1.20447" transform="matrix(-0.808392 0.589571 0.591418 0.805687 62.4946 36.1133)" fill="#36B35F"/>
<rect width="23.8422" height="11.8722" transform="matrix(-0.0823496 0.995026 -0.998201 -0.0820789 66.4546 31.9922)" fill="url(#paint8_linear_1634_9984)"/>
<path d="M63.1185 51.8332L64.4753 35.4336L62.6708 33.1L57.1099 32.5943L55.7889 34.4282L54.2316 52.074L55.6764 53.4554L61.2373 53.961L63.1185 51.8332Z" stroke="#36B35F" stroke-width="0.222832" stroke-linecap="round" stroke-linejoin="round"/>
<ellipse cx="3.39178" cy="3.39216" rx="3.39178" ry="3.39216" transform="matrix(-0.584204 0.811038 -0.813577 -0.582249 64.1577 42.1602)" fill="#36B35F"/>
<ellipse cx="1.13126" cy="1.13139" rx="1.13126" ry="1.13139" transform="matrix(-0.584204 0.811038 0.813577 0.582249 58.6113 47.9189)" fill="#36B35F"/>
<ellipse cx="1.13126" cy="1.13139" rx="1.13126" ry="1.13139" transform="matrix(-0.584204 0.811038 0.813577 0.582249 59.7017 34.7988)" fill="#36B35F"/>
<path d="M62.8788 46.8633C63.2108 41.1453 62.5153 34.7443 60.9541 31.531L50.2369 34.1183C50.9356 37.2407 51.1062 42.884 50.394 47.3643C49.8771 50.6155 50.8208 55.3462 52.4715 57.9395L63.22 56.9552C62.6086 54.2862 62.6357 51.0508 62.8788 46.8633Z" fill="url(#paint9_linear_1634_9984)"/>
<path d="M61.1356 47.1039C61.5039 42.7505 61.2785 35.6349 60.0921 33.1744L51.7565 35.1868C52.2917 37.5756 52.5022 43.4438 51.987 46.9102C51.6181 49.3916 52.2057 55.7667 53.458 57.7535L61.8473 56.0649C61.1862 54.0054 60.8101 50.9522 61.1356 47.1039Z" stroke="#36B35F" stroke-width="0.394817" stroke-linecap="round" stroke-linejoin="round"/>
<ellipse cx="3.49509" cy="3.49492" rx="3.49509" ry="3.49492" transform="matrix(0.235773 0.970299 -0.973497 0.235022 58.9668 41.8828)" fill="#36B35F"/>
<ellipse cx="1.04915" cy="1.04909" rx="1.04915" ry="1.04909" transform="matrix(0.235773 0.970299 0.973497 -0.235022 54.9272 37.1143)" fill="#36B35F"/>
<ellipse cx="1.04915" cy="1.04909" rx="1.04915" ry="1.04909" transform="matrix(0.235773 0.970299 0.973497 -0.235022 55.314 53.5361)" fill="#36B35F"/>
<path d="M56.4541 62.3397L58.4213 76.4003L62.2611 73.9988L65.4986 71.5973L63.1213 62.3397C63.1213 61.0908 63.9529 60.2767 65.4986 57.6386C66.1581 56.5129 66.8104 53.0715 66.1009 52.0853C65.875 51.4849 65.875 55.0871 63.6607 54.3918C60.3983 53.8259 52.1722 44.4304 51.4193 45.406C50.6664 46.3816 57.2919 53.6611 57.2919 53.6611C56.4469 54.7273 50.8922 51.0345 50.2899 51.3346C49.6545 51.6513 50.2411 56.1491 51.4193 57.3384C52.3228 58.2504 55.4547 61.3064 56.4541 62.3397Z" fill="#F4D4CD"/>
<path d="M54.8854 55.5006C54.8854 55.5006 52.6278 54.2566 50.4391 53.2855M53.9033 57.4839C53.9033 57.4839 53.4432 57.0161 51.2544 56.045" stroke="#E4C5BE" stroke-width="0.222832" stroke-linecap="round" stroke-linejoin="round"/>
<defs>
<linearGradient id="paint0_linear_1634_9984" x1="52.9625" y1="104.389" x2="48.3109" y2="30.7737" gradientUnits="userSpaceOnUse">
<stop offset="0.0260417" stop-color="#749DAE"/>
<stop offset="1" stop-color="#C9E2E7" stop-opacity="0.4"/>
</linearGradient>
<linearGradient id="paint1_linear_1634_9984" x1="41.7406" y1="56.9027" x2="42.7682" y2="62.9751" gradientUnits="userSpaceOnUse">
<stop stop-color="#DEC1C0"/>
<stop offset="1" stop-color="#DEC1C0" stop-opacity="0"/>
</linearGradient>
<linearGradient id="paint2_linear_1634_9984" x1="45.8792" y1="39.8739" x2="21.321" y2="3.39435" gradientUnits="userSpaceOnUse">
<stop stop-color="#201F1F"/>
<stop offset="1" stop-color="#3F3F3F"/>
</linearGradient>
<linearGradient id="paint3_linear_1634_9984" x1="39.7449" y1="50.8393" x2="39.2462" y2="43.3348" gradientUnits="userSpaceOnUse">
<stop stop-color="#DEC1C0"/>
<stop offset="1" stop-color="#DEC1C0" stop-opacity="0"/>
</linearGradient>
<linearGradient id="paint4_linear_1634_9984" x1="18.0063" y1="86.6615" x2="4.57094" y2="83.7867" gradientUnits="userSpaceOnUse">
<stop offset="0.00395736" stop-color="#F5BD67"/>
<stop offset="1" stop-color="#FFDE82"/>
</linearGradient>
<linearGradient id="paint5_linear_1634_9984" x1="20.8592" y1="86.5353" x2="30.0056" y2="57.9911" gradientUnits="userSpaceOnUse">
<stop offset="0.00395736" stop-color="#F5BD67"/>
<stop offset="1" stop-color="#FFDE82"/>
</linearGradient>
<linearGradient id="paint6_linear_1634_9984" x1="25.1509" y1="0.260285" x2="-9.737" y2="16.6447" gradientUnits="userSpaceOnUse">
<stop stop-color="#36B35F"/>
<stop offset="1" stop-color="#1D6A36"/>
</linearGradient>
<linearGradient id="paint7_linear_1634_9984" x1="59.7103" y1="59.7773" x2="58.0804" y2="19.2696" gradientUnits="userSpaceOnUse">
<stop stop-color="#36B35F"/>
<stop offset="1" stop-color="#1D6A36"/>
</linearGradient>
<linearGradient id="paint8_linear_1634_9984" x1="24.8886" y1="0.257571" x2="-9.63549" y2="16.4712" gradientUnits="userSpaceOnUse">
<stop stop-color="#36B35F"/>
<stop offset="1" stop-color="#1D6A36"/>
</linearGradient>
<linearGradient id="paint9_linear_1634_9984" x1="63.5884" y1="33.7672" x2="51.6689" y2="58.8919" gradientUnits="userSpaceOnUse">
<stop stop-color="#36B35F"/>
<stop offset="1" stop-color="#1D6A36"/>
</linearGradient>
</defs>
</svg>
