<svg width="82" height="81" viewBox="0 0 82 81" fill="none" xmlns="http://www.w3.org/2000/svg">
<ellipse cx="41" cy="40.5944" rx="41" ry="39.9899" fill="url(#paint0_linear_1634_10213)"/>
<g filter="url(#filter0_ii_1634_10213)">
<ellipse cx="5.05251" cy="4.95552" rx="5.05251" ry="4.95552" transform="matrix(0.650676 -0.759356 0.775097 0.631842 34.0005 11.7129)" fill="#F6C069"/>
</g>
<path d="M44.2978 7.30929C46.3384 8.97276 46.5808 11.9782 44.8286 14.0231C43.0763 16.068 40.0009 16.3689 37.9603 14.7054C35.9196 13.0419 35.6773 10.0365 37.4295 7.99157C39.1818 5.94665 42.2572 5.64582 44.2978 7.30929Z" stroke="#FEDD81" stroke-width="0.365064"/>
<path d="M38.3315 10.2954C38.187 10.464 38.2035 10.7089 38.3685 10.8434L40.1578 12.302L39.8966 12.6068C39.7521 12.7754 39.7686 13.0203 39.9336 13.1547C40.0985 13.2892 40.3485 13.2616 40.493 13.093L40.7542 12.7882L41.0524 13.0313L40.7912 13.3361C40.6467 13.5047 40.6633 13.7496 40.8282 13.884C40.9932 14.0185 41.2432 13.9909 41.3876 13.8223L41.6489 13.5175L41.9471 13.7606C42.112 13.895 42.362 13.8674 42.5065 13.6988C42.651 13.5302 42.6345 13.2853 42.4695 13.1509L42.1713 12.9078L43.4774 11.3835C43.6218 11.2149 43.6053 10.9701 43.4404 10.8356C43.2754 10.7011 43.0254 10.7287 42.8809 10.8973L41.5749 12.4216L41.2766 12.1785L42.1909 11.1115C42.8399 10.3542 42.7653 9.24971 42.0244 8.64577C41.2835 8.04182 40.1559 8.16628 39.507 8.92363L38.3315 10.2954ZM41.5945 10.6253L40.6802 11.6923L39.1891 10.4768L40.1034 9.40982C40.4642 8.98876 41.0901 8.91968 41.502 9.25546C41.9139 9.59124 41.9553 10.2042 41.5945 10.6253Z" fill="#FEDD81"/>
<g filter="url(#filter1_ii_1634_10213)">
<ellipse cx="2.63245" cy="2.58191" rx="2.63245" ry="2.58191" transform="matrix(0.650676 -0.759356 0.775097 0.631842 60.1523 27.2461)" fill="#F6C069"/>
</g>
<path d="M65.4605 25.0181C66.4851 25.8533 66.6088 27.3645 65.7262 28.3945C64.8436 29.4245 63.2969 29.574 62.2723 28.7388C61.2478 27.9037 61.1241 26.3925 62.0067 25.3625C62.8893 24.3325 64.436 24.1829 65.4605 25.0181Z" stroke="#FEDD81" stroke-width="0.365064"/>
<path d="M62.4118 26.5068C62.3365 26.5946 62.3451 26.7223 62.4311 26.7923L63.3636 27.5524L63.2274 27.7113C63.1521 27.7992 63.1607 27.9268 63.2467 27.9969C63.3327 28.067 63.4629 28.0526 63.5382 27.9647L63.6744 27.8058L63.8298 27.9325L63.6936 28.0914C63.6183 28.1793 63.627 28.3069 63.7129 28.3769C63.7989 28.447 63.9292 28.4326 64.0045 28.3448L64.1406 28.1859L64.296 28.3126C64.382 28.3826 64.5123 28.3682 64.5876 28.2804C64.6629 28.1925 64.6543 28.0649 64.5683 27.9948L64.4129 27.8681L65.0936 27.0737C65.1689 26.9858 65.1603 26.8582 65.0743 26.7882C64.9884 26.7181 64.8581 26.7325 64.7828 26.8203L64.1021 27.6147L63.9467 27.4881L64.4231 26.932C64.7614 26.5373 64.7225 25.9617 64.3364 25.6469C63.9503 25.3322 63.3627 25.3971 63.0245 25.7918L62.4118 26.5068ZM64.1123 26.6786L63.6358 27.2347L62.8588 26.6013L63.3353 26.0452C63.5233 25.8257 63.8495 25.7897 64.0642 25.9647C64.2788 26.1397 64.3004 26.4592 64.1123 26.6786Z" fill="#FEDD81"/>
<g filter="url(#filter2_ii_1634_10213)">
<ellipse cx="3.49912" cy="3.43195" rx="3.49912" ry="3.43195" transform="matrix(0.650676 -0.759356 0.775097 0.631842 6.91846 52.3789)" fill="#F6C069"/>
</g>
<path d="M14.0134 49.3718C15.4018 50.5036 15.568 52.5499 14.3739 53.9434C13.1799 55.3369 11.0857 55.5406 9.69732 54.4087C8.3089 53.2769 8.1427 51.2306 9.33673 49.8372C10.5308 48.4437 12.6249 48.24 14.0134 49.3718Z" stroke="#FEDD81" stroke-width="0.365064"/>
<path d="M9.91771 51.3969C9.81765 51.5137 9.8291 51.6833 9.94334 51.7764L11.1825 52.7865L11.0016 52.9977C10.9015 53.1144 10.913 53.284 11.0272 53.3771C11.1415 53.4703 11.3146 53.4511 11.4147 53.3344L11.5956 53.1233L11.8021 53.2916L11.6212 53.5027C11.5211 53.6195 11.5326 53.7891 11.6468 53.8822C11.7611 53.9753 11.9342 53.9562 12.0343 53.8394L12.2152 53.6283L12.4217 53.7967C12.5359 53.8898 12.7091 53.8707 12.8091 53.7539C12.9092 53.6371 12.8977 53.4676 12.7835 53.3744L12.577 53.2061L13.4815 52.1505C13.5815 52.0337 13.5701 51.8641 13.4559 51.771C13.3416 51.6779 13.1685 51.697 13.0684 51.8138L12.1639 52.8694L11.9574 52.701L12.5905 51.9621C13.04 51.4376 12.9883 50.6727 12.4752 50.2544C11.9621 49.8362 11.1812 49.9224 10.7318 50.4469L9.91771 51.3969ZM12.1775 51.6254L11.5443 52.3643L10.5117 51.5225L11.1448 50.7836C11.3947 50.492 11.8282 50.4441 12.1134 50.6767C12.3987 50.9092 12.4274 51.3338 12.1775 51.6254Z" fill="#FEDD81"/>
<path d="M66.0298 52.1666C66.0298 52.1666 67.2527 53.1453 68.3502 53.0306C71.1332 52.7401 73.1087 49.1846 72.4816 47.4642C72.3091 46.9901 72.1131 46.8601 71.1332 45.8891C70.2944 45.0633 66.0298 52.1666 66.0298 52.1666Z" fill="url(#paint1_linear_1634_10213)"/>
<path d="M65.7825 49.1756C66.637 46.3618 73.1985 43.0204 70.8545 48.7092C68.8633 53.5569 64.3871 53.7863 65.7825 49.1756Z" fill="#FFDE82"/>
<path d="M68.6813 47.1341C68.5593 47.0629 68.4026 47.1002 68.3307 47.2176L67.551 48.4904L67.3304 48.3617C67.2084 48.2905 67.0517 48.3278 66.9799 48.4452C66.908 48.5625 66.9485 48.7148 67.0705 48.786L67.2911 48.9147L67.1611 49.1268L66.9405 48.9981C66.8185 48.9269 66.6619 48.9642 66.59 49.0816C66.5181 49.1989 66.5586 49.3512 66.6806 49.4224L66.9012 49.5511L66.7712 49.7632C66.6994 49.8806 66.7399 50.0329 66.8619 50.1041C66.9839 50.1752 67.1405 50.138 67.2124 50.0206L67.3424 49.8085L68.4453 50.452C68.5673 50.5231 68.724 50.4858 68.7958 50.3685C68.8677 50.2512 68.8272 50.0989 68.7052 50.0277L67.6023 49.3842L67.7322 49.1721L68.5043 49.6225C69.0523 49.9422 69.7589 49.774 70.0818 49.247C70.4046 48.72 70.222 48.033 69.6739 47.7133L68.6813 47.1341ZM68.7642 49.1982L67.9922 48.7478L68.642 47.6871L69.414 48.1375C69.7187 48.3153 69.8201 48.6966 69.6406 48.9896C69.4611 49.2826 69.0689 49.376 68.7642 49.1982Z" fill="url(#paint2_linear_1634_10213)"/>
<path d="M7.98998 29.2088C7.98998 29.2088 9.29706 30.8214 10.7591 30.976C14.4663 31.3683 18.0727 27.287 17.757 24.8739C17.6705 24.209 17.4532 23.9855 16.4602 22.4502C15.6087 21.143 7.98998 29.2088 7.98998 29.2088Z" fill="url(#paint3_linear_1634_10213)"/>
<path d="M8.54599 25.25C10.4772 21.8238 19.991 19.291 15.2842 26.0472C11.2813 31.8063 5.38767 30.8655 8.54599 25.25Z" fill="#FFDE82"/>
<path d="M12.8859 23.3878C12.7478 23.2614 12.533 23.2665 12.4052 23.3993L11.0194 24.84L10.7697 24.6115C10.6315 24.4851 10.4167 24.4902 10.289 24.623C10.1612 24.7558 10.1696 24.9653 10.3077 25.0917L10.5575 25.3202L10.3265 25.5603L10.0768 25.3318C9.93864 25.2054 9.72382 25.2106 9.59606 25.3434C9.46831 25.4762 9.4767 25.6856 9.61484 25.812L9.86458 26.0406L9.63361 26.2807C9.50586 26.4135 9.51425 26.6229 9.65239 26.7493C9.79052 26.8757 10.0053 26.8706 10.1331 26.7378L10.3641 26.4976L11.6128 27.6404C11.7509 27.7668 11.9657 27.7616 12.0935 27.6288C12.2212 27.496 12.2129 27.2866 12.0747 27.1601L10.826 26.0174L11.057 25.7773L11.9311 26.5772C12.5515 27.145 13.5205 27.1217 14.0943 26.5252C14.6681 25.9286 14.6302 24.984 14.0098 24.4162L12.8859 23.3878ZM12.393 26.097L11.5189 25.2971L12.6738 24.0965L13.5479 24.8964C13.8928 25.2121 13.9138 25.7364 13.5948 26.0681C13.2758 26.3997 12.738 26.4127 12.393 26.097Z" fill="url(#paint4_linear_1634_10213)"/>
<path d="M29.5703 61.5588C33.715 60.6605 35.0582 56.2436 35.2117 54.1475H43.9616C46.0799 61.6936 49.1424 62.2326 50.4088 61.5588C48.5284 64.179 43.5931 69.5991 38.8958 70.3177C34.1985 71.0364 30.7216 64.7779 29.5703 61.5588Z" fill="#F4D4CD"/>
<path d="M45.2905 57.0654C45.2905 57.0654 41.4498 58.3007 39.9531 58.3007C38.3413 58.0761 34.2373 57.0654 34.2373 57.0654C34.2373 57.0654 37.4539 61.5572 39.9531 61.5572C42.9465 61.5572 44.5221 59.3009 45.2905 57.0654Z" fill="url(#paint5_linear_1634_10213)"/>
<path d="M13.0752 69.976C13.0752 69.976 17.0207 64.9521 18.7201 64.4785L20.2366 75.1131C20.2366 75.1131 18.1239 73.8099 16.9022 72.9696C15.3241 71.8842 13.0752 69.976 13.0752 69.976Z" fill="url(#paint6_linear_1634_10213)"/>
<path d="M66.2622 72.0794C66.2622 72.0794 65.5412 65.7773 62.5479 65.4404L61.9827 74.9232C61.9827 74.9232 63.4327 74.154 64.2016 73.5752C64.9705 72.9963 66.2622 72.0794 66.2622 72.0794Z" fill="url(#paint7_linear_1634_10213)"/>
<path d="M30.5619 61.1103C27.983 61.2002 21.4217 63.2813 18.5435 64.4791L20.0655 74.9781C20.0655 74.9781 28.7575 80.8017 41.6758 80.5996C54.594 80.3975 62.0959 74.847 62.0959 74.847L63.4441 65.7144C61.9705 64.3668 52.3598 61.9712 47.8314 60.8857C46.6033 63.169 43.2273 67.5784 38.8063 67.3988C34.3853 67.2191 31.5213 63.2439 30.5619 61.1103Z" fill="url(#paint8_linear_1634_10213)"/>
<path d="M51.0024 41.4396C51.0024 46.6639 49.9872 49.9862 49.131 54.1736C48.8456 55.5694 42.5703 60.5512 39.9941 60.5512C37.7268 60.5512 30.8027 55.7841 30.5275 54.1736C29.9192 50.6134 28.9644 46.2344 28.9644 41.0101C28.9644 31.4038 32.6378 24.0459 39.9941 24.0459C47.3504 24.0459 51.0024 31.8333 51.0024 41.4396Z" fill="#F4D4CD"/>
<ellipse cx="2.40252" cy="3.38333" rx="2.40252" ry="3.38333" transform="matrix(0.974371 -0.224946 0.235536 0.971866 26.0776 42.7129)" fill="#F4D4CD"/>
<ellipse cx="2.22378" cy="3.13162" rx="2.22378" ry="3.13162" transform="matrix(-0.974404 -0.224806 -0.235682 0.97183 53.9023 42.9189)" fill="#F4D4CD"/>
<path d="M52.4037 37.9134C53.9358 32.9574 53.1342 28.9777 51.48 28.0294C34.6327 18.3716 31.3684 26.9484 29.5618 28.4527C25.1374 32.1369 27.634 36.9329 29.0749 45.8104C30.6333 45.8104 27.5701 29.7598 45.9798 36.9329C52.4037 37.3149 49.7141 45.2247 50.4072 45.2247C50.4072 45.2247 51.5249 40.7559 52.4037 37.9134Z" fill="#B0937A"/>
<path d="M33.9642 35.945C39.4465 33.6998 46.0155 38.083 49.0087 36.9946C51.6065 35.0539 53.4147 32.7667 53.0067 29.4043C52.5987 26.042 51.0699 23.3697 50.2324 23.4372C49.0249 23.1895 49.1469 25.739 43.5423 25.3464C35.956 24.4487 33.8718 34.2939 33.9642 35.945Z" fill="url(#paint9_linear_1634_10213)"/>
<path d="M41.6896 50.7733C41.6896 50.7733 40.6867 46.5859 40.0281 46.5859C39.1456 46.6933 38.3774 50.7733 38.3774 50.7733C38.3774 50.7733 36.9442 52.1424 38.8166 52.3838C39.2127 52.4349 39.3887 52.7331 40.0281 52.7059C40.5058 52.6857 40.8232 52.3216 41.1554 52.2765C41.926 52.1719 42.5865 51.847 41.6896 50.7733Z" fill="url(#paint10_linear_1634_10213)"/>
<path d="M43.3317 54.242C41.3499 54.5641 37.2776 54.6714 36.6174 54.6714C35.9572 54.6714 38.2463 56.3034 39.9195 56.3893C41.5927 56.4752 45.3135 53.9199 43.3317 54.242Z" fill="white"/>
<path d="M36.3131 41.8816C34.7511 41.818 33.2276 42.0989 31.7309 42.5565C31.2357 42.7078 31.4597 43.3458 31.814 43.2821C33.2779 43.019 34.4738 42.8248 35.9394 43.0855C36.4569 43.1775 36.7719 42.7683 36.7961 42.5892C36.8258 42.4379 36.7961 41.9012 36.3131 41.8816Z" fill="black"/>
<path d="M43.5072 41.697C45.0692 41.6334 46.5928 41.9143 48.0894 42.3719C48.5846 42.5233 48.3606 43.1612 48.0063 43.0975C46.5424 42.8344 45.3465 42.6402 43.8809 42.9009C43.3634 42.9929 43.0485 42.5837 43.0242 42.4046C42.9945 42.2534 43.0242 41.7167 43.5072 41.697Z" fill="black"/>
<path d="M37.0845 45.1193C36.8186 44.5496 33.3685 44.7076 32.7846 44.9671C32.2007 45.2266 33.4913 46.1165 34.3793 46.2932C36.0899 46.6337 37.3504 45.689 37.0845 45.1193Z" fill="white"/>
<path d="M34.1076 45.2742C34.106 45.8185 34.4901 46.2609 34.9654 46.2621C35.4408 46.2634 35.8273 45.8231 35.8288 45.2787C35.8304 44.7344 35.4408 44.663 34.9654 44.6618C34.4901 44.6605 34.1091 44.7298 34.1076 45.2742Z" fill="black"/>
<path d="M32.7298 45.1718C33.5377 44.5091 36.5052 44.4252 37.0475 45.2849" stroke="black" stroke-width="0.292052" stroke-linecap="round"/>
<path d="M48.4917 44.8675C48.1858 44.3172 44.4336 44.6307 44.1913 45.0071C43.9489 45.3834 44.9687 46.0048 45.8672 46.1209C47.5979 46.3447 48.7976 45.4178 48.4917 44.8675Z" fill="white"/>
<path d="M45.5611 45.0815C45.5571 45.6259 45.9391 46.0699 46.4144 46.0733C46.8898 46.0766 47.2784 45.6381 47.2824 45.0937C47.2865 44.5493 46.8897 44.4591 46.4144 44.4557C45.9391 44.4524 45.5652 44.5372 45.5611 45.0815Z" fill="black"/>
<path d="M44.2263 45.0522C44.9849 44.3364 47.9536 44.2317 48.5558 45.0526" stroke="black" stroke-width="0.292052" stroke-linecap="round"/>
<defs>
<filter id="filter0_ii_1634_10213" x="36.0732" y="5.39017" width="10.1118" height="11.2343" filterUnits="userSpaceOnUse" color-interpolation-filters="sRGB">
<feFlood flood-opacity="0" result="BackgroundImageFix"/>
<feBlend mode="normal" in="SourceGraphic" in2="BackgroundImageFix" result="shape"/>
<feColorMatrix in="SourceAlpha" type="matrix" values="0 0 0 0 0 0 0 0 0 0 0 0 0 0 0 0 0 0 127 0" result="hardAlpha"/>
<feOffset dy="0.66452"/>
<feGaussianBlur stdDeviation="0.398712"/>
<feComposite in2="hardAlpha" operator="arithmetic" k2="-1" k3="1"/>
<feColorMatrix type="matrix" values="0 0 0 0 0.0901961 0 0 0 0 0.0980392 0 0 0 0 0.101961 0 0 0 0.1 0"/>
<feBlend mode="normal" in2="shape" result="effect1_innerShadow_1634_10213"/>
<feColorMatrix in="SourceAlpha" type="matrix" values="0 0 0 0 0 0 0 0 0 0 0 0 0 0 0 0 0 0 127 0" result="hardAlpha"/>
<feOffset dy="-0.66452"/>
<feGaussianBlur stdDeviation="0.398712"/>
<feComposite in2="hardAlpha" operator="arithmetic" k2="-1" k3="1"/>
<feColorMatrix type="matrix" values="0 0 0 0 0.0901961 0 0 0 0 0.0980392 0 0 0 0 0.101961 0 0 0 0.1 0"/>
<feBlend mode="normal" in2="effect1_innerShadow_1634_10213" result="effect2_innerShadow_1634_10213"/>
</filter>
<filter id="filter1_ii_1634_10213" x="61.2324" y="23.6333" width="5.26807" height="6.49017" filterUnits="userSpaceOnUse" color-interpolation-filters="sRGB">
<feFlood flood-opacity="0" result="BackgroundImageFix"/>
<feBlend mode="normal" in="SourceGraphic" in2="BackgroundImageFix" result="shape"/>
<feColorMatrix in="SourceAlpha" type="matrix" values="0 0 0 0 0 0 0 0 0 0 0 0 0 0 0 0 0 0 127 0" result="hardAlpha"/>
<feOffset dy="0.66452"/>
<feGaussianBlur stdDeviation="0.398712"/>
<feComposite in2="hardAlpha" operator="arithmetic" k2="-1" k3="1"/>
<feColorMatrix type="matrix" values="0 0 0 0 0.0901961 0 0 0 0 0.0980392 0 0 0 0 0.101961 0 0 0 0.1 0"/>
<feBlend mode="normal" in2="shape" result="effect1_innerShadow_1634_10213"/>
<feColorMatrix in="SourceAlpha" type="matrix" values="0 0 0 0 0 0 0 0 0 0 0 0 0 0 0 0 0 0 127 0" result="hardAlpha"/>
<feOffset dy="-0.66452"/>
<feGaussianBlur stdDeviation="0.398712"/>
<feComposite in2="hardAlpha" operator="arithmetic" k2="-1" k3="1"/>
<feColorMatrix type="matrix" values="0 0 0 0 0.0901961 0 0 0 0 0.0980392 0 0 0 0 0.101961 0 0 0 0.1 0"/>
<feBlend mode="normal" in2="effect1_innerShadow_1634_10213" result="effect2_innerShadow_1634_10213"/>
</filter>
<filter id="filter2_ii_1634_10213" x="8.354" y="47.7964" width="7.00293" height="8.18842" filterUnits="userSpaceOnUse" color-interpolation-filters="sRGB">
<feFlood flood-opacity="0" result="BackgroundImageFix"/>
<feBlend mode="normal" in="SourceGraphic" in2="BackgroundImageFix" result="shape"/>
<feColorMatrix in="SourceAlpha" type="matrix" values="0 0 0 0 0 0 0 0 0 0 0 0 0 0 0 0 0 0 127 0" result="hardAlpha"/>
<feOffset dy="0.66452"/>
<feGaussianBlur stdDeviation="0.398712"/>
<feComposite in2="hardAlpha" operator="arithmetic" k2="-1" k3="1"/>
<feColorMatrix type="matrix" values="0 0 0 0 0.0901961 0 0 0 0 0.0980392 0 0 0 0 0.101961 0 0 0 0.1 0"/>
<feBlend mode="normal" in2="shape" result="effect1_innerShadow_1634_10213"/>
<feColorMatrix in="SourceAlpha" type="matrix" values="0 0 0 0 0 0 0 0 0 0 0 0 0 0 0 0 0 0 127 0" result="hardAlpha"/>
<feOffset dy="-0.66452"/>
<feGaussianBlur stdDeviation="0.398712"/>
<feComposite in2="hardAlpha" operator="arithmetic" k2="-1" k3="1"/>
<feColorMatrix type="matrix" values="0 0 0 0 0.0901961 0 0 0 0 0.0980392 0 0 0 0 0.101961 0 0 0 0.1 0"/>
<feBlend mode="normal" in2="effect1_innerShadow_1634_10213" result="effect2_innerShadow_1634_10213"/>
</filter>
<linearGradient id="paint0_linear_1634_10213" x1="54.111" y1="104.363" x2="49.5596" y2="30.7537" gradientUnits="userSpaceOnUse">
<stop offset="0.0260417" stop-color="#749DAE"/>
<stop offset="1" stop-color="#C9E2E7" stop-opacity="0.4"/>
</linearGradient>
<linearGradient id="paint1_linear_1634_10213" x1="66.026" y1="49.4316" x2="72.5887" y2="49.4316" gradientUnits="userSpaceOnUse">
<stop offset="0.0178725" stop-color="#FFDE82"/>
<stop offset="0.8546" stop-color="#F1BE66"/>
</linearGradient>
<linearGradient id="paint2_linear_1634_10213" x1="74.3829" y1="49.2349" x2="69.1683" y2="52.8575" gradientUnits="userSpaceOnUse">
<stop stop-color="#F5BD67"/>
<stop offset="1" stop-color="#F5BD67"/>
</linearGradient>
<linearGradient id="paint3_linear_1634_10213" x1="8.78107" y1="25.6475" x2="17.304" y2="27.5531" gradientUnits="userSpaceOnUse">
<stop offset="0.0178725" stop-color="#FFDE82"/>
<stop offset="0.8546" stop-color="#F1BE66"/>
</linearGradient>
<linearGradient id="paint4_linear_1634_10213" x1="19.698" y1="27.6999" x2="11.8362" y2="30.9284" gradientUnits="userSpaceOnUse">
<stop stop-color="#F5BD67"/>
<stop offset="1" stop-color="#F5BD67"/>
</linearGradient>
<linearGradient id="paint5_linear_1634_10213" x1="42.2275" y1="58.9815" x2="43.1314" y2="64.44" gradientUnits="userSpaceOnUse">
<stop stop-color="#DEC1C0"/>
<stop offset="1" stop-color="#DEC1C0" stop-opacity="0"/>
</linearGradient>
<linearGradient id="paint6_linear_1634_10213" x1="20.447" y1="85.702" x2="8.14352" y2="83.0116" gradientUnits="userSpaceOnUse">
<stop offset="0.00395736" stop-color="#F5BD67"/>
<stop offset="1" stop-color="#FFDE82"/>
</linearGradient>
<linearGradient id="paint7_linear_1634_10213" x1="60.8739" y1="86.4393" x2="73.1774" y2="83.749" gradientUnits="userSpaceOnUse">
<stop offset="0.00395736" stop-color="#F5BD67"/>
<stop offset="1" stop-color="#FFDE82"/>
</linearGradient>
<linearGradient id="paint8_linear_1634_10213" x1="39.6123" y1="99.9639" x2="41.7186" y2="66.0732" gradientUnits="userSpaceOnUse">
<stop offset="0.00395736" stop-color="#F5BD67"/>
<stop offset="1" stop-color="#FFDE82"/>
</linearGradient>
<linearGradient id="paint9_linear_1634_10213" x1="36.0871" y1="25.6467" x2="38.2015" y2="37.9207" gradientUnits="userSpaceOnUse">
<stop stop-color="#BFAA98"/>
<stop offset="1" stop-color="#B0937A"/>
</linearGradient>
<linearGradient id="paint10_linear_1634_10213" x1="40.495" y1="54.5312" x2="40.076" y2="48.0877" gradientUnits="userSpaceOnUse">
<stop stop-color="#DEC1C0"/>
<stop offset="1" stop-color="#DEC1C0" stop-opacity="0"/>
</linearGradient>
</defs>
</svg>
