<svg width="83" height="81" viewBox="0 0 83 81" fill="none" xmlns="http://www.w3.org/2000/svg">
<ellipse cx="41.6665" cy="40.1041" rx="41" ry="39.4996" fill="url(#paint0_linear_1634_10266)"/>
<path d="M29.2246 59.0343C33.8398 58.0462 35.3354 53.1883 35.5063 50.8828H45.2494C47.6083 59.1825 51.0184 59.7753 52.4285 59.0343C50.3346 61.9161 44.8392 67.8774 39.6087 68.6678C34.3782 69.4583 30.5066 62.5748 29.2246 59.0343Z" fill="#F4D4CD"/>
<path d="M46.7308 54.0928C46.7308 54.0928 42.4541 55.4513 40.7875 55.4513C38.9927 55.2043 34.4229 54.0928 34.4229 54.0928C34.4229 54.0928 38.0045 59.0331 40.7875 59.0331C44.1206 59.0331 45.8751 56.5515 46.7308 54.0928Z" fill="url(#paint1_linear_1634_10266)"/>
<path d="M54.5487 34.2409C54.5487 40.538 53.3098 44.5426 52.265 49.5899C51.9167 51.2723 44.2588 57.2772 41.115 57.2772C38.3482 57.2772 29.8987 51.5311 29.5629 49.5899C28.8205 45.2986 27.6553 40.0204 27.6553 33.7233C27.6553 22.1443 32.138 13.2754 41.115 13.2754C50.092 13.2754 54.5487 22.662 54.5487 34.2409Z" fill="#F4D4CD"/>
<ellipse cx="2.93002" cy="4.08094" rx="2.93002" ry="4.08094" transform="matrix(0.975004 -0.222187 0.238442 0.971157 24.1392 35.7764)" fill="#F4D4CD"/>
<ellipse cx="2.71204" cy="3.77733" rx="2.71204" ry="3.77733" transform="matrix(-0.975004 -0.222187 -0.238442 0.971157 58.0967 36.0254)" fill="#F4D4CD"/>
<path d="M56.2606 29.9903C58.1302 24.0167 57.1519 19.2197 55.1334 18.0767C34.5743 6.43558 30.5908 16.7738 28.3862 18.587C22.987 23.0276 26.0337 28.8086 27.7921 39.509C29.6938 39.509 25.9558 20.1625 48.4214 28.8086C56.2606 29.269 52.9784 38.8031 53.8242 38.8031C53.8242 38.8031 55.1882 33.4167 56.2606 29.9903Z" fill="url(#paint2_linear_1634_10266)"/>
<path d="M33.3179 27.7685C39.9015 25.1054 47.7216 30.2879 51.316 28.9969C54.4356 26.695 56.607 23.982 56.117 19.9938C55.6271 16.0056 53.7912 12.8358 52.7855 12.9159C51.3354 12.6221 51.482 15.6462 44.7516 15.1805C35.6414 14.1157 33.207 25.81 33.3179 27.7685Z" fill="url(#paint3_linear_1634_10266)"/>
<path d="M43.1838 45.4984C43.1838 45.4984 41.96 40.4512 41.1563 40.4512C40.0793 40.5806 39.1419 45.4984 39.1419 45.4984C39.1419 45.4984 37.3929 47.1487 39.6778 47.4397C40.1612 47.5013 40.376 47.8606 41.1562 47.8279C41.7392 47.8035 42.1265 47.3646 42.5319 47.3103C43.4723 47.1842 44.2783 46.7926 43.1838 45.4984Z" fill="url(#paint4_linear_1634_10266)"/>
<path d="M40.7959 51.5856C39.1298 51.5856 37.3856 50.8194 36.7959 50.3992C40.119 51.8821 43.5651 50.8688 44.8728 50.1768C44.2831 50.4981 42.719 51.5856 40.7959 51.5856Z" fill="black" stroke="black" stroke-width="0.131212" stroke-linejoin="round"/>
<path d="M36.6156 34.7717C34.7095 34.695 32.8503 35.0336 31.0239 35.5851C30.4196 35.7676 30.693 36.5366 31.1253 36.4598C32.9117 36.1427 34.3711 35.9086 36.1596 36.2228C36.7911 36.3337 37.1755 35.8405 37.205 35.6246C37.2412 35.4423 37.205 34.7954 36.6156 34.7717Z" fill="black"/>
<path d="M45.3917 34.55C47.2978 34.4733 49.157 34.812 50.9834 35.3635C51.5877 35.5459 51.3143 36.3149 50.882 36.2381C49.0956 35.921 47.6362 35.6869 45.8477 36.0012C45.2162 36.112 44.8319 35.6188 44.8023 35.4029C44.7661 35.2206 44.8023 34.5737 45.3917 34.55Z" fill="black"/>
<path d="M50.3208 39.1605C49.0586 39.8761 46.9541 39.9717 45.6916 39.4759" stroke="black" stroke-width="0.262423" stroke-linecap="round"/>
<path d="M36.4884 39.6163C35.1551 40.2004 33.0519 40.0825 31.8504 39.4617" stroke="black" stroke-width="0.262423" stroke-linecap="round"/>
<path d="M12.2017 67.6009C12.2017 67.6009 15.2471 62.766 17.1394 62.2451L19.1247 73.3814L15.5863 70.5653L12.2017 67.6009Z" fill="url(#paint5_linear_1634_10266)"/>
<path d="M30.3255 58.54C27.4539 58.6388 20.1478 60.9278 16.9429 62.2452L18.9718 73.2332C18.9718 73.2332 27.3564 79.5324 42.5103 79.5324C57.6641 79.5324 65.4333 72.0475 65.4333 72.0475L66.9403 63.6038C65.2994 62.1217 54.5978 59.4869 49.5553 58.293C48.1879 60.8043 44.4286 65.654 39.5058 65.4564C34.583 65.2588 31.3939 60.8866 30.3255 58.54Z" fill="url(#paint6_linear_1634_10266)"/>
<path d="M27.897 34.8435C27.897 34.8435 25.6373 40.0498 26.5064 41.8989C26.4508 42.5223 27.1583 36.4911 29.0053 37.5378C28.3585 38.6542 28.1702 40.7262 28.3897 41.6896C28.6869 42.9944 30.6966 44.0353 30.3585 44.4035C28.5893 46.3303 28.8848 45.3729 28.9603 46.1354C29.2011 48.5669 29.44 48.7889 29.44 48.7889C29.44 48.7889 37.4433 44.7948 37.2047 40.1052C37.1174 38.3896 35.9947 36.7702 33.0976 36.1771C31.7938 35.6537 32.6662 33.8801 27.897 34.8435Z" fill="url(#paint7_linear_1634_10266)"/>
<g filter="url(#filter0_ii_1634_10266)">
<ellipse cx="4.07827" cy="3.84939" rx="4.07827" ry="3.84939" transform="matrix(0.995696 0.104693 -0.112423 0.992382 29.0054 36.1875)" fill="#F6C069"/>
</g>
<path d="M36.5307 40.8443C36.3029 42.8555 34.3805 44.3191 32.219 44.0918C30.0575 43.8646 28.5081 42.0359 28.7359 40.0247C28.9638 38.0136 30.8862 36.55 33.0477 36.7772C35.2091 37.0045 36.7586 38.8332 36.5307 40.8443Z" stroke="#FEDD81" stroke-width="0.328029"/>
<path d="M31.883 38.3391C31.7045 38.3203 31.5453 38.4377 31.5267 38.6017L31.3251 40.3813L31.0025 40.3474C30.824 40.3286 30.6648 40.446 30.6462 40.61C30.6277 40.7741 30.7568 40.9218 30.9353 40.9405L31.2579 40.9745L31.2243 41.271L30.9017 41.2371C30.7232 41.2184 30.564 41.3357 30.5454 41.4998C30.5269 41.6638 30.656 41.8115 30.8345 41.8303L31.1571 41.8642L31.1235 42.1608C31.105 42.3249 31.2341 42.4726 31.4126 42.4913C31.5911 42.5101 31.7503 42.3927 31.7688 42.2287L31.8024 41.9321L33.4157 42.1017C33.5941 42.1205 33.7533 42.0031 33.7719 41.839C33.7905 41.675 33.6613 41.5273 33.4829 41.5085L31.8696 41.3389L31.9032 41.0423L33.0325 41.161C33.8341 41.2453 34.5521 40.7159 34.6356 39.9791C34.7191 39.2422 34.1365 38.576 33.3349 38.4917L31.883 38.3391ZM33.0997 40.5679L31.9704 40.4491L32.1384 38.9662L33.2677 39.0849C33.7134 39.1318 34.0367 39.5015 33.9903 39.9112C33.9439 40.3209 33.5454 40.6147 33.0997 40.5679Z" fill="#FEDD81"/>
<path d="M16.3525 53.04L13.2067 68.5626C13.2067 68.5626 15.9126 70.8368 17.3605 72.0457C19.6682 73.9725 22.9759 75.4547 22.9759 75.4547L24.2231 55.8893L24.2238 55.8485C24.2475 54.5246 24.2663 53.4692 26.3294 51.2547C26.6241 50.3429 35.3825 45.0777 34.1819 44.5324C31.8004 42.8134 27.8336 48.2747 26.4699 44.9582C26.8452 43.1327 26.7279 42.478 26.41 41.3635C26.3294 41.0808 27.2836 38.0302 28.0528 37.5855C29.5144 36.7407 32.4106 37.4496 33.197 36.0188C33.5465 35.3829 28.5913 34.1827 27.1297 34.7694C25.6682 35.3561 24.2231 38.3293 23.7316 38.4285C23.2401 38.5277 21.6294 38.2604 18.4725 39.533C11.1966 42.4659 14.7474 50.2045 16.3525 53.04Z" fill="#F4D4CD"/>
<path d="M20.0626 39.7318C22.7463 41.0869 23.669 41.6199 23.6354 43.6805C23.6136 45.0152 22.9475 46.7521 21.8114 47.232C21.2189 47.4823 20.4003 46.6466 20.4003 46.6466M17.2049 41.2595C19.4789 42.5714 20.0132 43.3542 19.9344 45.1877C19.8788 46.4807 19.5939 48.0673 18.3742 47.9463C17.4909 47.8587 16.7788 47.1887 16.6534 46.248C16.5876 45.7538 16.9036 45.031 16.9036 45.031M24.0679 38.9151C24.0679 38.9151 26.3867 40.7024 26.6422 42.3571C26.8973 44.0094 26.6312 45.6651 25.1976 46.1918C24.5295 46.4372 23.3456 46.1546 23.3456 46.1546" stroke="#E4C5BE" stroke-width="0.194666" stroke-linecap="round" stroke-linejoin="round"/>
<path d="M53.7041 34.4506C53.7041 34.4506 57.357 37.3661 56.6647 39.4412C56.6927 39.7544 55.2801 37.2179 54.2391 37.0276C55.0501 36.3607 53.9315 36.333 53.4339 37.2179C53.6647 37.7367 55.2801 37.9086 55.2801 40.9974C55.2801 42.3333 52.8186 43.0514 52.8186 44.3323C52.8186 45.0356 53.3115 44.415 53.236 45.1775C52.9952 47.609 52.5666 47.6314 52.5666 47.6314C52.5666 47.6314 46.8496 45.4033 46.8496 39.7013C46.8496 38.0962 47.1262 36.8666 50.357 36.4769C50.7617 36.1579 50.4634 34.4506 53.7041 34.4506Z" fill="url(#paint8_linear_1634_10266)"/>
<g filter="url(#filter1_ii_1634_10266)">
<ellipse cx="4.07827" cy="3.84939" rx="4.07827" ry="3.84939" transform="matrix(-0.995696 0.104693 0.112423 0.992382 54.5005 35.9893)" fill="#F6C069"/>
</g>
<path d="M46.9751 40.6461C47.2029 42.6572 49.1254 44.1209 51.2868 43.8936C53.4483 43.6663 54.9978 41.8376 54.7699 39.8265C54.5421 37.8154 52.6197 36.3517 50.4582 36.579C48.2967 36.8063 46.7473 38.6349 46.9751 40.6461Z" stroke="#FEDD81" stroke-width="0.328029"/>
<path d="M50.1564 38.1418C49.978 38.123 49.8188 38.2404 49.8002 38.4045L49.5986 40.184L49.2759 40.1501C49.0975 40.1313 48.9383 40.2487 48.9197 40.4128C48.9011 40.5768 49.0303 40.7245 49.2087 40.7433L49.5314 40.7772L49.4978 41.0738L49.1751 41.0399C48.9967 41.0211 48.8375 41.1385 48.8189 41.3025C48.8003 41.4666 48.9295 41.6143 49.1079 41.633L49.4306 41.667L49.397 41.9635C49.3784 42.1276 49.5076 42.2753 49.686 42.2941C49.8645 42.3128 50.0237 42.1955 50.0423 42.0314L50.0759 41.7348L51.6891 41.9044C51.8676 41.9232 52.0268 41.8058 52.0454 41.6418C52.0639 41.4777 51.9348 41.33 51.7563 41.3113L50.1431 41.1416L50.1767 40.845L51.3059 40.9638C52.1075 41.0481 52.8256 40.5186 52.9091 39.7818C52.9925 39.045 52.4099 38.3788 51.6083 38.2945L50.1564 38.1418ZM51.3731 40.3706L50.2439 40.2519L50.4119 38.7689L51.5411 38.8877C51.9868 38.9345 52.3102 39.3043 52.2638 39.7139C52.2174 40.1236 51.8188 40.4175 51.3731 40.3706Z" fill="#FEDD81"/>
<path d="M67.1494 52.8437L70.2953 68.3663C70.2953 68.3663 67.5893 70.6405 66.1414 71.8494C63.8337 73.7762 60.5261 75.2584 60.5261 75.2584L59.2789 55.693L59.2781 55.6522C59.2545 54.3283 59.2356 53.2729 57.1726 51.0584C56.8779 50.1466 48.1194 44.8814 49.32 44.3361C51.7015 42.6171 55.6683 48.0784 57.032 44.7619C56.6568 42.9364 56.7741 42.2818 57.0919 41.1672C57.1726 40.8845 56.2184 37.8339 55.4491 37.3892C53.9876 36.5444 51.0913 37.2533 50.3049 35.8225C49.9555 35.1867 54.9107 33.9864 56.3722 34.5731C57.8337 35.1598 59.2789 38.133 59.7704 38.2322C60.2619 38.3314 61.8725 38.0641 65.0295 39.3367C72.3053 42.2696 68.7546 50.0082 67.1494 52.8437Z" fill="#F4D4CD"/>
<path d="M63.4379 39.5335C60.7541 40.8887 59.8315 41.4216 59.8651 43.4823C59.8869 44.817 60.553 46.5538 61.6891 47.0337C62.2816 47.2841 63.1002 46.4483 63.1002 46.4483M66.2956 41.0612C64.0215 42.3732 63.4873 43.156 63.5661 44.9894C63.6217 46.2824 63.9066 47.8691 65.1263 47.7481C66.0096 47.6604 66.7217 46.9905 66.8471 46.0497C66.9129 45.5555 66.5969 44.8328 66.5969 44.8328M59.4326 38.7169C59.4326 38.7169 57.1138 40.5041 56.8583 42.1589C56.6032 43.8111 56.8692 45.4668 58.3028 45.9935C58.971 46.239 60.1549 45.9564 60.1549 45.9564" stroke="#E4C5BE" stroke-width="0.194666" stroke-linecap="round" stroke-linejoin="round"/>
<defs>
<filter id="filter0_ii_1634_10266" x="28.5493" y="35.9937" width="8.16797" height="8.88171" filterUnits="userSpaceOnUse" color-interpolation-filters="sRGB">
<feFlood flood-opacity="0" result="BackgroundImageFix"/>
<feBlend mode="normal" in="SourceGraphic" in2="BackgroundImageFix" result="shape"/>
<feColorMatrix in="SourceAlpha" type="matrix" values="0 0 0 0 0 0 0 0 0 0 0 0 0 0 0 0 0 0 127 0" result="hardAlpha"/>
<feOffset dy="0.597106"/>
<feGaussianBlur stdDeviation="0.358263"/>
<feComposite in2="hardAlpha" operator="arithmetic" k2="-1" k3="1"/>
<feColorMatrix type="matrix" values="0 0 0 0 0.0901961 0 0 0 0 0.0980392 0 0 0 0 0.101961 0 0 0 0.1 0"/>
<feBlend mode="normal" in2="shape" result="effect1_innerShadow_1634_10266"/>
<feColorMatrix in="SourceAlpha" type="matrix" values="0 0 0 0 0 0 0 0 0 0 0 0 0 0 0 0 0 0 127 0" result="hardAlpha"/>
<feOffset dy="-0.597106"/>
<feGaussianBlur stdDeviation="0.358263"/>
<feComposite in2="hardAlpha" operator="arithmetic" k2="-1" k3="1"/>
<feColorMatrix type="matrix" values="0 0 0 0 0.0901961 0 0 0 0 0.0980392 0 0 0 0 0.101961 0 0 0 0.1 0"/>
<feBlend mode="normal" in2="effect1_innerShadow_1634_10266" result="effect2_innerShadow_1634_10266"/>
</filter>
<filter id="filter1_ii_1634_10266" x="46.7886" y="35.7955" width="8.16797" height="8.88171" filterUnits="userSpaceOnUse" color-interpolation-filters="sRGB">
<feFlood flood-opacity="0" result="BackgroundImageFix"/>
<feBlend mode="normal" in="SourceGraphic" in2="BackgroundImageFix" result="shape"/>
<feColorMatrix in="SourceAlpha" type="matrix" values="0 0 0 0 0 0 0 0 0 0 0 0 0 0 0 0 0 0 127 0" result="hardAlpha"/>
<feOffset dy="0.597106"/>
<feGaussianBlur stdDeviation="0.358263"/>
<feComposite in2="hardAlpha" operator="arithmetic" k2="-1" k3="1"/>
<feColorMatrix type="matrix" values="0 0 0 0 0.0901961 0 0 0 0 0.0980392 0 0 0 0 0.101961 0 0 0 0.1 0"/>
<feBlend mode="normal" in2="shape" result="effect1_innerShadow_1634_10266"/>
<feColorMatrix in="SourceAlpha" type="matrix" values="0 0 0 0 0 0 0 0 0 0 0 0 0 0 0 0 0 0 127 0" result="hardAlpha"/>
<feOffset dy="-0.597106"/>
<feGaussianBlur stdDeviation="0.358263"/>
<feComposite in2="hardAlpha" operator="arithmetic" k2="-1" k3="1"/>
<feColorMatrix type="matrix" values="0 0 0 0 0.0901961 0 0 0 0 0.0980392 0 0 0 0 0.101961 0 0 0 0.1 0"/>
<feBlend mode="normal" in2="effect1_innerShadow_1634_10266" result="effect2_innerShadow_1634_10266"/>
</filter>
<linearGradient id="paint0_linear_1634_10266" x1="54.7775" y1="103.091" x2="50.3367" y2="30.3773" gradientUnits="userSpaceOnUse">
<stop offset="0.0260417" stop-color="#749DAE"/>
<stop offset="1" stop-color="#C9E2E7" stop-opacity="0.4"/>
</linearGradient>
<linearGradient id="paint1_linear_1634_10266" x1="43.32" y1="56.2002" x2="44.3027" y2="62.2077" gradientUnits="userSpaceOnUse">
<stop stop-color="#DEC1C0"/>
<stop offset="1" stop-color="#DEC1C0" stop-opacity="0"/>
</linearGradient>
<linearGradient id="paint2_linear_1634_10266" x1="48.0843" y1="37.8535" x2="23.0086" y2="-0.684486" gradientUnits="userSpaceOnUse">
<stop stop-color="#201F1F"/>
<stop offset="1" stop-color="#3F3F3F"/>
</linearGradient>
<linearGradient id="paint3_linear_1634_10266" x1="35.799" y1="15.5367" x2="38.2779" y2="30.1057" gradientUnits="userSpaceOnUse">
<stop stop-color="#3F3F3F"/>
<stop offset="1" stop-color="#201F1F"/>
</linearGradient>
<linearGradient id="paint4_linear_1634_10266" x1="41.7259" y1="50.028" x2="41.2271" y2="42.2605" gradientUnits="userSpaceOnUse">
<stop stop-color="#DEC1C0"/>
<stop offset="1" stop-color="#DEC1C0" stop-opacity="0"/>
</linearGradient>
<linearGradient id="paint5_linear_1634_10266" x1="19.0624" y1="85.5879" x2="5.37788" y2="82.5585" gradientUnits="userSpaceOnUse">
<stop offset="0.00395736" stop-color="#F5BD67"/>
<stop offset="1" stop-color="#FFDE82"/>
</linearGradient>
<linearGradient id="paint6_linear_1634_10266" x1="40.4032" y1="101.273" x2="42.6917" y2="63.995" gradientUnits="userSpaceOnUse">
<stop offset="0.00395736" stop-color="#F5BD67"/>
<stop offset="1" stop-color="#FFDE82"/>
</linearGradient>
<linearGradient id="paint7_linear_1634_10266" x1="28.4425" y1="38.2573" x2="44.7311" y2="29.5468" gradientUnits="userSpaceOnUse">
<stop stop-color="#DEC1C0"/>
<stop offset="1" stop-color="#DEC1C0" stop-opacity="0"/>
</linearGradient>
<linearGradient id="paint8_linear_1634_10266" x1="55.0564" y1="38.0609" x2="38.7679" y2="29.3504" gradientUnits="userSpaceOnUse">
<stop stop-color="#DEC1C0"/>
<stop offset="1" stop-color="#DEC1C0" stop-opacity="0"/>
</linearGradient>
</defs>
</svg>
