<svg width="83" height="81" viewBox="0 0 83 81" fill="none" xmlns="http://www.w3.org/2000/svg">
<ellipse cx="41.667" cy="40.6045" rx="41" ry="40" fill="url(#paint0_linear_1634_10042)"/>
<path d="M19.8029 73.1824C14.1849 70.1568 24.837 57.947 29.6953 49.1706L43.1489 40.0938C43.1929 40.9735 51.1947 41.3168 53.7008 48.3337C57.2139 58.1703 61.2849 62.0456 61.2849 69.1912C61.2849 78.0105 51.9201 74.663 48.3589 76.208C44.7976 77.753 31.2781 79.3624 19.8029 73.1824Z" fill="#333333"/>
<path d="M32.0566 64.6353C36.0073 63.7804 36.4511 57.9997 36.5975 56.0049H44.9379C46.9571 63.1861 47.5345 64.6353 48.9797 64.6353C47.1873 67.1288 44.5867 70.7092 40.1092 71.3931C35.6317 72.0771 33.1541 67.6987 32.0566 64.6353Z" fill="#F4D4CD"/>
<path d="M46.2077 58.707C46.2077 58.707 42.5191 59.904 41.0817 59.904C39.5337 59.6864 35.5923 58.707 35.5923 58.707C35.5923 58.707 38.6814 63.0598 41.0817 63.0598C43.9565 63.0598 45.4697 60.8733 46.2077 58.707Z" fill="url(#paint1_linear_1634_10042)"/>
<ellipse cx="2.74023" cy="3.85978" rx="2.74023" ry="3.85978" transform="matrix(0.974391 -0.22486 0.235626 0.971844 26.3594 43.459)" fill="#F4D4CD"/>
<ellipse cx="2.74023" cy="3.85978" rx="2.74023" ry="3.85978" transform="matrix(-0.974391 -0.22486 -0.235626 0.971844 55.4668 43.2461)" fill="#F4D4CD"/>
<path d="M53.0305 42.9766C53.0305 48.1865 52.0184 49.4438 51.1648 53.6196C50.566 56.5489 43.7018 62.0356 41.1333 62.0356C38.8728 62.0356 31.3798 57.1699 30.7733 53.6196C30.1668 50.0693 29.2148 47.7582 29.2148 42.5483C29.2148 32.9685 33.7992 25.6309 41.1333 25.6309C48.4675 25.6309 53.0305 33.3968 53.0305 42.9766Z" fill="#F4D4CD"/>
<path d="M56.3476 38.8806C57.3194 34.4454 57.2697 32.5032 54.7013 27.8302C50.9228 20.9558 39.6868 17.8719 30.9942 27.8302C29.504 29.5374 23.2151 31.1068 24.8698 37.7884C25.3415 39.6929 28.6618 47.2181 30.9942 49.6742C30.9942 49.6742 28.821 39.9729 32.4429 35.0259C38.1063 43.8919 56.9943 44.4701 58.5866 44.4701C58.5866 44.4701 55.7253 41.721 56.3476 38.8806Z" fill="url(#paint2_linear_1634_10042)"/>
<path d="M44.0992 55.4675C42.1234 55.7887 38.0634 55.8958 37.4051 55.8958C36.7469 55.8958 39.0291 57.5233 40.6973 57.6089C42.3655 57.6946 46.075 55.1463 44.0992 55.4675Z" fill="white"/>
<path d="M42.6914 51.6585C42.6914 51.6585 41.6793 47.4492 41.0145 47.4492C40.1239 47.5571 39.3486 51.6585 39.3486 51.6585C39.3486 51.6585 37.9021 53.0348 39.7918 53.2775C40.1916 53.3289 40.3692 53.6286 41.0145 53.6013C41.4967 53.5809 41.817 53.2149 42.1523 53.1696C42.93 53.0645 43.5966 52.7379 42.6914 51.6585Z" fill="url(#paint3_linear_1634_10042)"/>
<path d="M36.9716 43.9881C36.1928 43.9564 35.4067 43.9663 34.6318 44.0557C33.8601 44.123 33.0993 44.2855 32.3608 44.5113C32.2984 44.5242 32.2662 44.592 32.291 44.6582C32.3097 44.7078 32.3622 44.7453 32.4246 44.7324C33.1573 44.6006 33.894 44.5156 34.6408 44.5402C35.3832 44.5517 36.126 44.6025 36.8571 44.7326L36.8687 44.7378C37.0755 44.7764 37.2826 44.6367 37.3106 44.4297C37.3502 44.228 37.207 44.0259 36.9948 43.9986C37.0002 43.9873 36.9886 43.9821 36.9716 43.9881Z" fill="black"/>
<path d="M45.447 43.7457C46.2261 43.7201 47.012 43.7362 47.7862 43.8315C48.5572 43.9049 49.3167 44.0733 50.0533 44.3049C50.1157 44.3183 50.1473 44.3864 50.1219 44.4523C50.1029 44.5018 50.05 44.5389 49.9877 44.5254C49.2561 44.388 48.5202 44.2972 47.7732 44.316C47.0307 44.3217 46.2876 44.3667 45.5554 44.4911L45.5437 44.4962C45.3366 44.5332 45.1307 44.3919 45.1044 44.1847C45.0665 43.9826 45.2113 43.7817 45.4237 43.756C45.4184 43.7447 45.4301 43.7395 45.447 43.7457Z" fill="black"/>
<path d="M37.5592 47.0282C37.2457 46.3568 33.1787 46.5431 32.4904 46.849C31.8021 47.1548 33.3234 48.2035 34.3702 48.4118C36.3867 48.813 37.8726 47.6996 37.5592 47.0282Z" fill="white"/>
<path d="M34.0199 46.9083C33.9694 47.5483 34.3813 48.1012 34.94 48.1431C35.4987 48.1851 35.9925 47.7002 36.043 47.0602C36.0935 46.4203 35.6471 46.4468 35.0884 46.4049C34.5297 46.3629 34.0704 46.2683 34.0199 46.9083Z" fill="black"/>
<path d="M37.5123 47.2071C36.8731 46.1934 33.6618 45.9524 32.4429 47.0279L31.7387 46.7784" stroke="black" stroke-width="0.398104" stroke-linecap="round"/>
<path d="M50.0025 47.0717C49.6488 46.4355 45.6813 46.8883 45.029 47.2335C44.3767 47.5786 45.939 48.5038 46.9781 48.638C48.9797 48.8965 50.3562 47.7079 50.0025 47.0717Z" fill="white"/>
<path d="M46.569 47.3034C46.5643 47.9332 47.0062 48.4469 47.5559 48.4507C48.1056 48.4546 48.555 47.9473 48.5597 47.3175C48.5644 46.6878 48.1294 46.7435 47.5796 46.7396C47.0299 46.7357 46.5737 46.6737 46.569 47.3034Z" fill="black"/>
<path d="M44.979 47.4398C46.0524 46.2852 49.2566 46.3284 49.9531 47.278L50.5909 46.961" stroke="black" stroke-width="0.398104" stroke-linecap="round"/>
<path d="M17.9731 73.3217C17.9731 73.3217 19.0262 69.0507 20.6655 68.5938L21.7424 75.4981L18.5116 73.697L17.9731 73.3217Z" fill="url(#paint4_linear_1634_10042)"/>
<path d="M64.0522 74.1493C64.0522 74.1493 63.0522 69.2712 60.4369 68.1455L59.8984 76.4449C59.8984 76.4449 61.2061 75.8137 62.0522 75.3942C62.8984 74.9748 64.0522 74.1493 64.0522 74.1493Z" fill="url(#paint5_linear_1634_10042)"/>
<path d="M32.2838 64.6174C29.7454 65.518 23.4449 67.4392 20.6685 68.5949L21.5915 75.3491C21.5915 75.3491 29.8474 80.7324 42.3089 80.5373C54.7705 80.3423 61.0531 75.7994 61.0531 75.7994L60.5915 68.1887C58.5915 67.5443 52.3445 65.2896 47.9762 64.2422C46.7915 66.4453 43.9708 68.362 39.7061 68.1887C35.4414 68.0153 33.2093 66.6761 32.2838 64.6174Z" fill="url(#paint6_linear_1634_10042)"/>
<g filter="url(#filter0_ii_1634_10042)">
<ellipse cx="4.80593" cy="4.71346" rx="4.80593" ry="4.71346" transform="matrix(0.650581 -0.759437 0.775019 0.631938 10.0537 26.3652)" fill="#F6C069"/>
</g>
<path d="M19.8521 22.1702C21.7963 23.7555 22.027 26.6194 20.3578 28.5678C18.6887 30.5163 15.7588 30.8031 13.8146 29.2179C11.8705 27.6326 11.6397 24.7687 13.3089 22.8203C14.9781 20.8718 17.9079 20.585 19.8521 22.1702Z" stroke="#FEDD81" stroke-width="0.331753"/>
<path d="M14.1779 25.0177C14.0405 25.1781 14.0562 25.411 14.2131 25.539L15.9148 26.9265L15.6664 27.2165C15.529 27.3769 15.5447 27.6099 15.7016 27.7378C15.8585 27.8657 16.0962 27.8394 16.2336 27.679L16.4821 27.389L16.7657 27.6203L16.5172 27.9103C16.3798 28.0707 16.3956 28.3036 16.5524 28.4315C16.7093 28.5595 16.9471 28.5332 17.0845 28.3728L17.3329 28.0828L17.6165 28.3141C17.7734 28.442 18.0112 28.4157 18.1486 28.2553C18.286 28.0949 18.2703 27.862 18.1134 27.7341L17.8298 27.5028L19.0719 26.0528C19.2093 25.8924 19.1936 25.6595 19.0367 25.5316C18.8799 25.4036 18.6421 25.4299 18.5047 25.5903L17.2625 27.0403L16.9789 26.809L17.8484 25.794C18.4656 25.0736 18.3947 24.0229 17.6901 23.4484C16.9855 22.8738 15.913 22.9922 15.2958 23.7127L14.1779 25.0177ZM17.2812 25.3315L16.4117 26.3465L14.9936 25.1902L15.8631 24.1752C16.2062 23.7747 16.8015 23.709 17.1932 24.0284C17.585 24.3478 17.6243 24.931 17.2812 25.3315Z" fill="#FEDD81"/>
<g filter="url(#filter1_ii_1634_10042)">
<ellipse cx="2.63283" cy="2.58217" rx="2.63283" ry="2.58217" transform="matrix(0.650581 -0.759437 0.775019 0.631938 60.8232 27.2676)" fill="#F6C069"/>
</g>
<path d="M66.1423 25.0264C67.1742 25.8678 67.2984 27.3898 66.41 28.4268C65.5216 29.4639 63.9643 29.6148 62.9324 28.7734C61.9005 27.932 61.7763 26.41 62.6647 25.3729C63.553 24.3359 65.1104 24.185 66.1423 25.0264Z" stroke="#FEDD81" stroke-width="0.331753"/>
<path d="M63.0822 26.5271C63.0069 26.6151 63.0156 26.7427 63.1015 26.8128L64.034 27.5731L63.8978 27.732C63.8225 27.8199 63.8311 27.9476 63.9171 28.0177C64.0031 28.0877 64.1333 28.0734 64.2086 27.9854L64.3448 27.8265L64.5002 27.9532L64.3641 28.1122C64.2888 28.2001 64.2974 28.3277 64.3833 28.3978C64.4693 28.4679 64.5996 28.4535 64.6749 28.3656L64.811 28.2067L64.9664 28.3334C65.0524 28.4035 65.1827 28.3891 65.258 28.3012C65.3333 28.2133 65.3247 28.0857 65.2387 28.0156L65.0833 27.8888L65.764 27.0943C65.8393 27.0063 65.8307 26.8787 65.7447 26.8086C65.6588 26.7385 65.5285 26.7529 65.4532 26.8408L64.7725 27.6354L64.6171 27.5087L65.0936 26.9525C65.4318 26.5577 65.3929 25.9819 65.0068 25.6671C64.6208 25.3523 64.0331 25.4172 63.6949 25.812L63.0822 26.5271ZM64.7827 26.699L64.3063 27.2553L63.5292 26.6217L64.0057 26.0655C64.1937 25.8459 64.5199 25.8099 64.7346 25.9849C64.9492 26.16 64.9708 26.4795 64.7827 26.699Z" fill="#FEDD81"/>
<path d="M9.48535 51.7444C9.48535 51.7444 10.7083 52.7233 11.8058 52.6086C14.5888 52.318 16.5643 48.7616 15.9371 47.0408C15.7647 46.5666 15.5687 46.4366 14.5888 45.4653C13.75 44.6393 9.48535 51.7444 9.48535 51.7444Z" fill="url(#paint7_linear_1634_10042)"/>
<path d="M9.23803 48.7547C10.0925 45.9402 16.6541 42.5979 14.3101 48.2881C12.3189 53.1371 7.84263 53.3665 9.23803 48.7547Z" fill="#FFDE82"/>
<path d="M12.1228 46.7112C12.0008 46.6401 11.8441 46.6774 11.7722 46.7947L10.9921 48.0677L10.7715 47.939C10.6495 47.8678 10.4928 47.9051 10.4209 48.0225C10.3489 48.1398 10.3894 48.2922 10.5115 48.3633L10.7321 48.492L10.6021 48.7042L10.3815 48.5755C10.2594 48.5043 10.1027 48.5416 10.0308 48.659C9.95892 48.7763 9.99941 48.9286 10.1214 48.9998L10.3421 49.1285L10.212 49.3407C10.1401 49.458 10.1806 49.6103 10.3027 49.6815C10.4247 49.7527 10.5814 49.7154 10.6533 49.598L10.7833 49.3858L11.8864 50.0292C12.0084 50.1004 12.1651 50.0631 12.237 49.9457C12.3089 49.8284 12.2684 49.6761 12.1464 49.6049L11.0433 48.9615L11.1733 48.7494L11.9455 49.1997C12.4936 49.5194 13.2003 49.3511 13.5233 48.824C13.8463 48.297 13.6637 47.61 13.1156 47.2903L12.1228 46.7112ZM12.2055 48.7754L11.4333 48.325L12.0834 47.2642L12.8555 47.7146C13.1603 47.8923 13.2616 48.2736 13.0821 48.5667C12.9025 48.8597 12.5102 48.9531 12.2055 48.7754Z" fill="url(#paint8_linear_1634_10042)"/>
<path d="M72.2127 52.1205C72.2127 52.1205 73.64 51.455 73.9989 50.4367C74.9091 47.8545 72.4454 44.601 70.582 44.4255C70.0687 44.3768 69.8649 44.4948 68.5477 44.9488C67.4253 45.3397 72.2127 52.1205 72.2127 52.1205Z" fill="url(#paint9_linear_1634_10042)"/>
<path d="M69.3307 51.0663C67.0803 49.1179 66.7599 41.9032 71.0482 46.387C74.7051 50.2023 73.0201 54.2547 69.3307 51.0663Z" fill="#FFDE82"/>
<path d="M68.6546 47.6502C68.5368 47.7278 68.505 47.8821 68.5834 47.9954L69.4344 49.2244L69.2214 49.3647C69.1036 49.4424 69.0718 49.5967 69.1502 49.7099C69.2287 49.8232 69.3872 49.8521 69.505 49.7744L69.718 49.634L69.8598 49.8389L69.6468 49.9792C69.529 50.0569 69.4972 50.2111 69.5757 50.3244C69.6541 50.4377 69.8127 50.4666 69.9305 50.3889L70.1435 50.2485L70.2853 50.4534C70.3638 50.5667 70.5223 50.5955 70.6401 50.5178C70.7579 50.4402 70.7897 50.2859 70.7113 50.1726L70.5695 49.9678L71.6345 49.266C71.7523 49.1883 71.7841 49.0341 71.7056 48.9208C71.6272 48.8075 71.4686 48.7787 71.3508 48.8563L70.2858 49.5581L70.144 49.3533L70.8895 48.862C71.4187 48.5133 71.5621 47.8175 71.2098 47.3086C70.8574 46.7997 70.1423 46.6698 69.6131 47.0185L68.6546 47.6502ZM70.6059 48.4524L69.8604 48.9436L69.1513 47.9195L69.8967 47.4282C70.1909 47.2343 70.5879 47.3064 70.7838 47.5893C70.9797 47.8723 70.9001 48.2585 70.6059 48.4524Z" fill="url(#paint10_linear_1634_10042)"/>
<path d="M38.5041 14.2421C38.5041 14.2421 39.8112 15.8551 41.2733 16.0098C44.9805 16.4022 48.5868 12.3198 48.2712 9.9061C48.1846 9.24108 47.9674 9.01755 46.9744 7.48179C46.1228 6.17426 38.5041 14.2421 38.5041 14.2421Z" fill="url(#paint11_linear_1634_10042)"/>
<path d="M39.0587 10.2815C40.9899 6.85441 50.5037 4.32092 45.7969 11.0789C41.794 16.8394 35.9004 15.8984 39.0587 10.2815Z" fill="#FFDE82"/>
<path d="M43.4084 8.41822C43.2703 8.29178 43.0555 8.29695 42.9277 8.42979L41.5419 9.87082L41.2921 9.64222C41.154 9.51577 40.9392 9.52094 40.8114 9.65379C40.6837 9.78663 40.6921 9.99612 40.8302 10.1226L41.0799 10.3512L40.849 10.5913L40.5992 10.3627C40.4611 10.2363 40.2463 10.2415 40.1185 10.3743C39.9908 10.5071 39.9992 10.7166 40.1373 10.8431L40.387 11.0717L40.1561 11.3118C40.0283 11.4447 40.0367 11.6542 40.1748 11.7806C40.313 11.9071 40.5278 11.9019 40.6556 11.769L40.8865 11.5289L42.1352 12.6719C42.2734 12.7983 42.4882 12.7932 42.616 12.6603C42.7437 12.5275 42.7353 12.318 42.5972 12.1915L41.3485 11.0485L41.5794 10.8084L42.4535 11.6085C43.074 12.1764 44.0429 12.1531 44.6167 11.5564C45.1905 10.9597 45.1527 10.0149 44.5323 9.44693L43.4084 8.41822ZM42.9155 11.1281L42.0414 10.328L43.1962 9.12717L44.0703 9.92727C44.4153 10.243 44.4363 10.7675 44.1172 11.0992C43.7982 11.4309 43.2604 11.4439 42.9155 11.1281Z" fill="url(#paint12_linear_1634_10042)"/>
<defs>
<filter id="filter0_ii_1634_10042" x="12.0249" y="20.3795" width="9.61719" height="10.6296" filterUnits="userSpaceOnUse" color-interpolation-filters="sRGB">
<feFlood flood-opacity="0" result="BackgroundImageFix"/>
<feBlend mode="normal" in="SourceGraphic" in2="BackgroundImageFix" result="shape"/>
<feColorMatrix in="SourceAlpha" type="matrix" values="0 0 0 0 0 0 0 0 0 0 0 0 0 0 0 0 0 0 127 0" result="hardAlpha"/>
<feOffset dy="0.603885"/>
<feGaussianBlur stdDeviation="0.362331"/>
<feComposite in2="hardAlpha" operator="arithmetic" k2="-1" k3="1"/>
<feColorMatrix type="matrix" values="0 0 0 0 0.0901961 0 0 0 0 0.0980392 0 0 0 0 0.101961 0 0 0 0.1 0"/>
<feBlend mode="normal" in2="shape" result="effect1_innerShadow_1634_10042"/>
<feColorMatrix in="SourceAlpha" type="matrix" values="0 0 0 0 0 0 0 0 0 0 0 0 0 0 0 0 0 0 127 0" result="hardAlpha"/>
<feOffset dy="-0.603885"/>
<feGaussianBlur stdDeviation="0.362331"/>
<feComposite in2="hardAlpha" operator="arithmetic" k2="-1" k3="1"/>
<feColorMatrix type="matrix" values="0 0 0 0 0.0901961 0 0 0 0 0.0980392 0 0 0 0 0.101961 0 0 0 0.1 0"/>
<feBlend mode="normal" in2="effect1_innerShadow_1634_10042" result="effect2_innerShadow_1634_10042"/>
</filter>
<filter id="filter1_ii_1634_10042" x="61.9033" y="23.7155" width="5.26807" height="6.3689" filterUnits="userSpaceOnUse" color-interpolation-filters="sRGB">
<feFlood flood-opacity="0" result="BackgroundImageFix"/>
<feBlend mode="normal" in="SourceGraphic" in2="BackgroundImageFix" result="shape"/>
<feColorMatrix in="SourceAlpha" type="matrix" values="0 0 0 0 0 0 0 0 0 0 0 0 0 0 0 0 0 0 127 0" result="hardAlpha"/>
<feOffset dy="0.603885"/>
<feGaussianBlur stdDeviation="0.362331"/>
<feComposite in2="hardAlpha" operator="arithmetic" k2="-1" k3="1"/>
<feColorMatrix type="matrix" values="0 0 0 0 0.0901961 0 0 0 0 0.0980392 0 0 0 0 0.101961 0 0 0 0.1 0"/>
<feBlend mode="normal" in2="shape" result="effect1_innerShadow_1634_10042"/>
<feColorMatrix in="SourceAlpha" type="matrix" values="0 0 0 0 0 0 0 0 0 0 0 0 0 0 0 0 0 0 127 0" result="hardAlpha"/>
<feOffset dy="-0.603885"/>
<feGaussianBlur stdDeviation="0.362331"/>
<feComposite in2="hardAlpha" operator="arithmetic" k2="-1" k3="1"/>
<feColorMatrix type="matrix" values="0 0 0 0 0.0901961 0 0 0 0 0.0980392 0 0 0 0 0.101961 0 0 0 0.1 0"/>
<feBlend mode="normal" in2="effect1_innerShadow_1634_10042" result="effect2_innerShadow_1634_10042"/>
</filter>
<linearGradient id="paint0_linear_1634_10042" x1="54.778" y1="104.389" x2="50.2244" y2="30.7614" gradientUnits="userSpaceOnUse">
<stop offset="0.0260417" stop-color="#749DAE"/>
<stop offset="1" stop-color="#C9E2E7" stop-opacity="0.4"/>
</linearGradient>
<linearGradient id="paint1_linear_1634_10042" x1="43.266" y1="60.5638" x2="44.1494" y2="65.8508" gradientUnits="userSpaceOnUse">
<stop stop-color="#DEC1C0"/>
<stop offset="1" stop-color="#DEC1C0" stop-opacity="0"/>
</linearGradient>
<linearGradient id="paint2_linear_1634_10042" x1="46.8235" y1="45.9655" x2="25.9726" y2="14.3212" gradientUnits="userSpaceOnUse">
<stop stop-color="#201F1F"/>
<stop offset="1" stop-color="#3F3F3F"/>
</linearGradient>
<linearGradient id="paint3_linear_1634_10042" x1="41.4857" y1="55.4362" x2="41.0662" y2="48.9587" gradientUnits="userSpaceOnUse">
<stop stop-color="#DEC1C0"/>
<stop offset="1" stop-color="#DEC1C0" stop-opacity="0"/>
</linearGradient>
<linearGradient id="paint4_linear_1634_10042" x1="21.9936" y1="85.8487" x2="10.1248" y2="83.254" gradientUnits="userSpaceOnUse">
<stop offset="0.00395736" stop-color="#F5BD67"/>
<stop offset="1" stop-color="#FFDE82"/>
</linearGradient>
<linearGradient id="paint5_linear_1634_10042" x1="58.8421" y1="88.5572" x2="70.7109" y2="85.9626" gradientUnits="userSpaceOnUse">
<stop offset="0.00395736" stop-color="#F5BD67"/>
<stop offset="1" stop-color="#FFDE82"/>
</linearGradient>
<linearGradient id="paint6_linear_1634_10042" x1="40.4836" y1="99.6104" x2="42.5165" y2="66.9097" gradientUnits="userSpaceOnUse">
<stop offset="0.00395736" stop-color="#F5BD67"/>
<stop offset="1" stop-color="#FFDE82"/>
</linearGradient>
<linearGradient id="paint7_linear_1634_10042" x1="9.48159" y1="49.0087" x2="16.0442" y2="49.0087" gradientUnits="userSpaceOnUse">
<stop offset="0.0178725" stop-color="#FFDE82"/>
<stop offset="0.8546" stop-color="#F1BE66"/>
</linearGradient>
<linearGradient id="paint8_linear_1634_10042" x1="17.8253" y1="48.8114" x2="12.6095" y2="52.4352" gradientUnits="userSpaceOnUse">
<stop stop-color="#F5BD67"/>
<stop offset="1" stop-color="#F5BD67"/>
</linearGradient>
<linearGradient id="paint9_linear_1634_10042" x1="69.6716" y1="50.9638" x2="72.3433" y2="45.1146" gradientUnits="userSpaceOnUse">
<stop offset="0.0178725" stop-color="#FFDE82"/>
<stop offset="0.8546" stop-color="#F1BE66"/>
</linearGradient>
<linearGradient id="paint10_linear_1634_10042" x1="73.0222" y1="43.5021" x2="73.9809" y2="49.6773" gradientUnits="userSpaceOnUse">
<stop stop-color="#F5BD67"/>
<stop offset="1" stop-color="#F5BD67"/>
</linearGradient>
<linearGradient id="paint11_linear_1634_10042" x1="39.2952" y1="10.68" x2="47.8184" y2="12.5851" gradientUnits="userSpaceOnUse">
<stop offset="0.0178725" stop-color="#FFDE82"/>
<stop offset="0.8546" stop-color="#F1BE66"/>
</linearGradient>
<linearGradient id="paint12_linear_1634_10042" x1="50.2205" y1="12.7314" x2="42.3581" y2="15.9594" gradientUnits="userSpaceOnUse">
<stop stop-color="#F5BD67"/>
<stop offset="1" stop-color="#F5BD67"/>
</linearGradient>
</defs>
</svg>
