<svg width="31" height="30" viewBox="0 0 31 30" fill="none" xmlns="http://www.w3.org/2000/svg">
<path d="M21.255 14.0517C21.7638 13.3 22.0582 12.424 22.1067 11.5177C22.1553 10.6113 21.9561 9.70887 21.5305 8.90719C21.1049 8.1055 20.469 7.43485 19.6911 6.96723C18.9132 6.49961 18.0226 6.25268 17.115 6.25293V5.00293C17.115 4.67141 16.9833 4.35347 16.7489 4.11905C16.5145 3.88463 16.1965 3.75293 15.865 3.75293C15.5335 3.75293 15.2155 3.88463 14.9811 4.11905C14.7467 4.35347 14.615 4.67141 14.615 5.00293V6.25293H12.115V5.00293C12.115 4.67141 11.9833 4.35347 11.7489 4.11905C11.5145 3.88463 11.1965 3.75293 10.865 3.75293C10.5335 3.75293 10.2155 3.88463 9.98111 4.11905C9.74669 4.35347 9.61499 4.67141 9.61499 5.00293V6.25293H8.36499C8.03347 6.25293 7.71553 6.38463 7.48111 6.61905C7.24669 6.85347 7.11499 7.17141 7.11499 7.50293C7.11499 7.83445 7.24669 8.15239 7.48111 8.38681C7.71553 8.62123 8.03347 8.75293 8.36499 8.75293H9.61499V21.2529H8.36499C8.03347 21.2529 7.71553 21.3846 7.48111 21.619C7.24669 21.8535 7.11499 22.1714 7.11499 22.5029C7.11499 22.8345 7.24669 23.1524 7.48111 23.3868C7.71553 23.6212 8.03347 23.7529 8.36499 23.7529H9.61499V25.0029C9.61499 25.3344 9.74669 25.6524 9.98111 25.8868C10.2155 26.1212 10.5335 26.2529 10.865 26.2529C11.1965 26.2529 11.5145 26.1212 11.7489 25.8868C11.9833 25.6524 12.115 25.3344 12.115 25.0029V23.7529H14.615V25.0029C14.615 25.3344 14.7467 25.6524 14.9811 25.8868C15.2155 26.1212 15.5335 26.2529 15.865 26.2529C16.1965 26.2529 16.5145 26.1212 16.7489 25.8868C16.9833 25.6524 17.115 25.3344 17.115 25.0029V23.7529H19.615C20.7948 23.7545 21.9369 23.3379 22.8385 22.5769C23.7401 21.816 24.3428 20.7601 24.5395 19.5969C24.7361 18.4336 24.5141 17.2383 23.9127 16.2233C23.3114 15.2083 22.3697 14.438 21.255 14.0517ZM12.115 8.75293H17.115C17.778 8.75293 18.4139 9.01632 18.8828 9.48516C19.3516 9.954 19.615 10.5899 19.615 11.2529C19.615 11.916 19.3516 12.5519 18.8828 13.0207C18.4139 13.4895 17.778 13.7529 17.115 13.7529H12.115V8.75293ZM19.615 21.2529H12.115V16.2529H19.615C20.278 16.2529 20.9139 16.5163 21.3828 16.9852C21.8516 17.454 22.115 18.0899 22.115 18.7529C22.115 19.416 21.8516 20.0519 21.3828 20.5207C20.9139 20.9895 20.278 21.2529 19.615 21.2529Z" fill="#9C9D9D"/>
</svg>
