<svg width="26" height="25" viewBox="0 0 26 25" fill="none" xmlns="http://www.w3.org/2000/svg">
<path d="M17.499 11.6967C17.9352 11.062 18.1877 10.3222 18.2293 9.55689C18.2709 8.79153 18.1001 8.02946 17.7352 7.35249C17.3703 6.67551 16.8251 6.10918 16.1581 5.7143C15.4911 5.31942 14.7275 5.1109 13.9492 5.11111V4.05556C13.9492 3.7756 13.8363 3.50712 13.6353 3.30917C13.4343 3.11121 13.1617 3 12.8775 3C12.5932 3 12.3206 3.11121 12.1196 3.30917C11.9186 3.50712 11.8057 3.7756 11.8057 4.05556V5.11111H9.66212V4.05556C9.66212 3.7756 9.5492 3.50712 9.3482 3.30917C9.1472 3.11121 8.87459 3 8.59034 3C8.30608 3 8.03347 3.11121 7.83248 3.30917C7.63148 3.50712 7.51856 3.7756 7.51856 4.05556V5.11111H6.44678C6.16253 5.11111 5.88991 5.22232 5.68892 5.42028C5.48792 5.61823 5.375 5.88672 5.375 6.16667C5.375 6.44662 5.48792 6.7151 5.68892 6.91306C5.88991 7.11101 6.16253 7.22222 6.44678 7.22222H7.51856V17.7778H6.44678C6.16253 17.7778 5.88991 17.889 5.68892 18.0869C5.48792 18.2849 5.375 18.5534 5.375 18.8333C5.375 19.1133 5.48792 19.3818 5.68892 19.5797C5.88991 19.7777 6.16253 19.8889 6.44678 19.8889H7.51856V20.9444C7.51856 21.2244 7.63148 21.4929 7.83248 21.6908C8.03347 21.8888 8.30608 22 8.59034 22C8.87459 22 9.1472 21.8888 9.3482 21.6908C9.5492 21.4929 9.66212 21.2244 9.66212 20.9444V19.8889H11.8057V20.9444C11.8057 21.2244 11.9186 21.4929 12.1196 21.6908C12.3206 21.8888 12.5932 22 12.8775 22C13.1617 22 13.4343 21.8888 13.6353 21.6908C13.8363 21.4929 13.9492 21.2244 13.9492 20.9444V19.8889H16.0928C17.1044 19.8902 18.0837 19.5384 18.8567 18.8958C19.6298 18.2533 20.1465 17.3617 20.3151 16.3793C20.4838 15.397 20.2934 14.3876 19.7778 13.5305C19.2622 12.6734 18.4548 12.023 17.499 11.6967ZM9.66212 7.22222H13.9492C14.5177 7.22222 15.063 7.44464 15.465 7.84055C15.867 8.23646 16.0928 8.77343 16.0928 9.33333C16.0928 9.89324 15.867 10.4302 15.465 10.8261C15.063 11.222 14.5177 11.4444 13.9492 11.4444H9.66212V7.22222ZM16.0928 17.7778H9.66212V13.5556H16.0928C16.6613 13.5556 17.2065 13.778 17.6085 14.1739C18.0105 14.5698 18.2364 15.1068 18.2364 15.6667C18.2364 16.2266 18.0105 16.7635 17.6085 17.1594C17.2065 17.5554 16.6613 17.7778 16.0928 17.7778Z" fill="#434546"/>
</svg>
