<svg width="37" height="37" viewBox="0 0 37 37" fill="none" xmlns="http://www.w3.org/2000/svg">
<rect x="1.25" y="1.16895" width="34.5" height="34.5" rx="17.25" stroke="#90B89E" stroke-width="1.5"/>
<g opacity="0.8">
<path fillRule="evenodd" clipRule="evenodd" d="M22.4716 10.6339C22.1965 10.3489 21.7303 10.3471 21.4531 10.6299L13.5022 18.7445C13.4017 18.8471 13.3338 18.9777 13.3072 19.1197L12.7096 22.3069C12.6171 22.8007 13.0591 23.248 13.5463 23.1535L16.6718 22.5473C16.8121 22.5201 16.9411 22.4509 17.0423 22.3487L25.0125 14.2928C25.2901 14.0122 25.2929 13.5576 25.0188 13.2736L22.4716 10.6339ZM14.3105 21.5303L14.6709 19.6079L21.9566 12.1723L23.5017 13.7736L16.1877 21.1662L14.3105 21.5303Z" fill="#7CAB8D"/>
<path d="M25.7851 26.4189C26.1799 26.4189 26.5 26.0946 26.5 25.6946C26.5 25.2946 26.1799 24.9703 25.7851 24.9703L11.2149 24.9703C10.8201 24.9703 10.5 25.2946 10.5 25.6946C10.5 26.0946 10.8201 26.4189 11.2149 26.4189L25.7851 26.4189Z" fill="#7CAB8D"/>
</g>
</svg>
