<svg width="38" height="39" viewBox="0 0 38 39" fill="none" xmlns="http://www.w3.org/2000/svg">
<path d="M19.0005 37.6045C28.9416 37.6045 37.0005 29.5456 37.0005 19.6045C37.0005 9.66337 28.9416 1.60449 19.0005 1.60449C9.05936 1.60449 1.00049 9.66337 1.00049 19.6045C1.00049 29.5456 9.05936 37.6045 19.0005 37.6045Z" stroke="#90B89E" stroke-width="2"/>
<path d="M19.889 27.6045H15.4447C12.9907 27.6045 11.0005 25.6143 11.0005 23.1602V16.0487C11.0005 13.5947 12.9907 11.6045 15.4447 11.6045H22.5562C25.0103 11.6045 27.0005 13.5947 27.0005 16.0487V20.493" stroke="#90B89E" stroke-width="2" stroke-linecap="round" stroke-linejoin="round"/>
<path d="M21.9757 17.6298C23.3421 18.9973 23.3421 21.2132 21.9757 22.5796C20.6084 23.9461 18.3926 23.9461 17.0253 22.5796C15.6589 21.2132 15.6589 18.9973 17.0253 17.6298C17.6812 16.9728 18.5724 16.6045 19.5005 16.6045C20.4286 16.6045 21.3197 16.9728 21.9757 17.6298Z" stroke="#90B89E" stroke-width="2" stroke-linecap="round" stroke-linejoin="round"/>
<path d="M24.0005 26.6045H29.0005" stroke="#90B89E" stroke-width="2" stroke-linecap="round" stroke-linejoin="round"/>
<path d="M26.0005 29.6045V24.6045" stroke="#90B89E" stroke-width="2" stroke-linecap="round" stroke-linejoin="round"/>
</svg>
