<svg width="25" height="24" viewBox="0 0 25 24" fill="none" xmlns="http://www.w3.org/2000/svg">
<g clipPath="url(#clip0_1634_7539)">
<path d="M24.875 1.06698C24.875 0.477704 24.3959 0 23.8049 0H16.8587C15.4787 0 15.4787 2.13396 16.8587 2.13396L21.2216 2.13396L9.21705 14.104C8.79916 14.5207 8.79916 15.1963 9.21705 15.613C9.63493 16.0296 10.3124 16.0296 10.7303 15.613L22.7349 3.6429V7.99323C22.7349 9.3693 24.875 9.3693 24.875 7.99323V1.06698Z" fill="#21703C"/>
<path d="M19.0319 14.1157V21.866L3.01512 21.866L3.01511 5.73225L10.8666 5.73225C12.2467 5.73225 12.2467 3.59829 10.8666 3.59829L1.94505 3.59829C1.36223 3.59829 0.875 4.08412 0.875 4.66527L0.875013 22.933C0.875013 23.5223 1.35409 24 1.94507 24L20.1019 24C20.6929 24 21.172 23.5223 21.172 22.933V14.1157C21.172 12.7396 19.0319 12.7396 19.0319 14.1157Z" fill="#21703C"/>
</g>
<defs>
<clipPath id="clip0_1634_7539">
<rect width="24" height="24" fill="white" transform="translate(0.875)"/>
</clipPath>
</defs>
</svg>
