<svg width="18" height="18" viewBox="0 0 18 18" fill="none" xmlns="http://www.w3.org/2000/svg">
<path d="M9.21241 0.899902C13.8829 0.899902 17.6691 4.5264 17.6691 8.9999C17.6691 13.4734 13.8829 17.0999 9.21241 17.0999C4.54188 17.0999 0.755676 13.4734 0.755676 8.9999C0.755676 4.5264 4.54188 0.899902 9.21241 0.899902ZM9.21241 7.3799H7.52106V8.9999H8.36674V11.4299H6.67539V13.0499H11.7494V11.4299H10.0581V8.1899C10.0581 7.74255 9.67946 7.3799 9.21241 7.3799ZM9.21241 4.1399C8.51183 4.1399 7.9439 4.68388 7.9439 5.3549C7.9439 6.02593 8.51183 6.5699 9.21241 6.5699C9.91299 6.5699 10.4809 6.02593 10.4809 5.3549C10.4809 4.68388 9.91299 4.1399 9.21241 4.1399Z" fill="#21703C"/>
</svg>
