<svg width="97" height="206" viewBox="0 0 97 206" fill="none" xmlns="http://www.w3.org/2000/svg">
<path d="M59.6534 40.6489C60.9503 39.6742 74.6844 38.9142 75.0434 40.8333C75.2229 41.7968 68.4917 43.3394 67.4996 43.3955C65.9663 43.48 58.4298 41.5662 59.6534 40.6489Z" fill="black"/>
<path d="M15.5173 70.7227C15.2426 69.103 25.8816 55.9845 27.4814 57.1077C28.2896 57.6773 25.9583 61.8221 25.3399 62.4997C24.38 63.5611 15.7577 72.1561 15.5173 70.7227Z" fill="black"/>
<path d="M54.5401 181.185C54.0568 183.459 41.3616 184.925 40.3066 183.165C39.7832 182.277 42.9238 179.95 44.7826 179.515C47.6813 178.836 54.8728 179.617 54.5401 181.185Z" fill="#201F1F"/>
<path d="M51.4182 167.448L50.7292 192.557L43.1009 192.614L39.5986 167.537L51.4182 167.448Z" fill="url(#paint0_linear_186_381)"/>
<path d="M66.5969 162.437C67.7328 164.05 55.4084 173.378 53.5735 172.621C52.6519 172.239 59.8504 165.204 61.0008 164.384C62.2573 163.491 65.7098 161.178 66.5969 162.437Z" fill="#201F1F"/>
<path d="M59.4942 157.081L73.9353 175.087L70.1248 181.059L53.8229 168.678L59.4942 157.081Z" fill="url(#paint1_linear_186_381)"/>
<path d="M71.377 171.944L67.5756 179.124L62.5596 175.318L67.9485 167.623L71.377 171.944Z" fill="#CCCCCC"/>
<path d="M56.6048 149.157C56.6048 149.157 65.9735 155.849 66.6723 162.606L56.1072 171.362L56.6048 149.157Z" fill="url(#paint2_linear_186_381)"/>
<path d="M72.1146 170.779C75.2229 172.888 77.9066 176.346 80.1974 177.724C81.3345 178.413 83.5194 178.802 79.9087 182.98C76.2981 187.159 64.0801 201.928 60.4473 199.879C56.8144 197.831 58.8971 190.071 60.4514 187.335C62.1596 184.322 67.2971 179.199 68.0258 175.74C68.7462 172.272 70.7542 169.857 72.1146 170.779Z" fill="url(#paint3_linear_186_381)"/>
<path d="M80.1896 177.732C80.1401 177.7 80.0823 177.644 80.016 177.563C79.9498 177.483 79.8753 177.386 79.8007 177.281C79.7841 177.257 79.7675 177.241 79.7509 177.217C79.61 177.023 79.4525 176.805 79.2871 176.62C79.1961 176.524 79.1053 176.435 79.0145 176.363C78.9238 176.299 78.8332 176.251 78.7429 176.243C78.6525 176.228 78.5706 176.244 78.4891 176.31C78.4075 176.367 78.3262 176.465 78.2536 176.628C76.7275 179.859 71.2883 188.495 63.4009 195.551C62.8224 196.067 62.3255 196.533 61.8856 196.941C61.6738 197.138 61.4702 197.326 61.291 197.497C60.7207 198.02 60.2725 198.413 59.8806 198.651C59.6438 198.799 59.5299 198.929 59.498 199.043C59.466 199.157 59.5078 199.262 59.5988 199.359C59.6898 199.455 59.8299 199.543 59.9864 199.631C60.0605 199.671 60.1346 199.711 60.217 199.751L60.2252 199.759C60.3076 199.799 60.3817 199.839 60.4476 199.879C60.9007 200.135 61.483 200.123 62.1705 199.915C62.8579 199.699 63.6422 199.271 64.4991 198.697C66.213 197.533 68.1929 195.751 70.1713 193.773C73.5502 190.399 76.9248 186.457 78.9658 184.074C79.3154 183.666 79.6326 183.299 79.8928 182.997C80.7955 181.952 81.339 181.146 81.6213 180.511C81.9037 179.876 81.9331 179.422 81.8155 179.066C81.6981 178.718 81.4338 178.477 81.1288 178.277C80.9722 178.181 80.8075 178.093 80.651 178.005C80.6345 177.997 80.6098 177.981 80.5933 177.973C80.4531 177.876 80.3132 177.804 80.1896 177.732Z" fill="white" stroke="#CCCCCC" stroke-width="0.164881"/>
<path d="M67.9425 182.106C68.0327 182.105 68.1144 182.056 68.163 181.974C68.2277 181.852 68.1856 181.706 68.0621 181.643C65.9537 180.523 64.5511 181.628 64.4941 181.677C64.3881 181.759 64.3728 181.914 64.4557 182.026C64.5467 182.131 64.7027 182.146 64.8087 182.064C64.8576 182.023 66.0238 181.123 67.8275 182.082C67.8604 182.098 67.9015 182.106 67.9425 182.106Z" fill="black"/>
<path d="M66.5613 183.859C66.6515 183.858 66.7332 183.809 66.7737 183.736C66.8384 183.614 66.7963 183.468 66.6809 183.404C65.7914 182.916 64.4677 182.513 63.2354 183.365C63.2191 183.373 63.211 183.382 63.2028 183.39C63.0885 183.455 63.0403 183.594 63.0986 183.715C63.1569 183.836 63.305 183.884 63.4276 183.826C63.452 183.809 63.4847 183.793 63.5174 183.768C64.3416 183.203 65.3261 183.22 66.4381 183.836C66.471 183.852 66.5203 183.859 66.5613 183.859Z" fill="black"/>
<path d="M62.079 185.498C62.12 185.498 62.1527 185.49 62.1936 185.473C62.2182 185.465 63.7137 184.716 65.2771 185.369C65.4006 185.425 65.5477 185.359 65.6042 185.237C65.6607 185.115 65.6022 184.969 65.4706 184.913C63.6849 184.165 62.026 184.996 61.9606 185.029C61.8381 185.095 61.7899 185.241 61.8565 185.362C61.8982 185.451 61.9887 185.499 62.079 185.498Z" fill="black"/>
<path d="M50.7731 190.732L42.9021 191.221L42.2349 186.483L50.9147 185.558L50.7731 190.732Z" fill="#CCCCCC"/>
<path d="M52.6637 189.048C53.4327 193.137 52.7963 197.966 53.4988 200.839C53.854 202.264 55.2637 204.288 49.0742 204.773C42.8846 205.249 21.4418 207.372 20.2108 202.922C18.9797 198.472 26.8206 193.969 30.2341 193.019C33.9914 191.977 42.1366 191.94 45.4753 189.775C48.814 187.609 52.3303 187.258 52.6637 189.048Z" fill="url(#paint4_linear_186_381)"/>
<path d="M52.8492 198.46C49.0615 199.818 37.8757 202.392 26.0099 201.808C25.1401 201.766 24.3771 201.739 23.7125 201.72C23.3843 201.706 23.0725 201.7 22.7935 201.686C21.9319 201.652 21.259 201.608 20.7578 201.499C20.4537 201.428 20.257 201.446 20.1427 201.511C20.0283 201.577 19.98 201.691 19.9729 201.845C19.9659 201.999 20.0082 202.177 20.0588 202.363C20.0841 202.452 20.1094 202.55 20.1429 202.638L20.143 202.647C20.1683 202.744 20.2018 202.833 20.2271 202.922C20.3789 203.472 20.8498 203.922 21.558 204.29C22.2744 204.658 23.2363 204.934 24.3698 205.145C26.6452 205.565 29.6403 205.705 32.7818 205.682C38.1463 205.657 43.9585 205.176 47.4754 204.89C48.082 204.837 48.6149 204.792 49.074 204.764C50.6235 204.647 51.6882 204.429 52.4243 204.147C53.1523 203.866 53.5435 203.531 53.7294 203.156C53.9153 202.79 53.9041 202.393 53.8191 201.996C53.7766 201.802 53.7177 201.6 53.6588 201.406C53.6504 201.381 53.642 201.357 53.6336 201.333C53.5831 201.163 53.5327 201.001 53.4905 200.847C53.4736 200.783 53.473 200.693 53.4885 200.58C53.4959 200.466 53.5195 200.336 53.543 200.19C53.551 200.158 53.5508 200.133 53.5587 200.101C53.6059 199.833 53.653 199.541 53.6673 199.265C53.6744 199.119 53.6733 198.973 53.656 198.851C53.6387 198.73 53.6051 198.625 53.5388 198.544C53.4808 198.463 53.3984 198.415 53.2917 198.4C53.1767 198.385 53.0292 198.402 52.8492 198.46Z" fill="white"/>
<path d="M52.8492 198.46C49.0615 199.818 37.8757 202.392 26.0099 201.808C25.1401 201.766 24.3771 201.739 23.7125 201.72C23.3843 201.706 23.0725 201.7 22.7935 201.686C21.9319 201.652 21.259 201.608 20.7578 201.499M52.8492 198.46C53.0292 198.402 53.1767 198.385 53.2917 198.4C53.3984 198.415 53.4808 198.463 53.5388 198.544C53.6051 198.625 53.6387 198.73 53.656 198.851C53.6733 198.973 53.6744 199.119 53.6673 199.265C53.653 199.541 53.6059 199.833 53.5587 200.101C53.5508 200.133 53.551 200.158 53.543 200.19C53.5195 200.336 53.4959 200.466 53.4885 200.58C53.473 200.693 53.4736 200.783 53.4905 200.847C53.5327 201.001 53.5831 201.163 53.6336 201.333C53.642 201.357 53.6504 201.381 53.6588 201.406C53.7177 201.6 53.7766 201.802 53.8191 201.996C53.9041 202.393 53.9153 202.79 53.7294 203.156C53.5435 203.531 53.1523 203.866 52.4243 204.147C51.6882 204.429 50.6235 204.647 49.074 204.764M52.8492 198.46L52.8409 198.444M20.7578 201.499L20.7577 201.482M20.7578 201.499C20.4537 201.428 20.257 201.446 20.1427 201.511C20.0283 201.577 19.98 201.691 19.9729 201.845C19.9659 201.999 20.0082 202.177 20.0588 202.363C20.0841 202.452 20.1094 202.55 20.1429 202.638L20.143 202.647C20.1683 202.744 20.2018 202.833 20.2271 202.922M20.2271 202.922L20.2107 202.922M20.2271 202.922C20.3789 203.472 20.8498 203.922 21.558 204.29C22.2744 204.658 23.2363 204.934 24.3698 205.145C26.6452 205.565 29.6403 205.705 32.7818 205.682C38.1463 205.657 43.9585 205.176 47.4754 204.89C48.082 204.837 48.6149 204.792 49.074 204.764M49.074 204.764L49.0741 204.781" stroke="#CCCCCC" stroke-width="0.164881"/>
<path d="M40.5169 194.791C40.5416 194.791 40.5661 194.782 40.5825 194.782C40.7134 194.741 40.7863 194.61 40.7524 194.473C39.9871 191.965 38.0168 191.745 37.9347 191.737C37.7951 191.722 37.6728 191.82 37.6657 191.958C37.6503 192.096 37.7496 192.209 37.8892 192.224C37.963 192.231 39.6133 192.43 40.2777 194.614C40.3114 194.727 40.4103 194.792 40.5169 194.791Z" fill="black"/>
<path d="M38.0262 195.101C38.0508 195.101 38.0671 195.093 38.0917 195.092C38.2227 195.059 38.3037 194.921 38.2617 194.791C37.9501 193.715 37.2346 192.374 35.5919 192.087C35.5672 192.079 35.5508 192.079 35.5426 192.079C35.4111 192.039 35.2803 192.105 35.2321 192.235C35.192 192.365 35.2587 192.503 35.3903 192.55C35.4232 192.558 35.456 192.566 35.5053 192.574C36.6224 192.768 37.3912 193.565 37.7788 194.933C37.8206 195.03 37.9195 195.102 38.0262 195.101Z" fill="black"/>
<path d="M35.8785 195.377C35.9113 195.377 35.9358 195.368 35.9686 195.36C36.0995 195.31 36.1558 195.164 36.1057 195.043C35.2951 193.062 33.3381 192.436 33.2559 192.413C33.1244 192.373 32.9855 192.447 32.9454 192.569C32.9053 192.699 32.9802 192.836 33.1035 192.876C33.12 192.884 34.9208 193.47 35.6395 195.225C35.6812 195.322 35.7719 195.378 35.8785 195.377Z" fill="black"/>
<path d="M24.2124 138.348C25.8833 143.476 31.9431 153.031 31.9431 153.031C31.9431 153.031 40.8025 129.044 49.6403 92.3596C50.4356 89.0453 36.1182 89.6799 36.1182 89.6799C36.1182 89.6799 20.6521 127.396 24.2124 138.348Z" fill="url(#paint5_linear_186_381)"/>
<path d="M49.3759 91.056C49.3759 91.056 31.481 136.323 31.5573 153.026C31.5916 160.867 31.8294 171.779 40.3066 183.173L54.5401 181.193C54.5401 181.193 60.9508 162.114 56.0519 143.314C55.959 142.958 73.1144 105.165 74.0166 97.5118C74.7876 90.9543 74.3263 91.7767 74.3263 91.7767L49.3759 91.056Z" fill="#3F3F3F"/>
<path d="M74.2493 42.2413C74.2493 42.2413 64.5628 43.4817 62.0744 42.0003L62.8106 36.262C62.8106 36.262 60.8655 36.1307 57.9987 34.4981C56.9607 33.9058 57.2434 32.2333 57.6471 31.3789C57.9944 30.6546 59.3611 28.0415 58.7898 27.3404C58.2185 26.6311 57.8538 26.1311 58.1148 25.9345C58.3758 25.738 60.3933 24.5957 60.4056 24.0442C60.4452 22.7709 60.9598 20.2939 60.9598 20.2939C60.9598 20.2939 63.6914 21.3843 64.6209 21.726C65.756 22.1391 66.402 22.9613 66.6262 23.3245C67.9139 25.4879 67.1751 27.6017 68.534 29.4159C70.4647 32.0043 69.502 29.433 71.4007 28.843C73.152 28.3028 72.7631 31.1275 72.3891 31.5682C71.4135 32.735 71.9868 32.6091 72.0583 33.3951C72.3526 36.539 73.286 41.7701 74.2493 42.2413Z" fill="#F4D4CD"/>
<path d="M71.859 32.043C71.859 32.043 68.9377 35.1868 67.2451 35.9049C65.6261 36.5901 62.7771 36.2385 62.7771 36.2385L62.1822 41.1324L64.9608 39.7493C64.9608 39.7493 67.8182 39.0305 69.0391 37.7645C70.4553 36.2862 71.859 32.043 71.859 32.043Z" fill="url(#paint6_linear_186_381)"/>
<path d="M76.2086 30.0643C77.2245 28.808 80.8601 24.6696 79.7463 20.5426C79.1725 18.4062 77.4387 19.1004 76.7997 17.0294C75.5386 12.944 71.9566 12.2087 68.8485 12.3132C66.6753 12.3863 61.5259 10.4627 60.0597 9.66283C56.6334 7.80738 57.5771 15.5034 60.3064 19.5697C61.7167 21.6673 66.3521 22.8731 66.4212 23.3266C67.3511 29.1903 69.5668 31.4927 70.0604 30.597C72.0437 27.0711 73.2382 29.9407 71.9001 31.986C71.6081 32.426 72.0678 33.5659 72.0678 33.5659C72.0678 33.5659 74.7944 31.8102 76.2086 30.0643Z" fill="url(#paint7_linear_186_381)"/>
<path d="M62.08 22.2653C62.3186 22.3609 62.5408 22.4565 62.7713 22.5683C62.9936 22.6801 63.2159 22.792 63.4302 22.9201C63.6444 23.0401 63.8504 23.1764 64.0566 23.3208C64.2546 23.4653 64.4526 23.626 64.6343 23.7868C64.6673 23.8109 64.6677 23.8595 64.6351 23.8922C64.6107 23.9167 64.5697 23.9251 64.5367 23.901C64.3388 23.7647 64.1409 23.6283 63.935 23.5163C63.7209 23.4044 63.5068 23.2925 63.2929 23.2049C63.0707 23.1093 62.8485 23.0218 62.6265 22.9424C62.4044 22.8629 62.166 22.7918 61.9441 22.7367L61.9359 22.7367C61.8044 22.7053 61.7213 22.5681 61.7614 22.438C61.7932 22.308 61.932 22.2259 62.0636 22.2655C62.0635 22.2574 62.0717 22.2573 62.08 22.2653Z" fill="black"/>
<path d="M61.591 24.7088C61.6076 24.733 61.6407 24.7652 61.6737 24.7974C61.7068 24.8296 61.7316 24.8537 61.7646 24.8859C61.8307 24.9422 61.8967 24.9984 61.9627 25.0547C62.103 25.1591 62.2513 25.2552 62.3996 25.3352C62.5561 25.4151 62.7206 25.4788 62.8931 25.518C63.0658 25.5654 63.2381 25.5722 63.4186 25.5789L63.4268 25.5789C63.4678 25.5786 63.5009 25.6107 63.5012 25.6513C63.5014 25.6837 63.477 25.7163 63.4361 25.7247C63.2476 25.7505 63.0509 25.7763 62.8539 25.7534C62.6569 25.7387 62.4598 25.6996 62.2788 25.6361C62.0897 25.5727 61.9086 25.493 61.7356 25.397C61.6532 25.3489 61.5627 25.301 61.4802 25.2448C61.439 25.2208 61.3978 25.1887 61.3565 25.1566C61.3152 25.1244 61.2822 25.1004 61.2327 25.0602C61.1336 24.9717 61.1243 24.8177 61.2137 24.7117C61.3032 24.6137 61.459 24.6044 61.5663 24.6928C61.5744 24.6846 61.5828 24.7008 61.591 24.7088Z" fill="black"/>
<path d="M58.9509 30.526C58.9921 30.55 59.0579 30.5658 59.1073 30.5897C59.1649 30.6136 59.2224 30.6294 59.2799 30.6452C59.395 30.6768 59.5101 30.7083 59.6333 30.7317C59.8715 30.7786 60.1096 30.8011 60.3474 30.7912C60.5852 30.7813 60.8228 30.739 61.0436 30.6482C61.2644 30.5654 61.4766 30.426 61.6559 30.2625C61.6885 30.2379 61.7295 30.2376 61.7626 30.2698C61.7874 30.2939 61.7877 30.3344 61.7633 30.3671C61.5925 30.5629 61.3887 30.7348 61.1436 30.8663C60.9067 30.9897 60.6448 31.0728 60.3826 31.1153C60.1205 31.1578 59.8416 31.168 59.579 31.1457C59.4477 31.1386 59.3081 31.1153 59.1767 31.0919C59.1109 31.0762 59.0452 31.0686 58.9795 31.0529C58.9137 31.0372 58.848 31.0214 58.774 30.9977C58.6425 30.9581 58.5758 30.8208 58.6158 30.6907C58.6559 30.5607 58.7948 30.4948 58.9264 30.5343C58.9345 30.518 58.9427 30.518 58.9509 30.526Z" fill="black"/>
<path d="M15.987 70.8148C15.987 70.8148 25.7501 77.6013 30.3084 78.3536C37.7658 79.5869 41.4721 73.9317 41.4721 73.9317L57.9641 42.833C57.9641 42.833 44.6325 48.0415 31.789 60.3414C30.5674 61.5101 28.7373 57.0317 27.4533 58.6307C23.4712 63.6068 15.987 70.8148 15.987 70.8148Z" fill="url(#paint8_linear_186_381)"/>
<path d="M75.0448 40.8327C75.0448 40.8327 68.809 44.9744 59.9672 40.7352C58.897 40.2243 59.7489 41.1504 57.9733 42.8341C49.5188 50.8359 36.6369 84.2265 35.3619 89.2066C34.7003 91.7739 73.3678 100.395 74.3721 97.5979C79.5065 83.3206 84.1855 46.6428 83.7302 46.1029C82.3729 44.4995 74.5658 43.6743 75.0448 40.8327Z" fill="url(#paint9_linear_186_381)"/>
<path d="M94.3703 82.4467C91.2433 93.133 78.2722 96.1009 78.2722 96.1009C78.2722 96.1009 70.9715 87.3417 69.1048 83.4393C68.1797 81.5083 77.5675 78.7295 77.5936 76.7427C77.6555 72.9717 75.1534 67.4848 75.4713 65.0255C76.0296 60.7238 80.4993 44.2379 83.7206 46.103C92.0747 50.9378 97.0574 73.2557 94.3703 82.4467Z" fill="url(#paint10_linear_186_381)"/>
<path d="M78.2726 96.1011C76.7017 96.6399 69.5908 89.1199 68.5449 87.4736C67.8558 86.3842 67.4962 82.1947 68.2792 82.6835C69.4989 83.4446 79.6635 95.6203 78.2726 96.1011Z" fill="black"/>
<path d="M81.624 89.3045C81.624 89.3045 76.9189 88.6588 68.619 95.3945C64.6892 98.5863 63.8336 100.433 60.6411 105.687C59.3528 107.805 57.9993 108.894 56.8132 108.246C54.9188 107.214 54.0043 102.315 57.0396 95.8058C57.0396 95.8058 52.2242 102.305 51.947 102.534C50.023 104.113 49.9969 100.643 55.101 93.2581C55.9449 92.0354 57.7823 89.8404 59.4794 88.6357C67.8347 82.7185 73.4581 81.1276 73.4581 81.1276L81.624 89.3045Z" fill="#EBCCC8"/>
<path d="M61.5911 98.9263C61.5911 98.9263 58.4859 103.782 58.3441 107.838" stroke="#E4C5BE" stroke-miterlimit="10" stroke-linecap="round" stroke-linejoin="round"/>
<path d="M59.1825 97.0795C59.1825 97.0795 56.2985 101.901 56.5958 107.624" stroke="#E4C5BE" stroke-miterlimit="10" stroke-linecap="round" stroke-linejoin="round"/>
<path d="M30.1728 60.4361C30.1728 60.4361 22.2574 55.0304 20.1084 50.6841C17.9594 46.3378 18.3147 44.4945 22.5481 39.1273C23.4581 37.969 23.5683 36.2573 20.8971 37.745C18.226 39.2327 13.8841 42.1682 8.8091 38.1439C3.81667 34.192 1.78173 33.0153 1.21395 33.871C0.775958 34.5311 3.12213 36.7352 5.34547 40.0592C5.34547 40.0592 4.79027 40.404 4.43491 41.1445C4.19261 41.6491 3.80017 41.8223 3.58791 43.0483C3.51707 43.4461 3.14991 43.7084 3.37728 44.4932C3.52889 45.0191 3.76623 46.039 3.85822 46.2735C5.19631 49.6852 23.5159 70.7678 23.5159 70.7678L30.1728 60.4361Z" fill="url(#paint11_linear_186_381)"/>
<path d="M12.8664 45.4035C12.8664 45.4035 12.6512 42.9645 15.1264 40.5052" stroke="#E4C5BE" stroke-linecap="round" stroke-linejoin="round"/>
<path d="M5.64092 40.0328C5.9438 39.9494 8.09461 37.9872 11.0629 44.3788C12.2051 46.8352 9.89515 45.0849 8.94444 44.1028" stroke="#E4C5BE" stroke-linecap="round" stroke-linejoin="round"/>
<path d="M4.80444 41.2398C4.92711 41.1902 6.88322 40.6079 8.90217 44.0227C10.1817 46.1943 9.68518 47.7954 7.1287 44.8955" stroke="#E4C5BE" stroke-linecap="round" stroke-linejoin="round"/>
<path d="M3.98983 43.0291C5.06227 42.7453 5.87425 42.7311 7.4951 45.5651C8.11856 46.6632 7.49167 47.2922 6.36755 46.1574C4.51602 44.282 4.91049 45.471 4.91049 45.471" stroke="#E4C5BE" stroke-linecap="round" stroke-linejoin="round"/>
<path d="M30.7467 60.277C22.8446 75.1994 21.6024 76.9034 17.7283 73.3161C16.0018 71.7155 15.3549 70.7716 15.5425 70.6243C17.0263 69.4131 22.0102 66.7647 27.4089 57.1073C27.5625 56.8061 30.7467 60.277 30.7467 60.277Z" fill="#FFDE82"/>
<path d="M74.1123 79.5258C82.3341 88.6024 88.6956 92.4387 82.6572 95.5734C78.2449 97.8688 77.0638 95.7046 76.6071 94.962C73.1193 89.296 69.0202 83.0508 68.1067 82.6603C67.72 82.493 72.7874 80.0547 74.1123 79.5258Z" fill="url(#paint12_linear_186_381)"/>
<path d="M9.54082 11.7585C9.54082 11.7585 11.4201 13.2595 13.0951 13.0693C17.3425 12.5876 20.3186 7.0611 19.3406 4.40514C19.0717 3.67327 18.7708 3.4743 17.2628 1.98234C15.972 0.713652 9.54082 11.7585 9.54082 11.7585Z" fill="url(#paint13_linear_186_381)"/>
<path d="M9.13392 7.1339C10.4063 2.76836 20.3896 -2.47938 16.8756 6.35369C13.8906 13.8807 7.05619 14.2872 9.13392 7.1339Z" fill="#FFDE82"/>
<path d="M13.5188 3.93895C13.3315 3.8302 13.0927 3.88973 12.9842 4.07217L11.8075 6.05117L11.469 5.85456C11.2818 5.74581 11.0429 5.80535 10.9345 5.98779C10.826 6.17023 10.8896 6.40548 11.0768 6.51423L11.4153 6.71084L11.2192 7.04067L10.8807 6.84406C10.6935 6.73531 10.4546 6.79485 10.3461 6.97729C10.2377 7.15972 10.3013 7.39498 10.4885 7.50373L10.827 7.70034L10.6308 8.03017C10.5224 8.21261 10.586 8.44786 10.7732 8.55661C10.9604 8.66536 11.1993 8.60583 11.3078 8.42339L11.5039 8.09355L13.1962 9.0766C13.3835 9.18535 13.6224 9.12581 13.7308 8.94337C13.8393 8.76093 13.7757 8.52568 13.5885 8.41693L11.8961 7.43389L12.0922 7.10405L13.2769 7.79219C14.1178 8.28064 15.1953 8.0121 15.6825 7.19268C16.1697 6.37325 15.8828 5.31214 15.0419 4.82369L13.5188 3.93895ZM13.6691 7.13252L12.4845 6.44439L13.465 4.79522L14.6497 5.48335C15.1172 5.75492 15.2764 6.34388 15.0055 6.79946C14.7347 7.25504 14.1366 7.40408 13.6691 7.13252Z" fill="url(#paint14_linear_186_381)"/>
<defs>
<linearGradient id="paint0_linear_186_381" x1="45.5051" y1="167.49" x2="45.6937" y2="192.595" gradientUnits="userSpaceOnUse">
<stop stop-color="#F4D4CD"/>
<stop offset="1" stop-color="#E1C3C1"/>
</linearGradient>
<linearGradient id="paint1_linear_186_381" x1="59.1161" y1="161.132" x2="66.5422" y2="178.3" gradientUnits="userSpaceOnUse">
<stop stop-color="#F4D4CD"/>
<stop offset="1" stop-color="#E1C3C1"/>
</linearGradient>
<linearGradient id="paint2_linear_186_381" x1="64.069" y1="167.941" x2="43.9676" y2="146.383" gradientUnits="userSpaceOnUse">
<stop stop-color="#3F3F3F"/>
<stop offset="1" stop-color="#201F1F"/>
</linearGradient>
<linearGradient id="paint3_linear_186_381" x1="70.5123" y1="172.57" x2="69.7823" y2="204.453" gradientUnits="userSpaceOnUse">
<stop stop-color="#36B35F"/>
<stop offset="0.9994" stop-color="#1D6A36"/>
</linearGradient>
<linearGradient id="paint4_linear_186_381" x1="37.0242" y1="194.388" x2="36.9698" y2="205.668" gradientUnits="userSpaceOnUse">
<stop stop-color="#36B35F"/>
<stop offset="1" stop-color="#1D6A36"/>
</linearGradient>
<linearGradient id="paint5_linear_186_381" x1="34.0959" y1="107.335" x2="48.2898" y2="147.228" gradientUnits="userSpaceOnUse">
<stop stop-color="#3F3F3F"/>
<stop offset="1" stop-color="#201F1F"/>
</linearGradient>
<linearGradient id="paint6_linear_186_381" x1="66.7683" y1="35.1538" x2="68.3974" y2="44.4329" gradientUnits="userSpaceOnUse">
<stop stop-color="#DEC1C0"/>
<stop offset="1" stop-color="#DEC1C0" stop-opacity="0"/>
</linearGradient>
<linearGradient id="paint7_linear_186_381" x1="76.1197" y1="28.6744" x2="61.4239" y2="6.98597" gradientUnits="userSpaceOnUse">
<stop stop-color="#201F1F"/>
<stop offset="1" stop-color="#3F3F3F"/>
</linearGradient>
<linearGradient id="paint8_linear_186_381" x1="38.0555" y1="61.115" x2="25.9963" y2="61.8421" gradientUnits="userSpaceOnUse">
<stop stop-color="#FFDE82"/>
<stop offset="1" stop-color="#F1BE66"/>
</linearGradient>
<linearGradient id="paint9_linear_186_381" x1="83.1811" y1="65.833" x2="31.1178" y2="76.9782" gradientUnits="userSpaceOnUse">
<stop offset="0.2706" stop-color="#FFDE82"/>
<stop offset="1" stop-color="#F1BE66"/>
</linearGradient>
<linearGradient id="paint10_linear_186_381" x1="82.3855" y1="71.275" x2="67.1716" y2="68.9143" gradientUnits="userSpaceOnUse">
<stop stop-color="#FFDE82"/>
<stop offset="1" stop-color="#F1BE66"/>
</linearGradient>
<linearGradient id="paint11_linear_186_381" x1="1.29174" y1="52.2655" x2="30.111" y2="52.049" gradientUnits="userSpaceOnUse">
<stop stop-color="#F4D4CD"/>
<stop offset="1" stop-color="#E1C4C2"/>
</linearGradient>
<linearGradient id="paint12_linear_186_381" x1="83.0962" y1="91.6872" x2="68.796" y2="83.8929" gradientUnits="userSpaceOnUse">
<stop stop-color="#FFDE82"/>
<stop offset="1" stop-color="#F1BE66"/>
</linearGradient>
<linearGradient id="paint13_linear_186_381" x1="9.50327" y1="7.52477" x2="19.5271" y2="7.44946" gradientUnits="userSpaceOnUse">
<stop offset="0.0178725" stop-color="#FFDE82"/>
<stop offset="0.8546" stop-color="#F1BE66"/>
</linearGradient>
<linearGradient id="paint14_linear_186_381" x1="22.2533" y1="7.12381" x2="14.2602" y2="12.6934" gradientUnits="userSpaceOnUse">
<stop stop-color="#F5BD67"/>
<stop offset="1" stop-color="#F5BD67"/>
</linearGradient>
</defs>
</svg>
