<svg width="25" height="24" viewBox="0 0 25 24" fill="none" xmlns="http://www.w3.org/2000/svg">
<g clipPath="url(#clip0_1634_7722)">
<path d="M24.5 1.06698C24.5 0.477704 24.0209 0 23.4299 0H16.4837C15.1037 0 15.1037 2.13396 16.4837 2.13396L20.8466 2.13396L8.84205 14.104C8.42416 14.5207 8.42416 15.1963 8.84205 15.613C9.25993 16.0296 9.93745 16.0296 10.3553 15.613L22.3599 3.6429V7.99323C22.3599 9.3693 24.5 9.3693 24.5 7.99323V1.06698Z" fill="white"/>
<path d="M18.6569 14.1157V21.866L2.64012 21.866L2.64011 5.73225L10.4916 5.73225C11.8717 5.73225 11.8717 3.59829 10.4916 3.59829L1.57005 3.59829C0.987232 3.59829 0.5 4.08412 0.5 4.66527L0.500013 22.933C0.500013 23.5223 0.979094 24 1.57007 24L19.7269 24C20.3179 24 20.797 23.5223 20.797 22.933V14.1157C20.797 12.7396 18.6569 12.7396 18.6569 14.1157Z" fill="white"/>
</g>
<defs>
<clipPath id="clip0_1634_7722">
<rect width="24" height="24" fill="white" transform="translate(0.5)"/>
</clipPath>
</defs>
</svg>
