<?xml version="1.0" encoding="utf-8"?>
<!-- Generator: Adobe Illustrator 21.0.1, SVG Export Plug-In . SVG Version: 6.00 Build 0)  -->
<svg version="1.1" id="OBJECTS" xmlns="http://www.w3.org/2000/svg" xmlns:xlink="http://www.w3.org/1999/xlink" x="0px" y="0px"
	 viewBox="0 0 129.5 129.5" style="enable-background:new 0 0 129.5 129.5;" xml:space="preserve">
<style type="text/css">
	.st0{fill:#B9C4E1;}
	.st1{fill:#F2F2F2;}
</style>
<g>
	<circle class="st0" cx="64.8" cy="64.8" r="64.8"/>
	<ellipse class="st1" cx="64.8" cy="56.5" rx="25.2" ry="34.9"/>
	<path class="st1" d="M64.4,89.1c-21.1,0-39.9,5.1-52.5,13c11.7,16.6,31,27.4,52.9,27.4c21.7,0,40.9-10.7,52.6-27
		C104.9,94.3,85.8,89.1,64.4,89.1z"/>
	<path class="st1" d="M68.6,105.9h-7.7c-5.3,0-9.6-4.3-9.6-9.6V74.4c0-5.3,4.3-9.6,9.6-9.6h7.7c5.3,0,9.6,4.3,9.6,9.6v21.9
		C78.2,101.6,73.9,105.9,68.6,105.9z"/>
	<path class="st1" d="M43.5,58.5c0.8,5.6-0.5,10.4-2.8,10.8c-2.3,0.4-4.8-3.8-5.5-9.4C34.5,54.3,35.8,49.4,38,49
		C40.3,48.6,42.8,52.9,43.5,58.5z"/>
	<path class="st1" d="M86,58.5c-0.8,5.6,0.5,10.4,2.8,10.8c2.3,0.4,4.8-3.8,5.5-9.4c0.8-5.6-0.5-10.4-2.8-10.8S86.7,52.9,86,58.5z"
		/>
	<path class="st1" d="M40.5,55.1c-0.8-5.6-1.7-11.2-2.5-16.8c-0.3-2-0.6-4.2,0.1-6.1c0.7-1.9,2.9-3.4,4.8-2.7
		c-0.8-3.9,3.5-6.8,7.3-8c6.3-2.2,13-3.3,19.6-2.4c6.6,0.9,13,3.8,17.5,8.7c1.4,1.6,2.6,3.3,3.3,5.3c1.3,3.8,0.5,8-0.4,12
		c-0.7,3.1-1.3,6.3-2,9.4c-0.2,0.7-0.3,1.5-0.8,2c-0.8,0.9-2.1,0.9-3.3,0.9c-12.5,0-25,0.1-37.5,0.1c-2.3,0-5.4-0.6-5.7-2.9"/>
</g>
</svg>
