<svg width="93" height="20" viewBox="0 0 93 20" fill="none" xmlns="http://www.w3.org/2000/svg">
<path d="M13.8457 6.43359H16.2715C17.3418 6.43359 18.1465 6.59375 18.6855 6.91406C19.2246 7.23438 19.4941 7.7793 19.4941 8.54883C19.4941 8.88086 19.4297 9.17969 19.3008 9.44531C19.1758 9.70703 18.9922 9.92383 18.75 10.0957C18.5078 10.2676 18.209 10.3867 17.8535 10.4531V10.5117C18.2285 10.5703 18.5605 10.6777 18.8496 10.834C19.1387 10.9902 19.3652 11.209 19.5293 11.4902C19.6934 11.7715 19.7754 12.1289 19.7754 12.5625C19.7754 13.0898 19.6523 13.5352 19.4062 13.8984C19.1641 14.2617 18.8203 14.5371 18.375 14.7246C17.9297 14.9082 17.4023 15 16.793 15H13.8457V6.43359ZM14.8418 10.1074H16.4824C17.2285 10.1074 17.7441 9.98438 18.0293 9.73828C18.3184 9.49219 18.4629 9.13281 18.4629 8.66016C18.4629 8.17188 18.291 7.82031 17.9473 7.60547C17.6074 7.39062 17.0645 7.2832 16.3184 7.2832H14.8418V10.1074ZM14.8418 10.9453V14.1504H16.623C17.3848 14.1504 17.9238 14.002 18.2402 13.7051C18.5566 13.4043 18.7148 13 18.7148 12.4922C18.7148 12.168 18.6426 11.8906 18.498 11.6602C18.3574 11.4297 18.127 11.2539 17.8066 11.1328C17.4902 11.0078 17.0664 10.9453 16.5352 10.9453H14.8418ZM21.457 15V8.57812H22.4355V11.2266H24.1934C24.7402 11.2266 25.1895 11.2949 25.541 11.4316C25.8965 11.5684 26.1602 11.7715 26.332 12.041C26.5039 12.3105 26.5898 12.6445 26.5898 13.043C26.5898 13.4414 26.5039 13.7871 26.332 14.0801C26.1641 14.373 25.8984 14.5996 25.5352 14.7598C25.1758 14.9199 24.707 15 24.1289 15H21.457ZM22.4355 14.209H24.0352C24.5195 14.209 24.9062 14.123 25.1953 13.9512C25.4844 13.7793 25.6289 13.4922 25.6289 13.0898C25.6289 12.6953 25.4941 12.4219 25.2246 12.2695C24.9551 12.1133 24.5684 12.0352 24.0645 12.0352H22.4355V14.209ZM27.6504 15V8.57812H28.623V15H27.6504ZM36.0586 8.57812V15H35.0801V9.41602H31.6582V15H30.6797V8.57812H36.0586ZM43.6582 11.7773C43.6582 12.3047 43.5898 12.7754 43.4531 13.1895C43.3164 13.6035 43.1191 13.9531 42.8613 14.2383C42.6035 14.5234 42.291 14.7422 41.9238 14.8945C41.5605 15.043 41.1484 15.1172 40.6875 15.1172C40.2578 15.1172 39.8633 15.043 39.5039 14.8945C39.1484 14.7422 38.8398 14.5234 38.5781 14.2383C38.3203 13.9531 38.1191 13.6035 37.9746 13.1895C37.834 12.7754 37.7637 12.3047 37.7637 11.7773C37.7637 11.0742 37.8828 10.4766 38.1211 9.98438C38.3594 9.48828 38.6992 9.11133 39.1406 8.85352C39.5859 8.5918 40.1152 8.46094 40.7285 8.46094C41.3145 8.46094 41.8262 8.5918 42.2637 8.85352C42.7051 9.11523 43.0469 9.49414 43.2891 9.99023C43.5352 10.4824 43.6582 11.0781 43.6582 11.7773ZM38.7715 11.7773C38.7715 12.293 38.8398 12.7402 38.9766 13.1191C39.1133 13.498 39.3242 13.791 39.6094 13.998C39.8945 14.2051 40.2617 14.3086 40.7109 14.3086C41.1562 14.3086 41.5215 14.2051 41.8066 13.998C42.0957 13.791 42.3086 13.498 42.4453 13.1191C42.582 12.7402 42.6504 12.293 42.6504 11.7773C42.6504 11.2656 42.582 10.8242 42.4453 10.4531C42.3086 10.0781 42.0977 9.78906 41.8125 9.58594C41.5273 9.38281 41.1582 9.28125 40.7051 9.28125C40.0371 9.28125 39.5469 9.50195 39.2344 9.94336C38.9258 10.3848 38.7715 10.9961 38.7715 11.7773ZM50.1562 15H49.166V9.39258H47.2148C47.1367 10.4043 47.0371 11.2715 46.916 11.9941C46.7988 12.7129 46.6504 13.3008 46.4707 13.7578C46.2949 14.2109 46.0801 14.5449 45.8262 14.7598C45.5762 14.9707 45.2773 15.0762 44.9297 15.0762C44.8242 15.0762 44.7246 15.0703 44.6309 15.0586C44.5371 15.0469 44.457 15.0273 44.3906 15V14.2617C44.4414 14.2773 44.4941 14.2891 44.5488 14.2969C44.6074 14.3047 44.668 14.3086 44.7305 14.3086C44.9062 14.3086 45.0664 14.2363 45.2109 14.0918C45.3594 13.9434 45.4922 13.7207 45.6094 13.4238C45.7305 13.127 45.8379 12.752 45.9316 12.2988C46.0254 11.8418 46.1074 11.3047 46.1777 10.6875C46.252 10.0664 46.3164 9.36328 46.3711 8.57812H50.1562V15ZM53.1855 8.57812V11.2734H56.7656V8.57812H57.7383V15H56.7656V12.0996H53.1855V15H52.207V8.57812H53.1855ZM62.2734 8.46094C62.8203 8.46094 63.2891 8.58203 63.6797 8.82422C64.0703 9.06641 64.3691 9.40625 64.5762 9.84375C64.7832 10.2773 64.8867 10.7852 64.8867 11.3672V11.9707H60.4512C60.4629 12.7246 60.6504 13.2988 61.0137 13.6934C61.377 14.0879 61.8887 14.2852 62.5488 14.2852C62.9551 14.2852 63.3145 14.248 63.627 14.1738C63.9395 14.0996 64.2637 13.9902 64.5996 13.8457V14.7012C64.2754 14.8457 63.9531 14.9512 63.6328 15.0176C63.3164 15.084 62.9414 15.1172 62.5078 15.1172C61.8906 15.1172 61.3516 14.9922 60.8906 14.7422C60.4336 14.4883 60.0781 14.1172 59.8242 13.6289C59.5703 13.1406 59.4434 12.543 59.4434 11.8359C59.4434 11.1445 59.5586 10.5469 59.7891 10.043C60.0234 9.53516 60.3516 9.14453 60.7734 8.87109C61.1992 8.59766 61.6992 8.46094 62.2734 8.46094ZM62.2617 9.25781C61.7422 9.25781 61.3281 9.42773 61.0195 9.76758C60.7109 10.1074 60.5273 10.582 60.4688 11.1914H63.8672C63.8633 10.8086 63.8027 10.4727 63.6855 10.1836C63.5723 9.89062 63.3984 9.66406 63.1641 9.50391C62.9297 9.33984 62.6289 9.25781 62.2617 9.25781ZM67.5176 8.57812V11.2734H71.0977V8.57812H72.0703V15H71.0977V12.0996H67.5176V15H66.5391V8.57812H67.5176ZM79.6699 11.7773C79.6699 12.3047 79.6016 12.7754 79.4648 13.1895C79.3281 13.6035 79.1309 13.9531 78.873 14.2383C78.6152 14.5234 78.3027 14.7422 77.9355 14.8945C77.5723 15.043 77.1602 15.1172 76.6992 15.1172C76.2695 15.1172 75.875 15.043 75.5156 14.8945C75.1602 14.7422 74.8516 14.5234 74.5898 14.2383C74.332 13.9531 74.1309 13.6035 73.9863 13.1895C73.8457 12.7754 73.7754 12.3047 73.7754 11.7773C73.7754 11.0742 73.8945 10.4766 74.1328 9.98438C74.3711 9.48828 74.7109 9.11133 75.1523 8.85352C75.5977 8.5918 76.127 8.46094 76.7402 8.46094C77.3262 8.46094 77.8379 8.5918 78.2754 8.85352C78.7168 9.11523 79.0586 9.49414 79.3008 9.99023C79.5469 10.4824 79.6699 11.0781 79.6699 11.7773ZM74.7832 11.7773C74.7832 12.293 74.8516 12.7402 74.9883 13.1191C75.125 13.498 75.3359 13.791 75.6211 13.998C75.9062 14.2051 76.2734 14.3086 76.7227 14.3086C77.168 14.3086 77.5332 14.2051 77.8184 13.998C78.1074 13.791 78.3203 13.498 78.457 13.1191C78.5938 12.7402 78.6621 12.293 78.6621 11.7773C78.6621 11.2656 78.5938 10.8242 78.457 10.4531C78.3203 10.0781 78.1094 9.78906 77.8242 9.58594C77.5391 9.38281 77.1699 9.28125 76.7168 9.28125C76.0488 9.28125 75.5586 9.50195 75.2461 9.94336C74.9375 10.3848 74.7832 10.9961 74.7832 11.7773Z" fill="#7FC008"/>
<rect x="1" y="0.5" width="91" height="19" rx="3.5" stroke="#7FC008"/>
</svg>
