<svg width="873" height="1103" viewBox="0 0 873 1103" fill="none" xmlns="http://www.w3.org/2000/svg">
<g filter="url(#filter0_f_48_673)">
<path d="M630.075 806.561C629.034 810.657 668.329 814.313 717.844 814.728C767.359 815.143 808.343 812.16 809.384 808.064C810.425 803.969 771.129 800.312 721.614 799.897C672.099 799.482 631.116 802.466 630.075 806.561Z" fill="#959595" fill-opacity="0.2"/>
</g>
<path d="M728.978 751.76C728.716 755.677 758.723 760.03 761.02 756.931C762.171 755.371 743.038 750.057 740.288 749.74C737.287 749.398 729.185 748.703 728.978 751.76Z" fill="#201F1F"/>
<path d="M728.95 731.306L733.404 784.231L749.2 788.329L756.745 741.967L728.95 731.306Z" fill="url(#paint0_linear_48_673)"/>
<path d="M732.687 774.935L750.379 781.082L752.706 766.823L731.557 762.293L732.687 774.935Z" fill="#CCCCCC"/>
<path d="M729.617 774.126C727.78 782.542 728.785 792.567 727.151 798.471C726.348 801.411 723.327 805.484 735.951 806.874C748.575 808.263 792.287 814.023 795.093 804.888C797.9 795.753 782.153 785.941 775.235 783.765C767.623 781.362 750.963 780.772 744.274 776.084C737.587 771.37 730.422 770.444 729.617 774.126Z" fill="url(#paint1_linear_48_673)"/>
<path d="M727.178 798.472C727.21 798.34 727.217 798.155 727.2 797.916C727.183 797.676 727.154 797.397 727.112 797.103C727.101 797.037 727.103 796.984 727.093 796.917C727.021 796.37 726.938 795.757 726.921 795.186C726.919 794.881 726.93 794.59 726.967 794.326C727.017 794.076 727.091 793.853 727.23 793.7C727.356 793.532 727.519 793.432 727.758 793.415C727.985 793.384 728.275 793.422 728.654 793.582C736.307 796.636 759.029 802.672 783.328 802.218C785.106 802.181 786.671 802.188 788.05 802.189C788.713 802.188 789.35 802.186 789.92 802.195C791.697 802.184 793.065 802.144 794.094 801.931C794.722 801.81 795.118 801.852 795.351 801.993C795.585 802.135 795.681 802.377 795.683 802.682C795.684 802.987 795.591 803.355 795.469 803.748C795.409 803.932 795.349 804.115 795.275 804.311L795.274 804.337C795.2 804.534 795.14 804.717 795.094 804.887C794.745 806.028 793.756 806.918 792.282 807.643C790.796 808.355 788.814 808.862 786.478 809.236C781.783 809.956 775.665 810.052 769.243 809.817C758.278 809.42 746.422 808.06 739.252 807.24C738.024 807.099 736.915 806.977 736.004 806.876C732.848 806.528 730.666 806.02 729.192 805.392C727.718 804.765 726.95 804.046 726.582 803.263C726.227 802.493 726.286 801.673 726.476 800.858C726.585 800.451 726.72 800.045 726.841 799.652C726.856 799.613 726.872 799.547 726.886 799.508C726.967 799.127 727.087 798.787 727.178 798.472Z" fill="white" stroke="#CCCCCC" stroke-width="0.180102"/>
<path d="M754.489 786.677C754.338 786.817 754.124 786.862 753.914 786.8C753.613 786.696 753.453 786.385 753.557 786.084C755.296 780.899 759.38 780.566 759.553 780.56C759.859 780.532 760.128 780.768 760.169 781.088C760.183 781.406 759.947 781.676 759.641 781.704C759.495 781.711 756.128 782.019 754.644 786.457C754.614 786.536 754.558 786.613 754.489 786.677Z" fill="black"/>
<path d="M759.564 787.469C759.413 787.609 759.199 787.654 759.016 787.594C758.715 787.489 758.555 787.178 758.645 786.89C759.354 784.676 760.919 781.925 764.32 781.433C764.36 781.421 764.386 781.422 764.413 781.423C764.707 781.355 765.006 781.513 765.101 781.808C765.196 782.103 765.024 782.415 764.729 782.51C764.662 782.52 764.582 782.544 764.489 782.554C762.221 782.89 760.609 784.459 759.733 787.237C759.703 787.315 759.633 787.405 759.564 787.469Z" fill="black"/>
<path d="M769.622 783.216C769.553 783.28 769.485 783.317 769.391 783.353C769.337 783.378 765.662 784.456 764.093 788.002C763.976 788.29 763.626 788.409 763.339 788.292C763.052 788.174 762.919 787.838 763.05 787.538C764.838 783.483 768.915 782.287 769.076 782.24C769.384 782.16 769.696 782.331 769.777 782.639C769.848 782.854 769.773 783.076 769.622 783.216Z" fill="black"/>
<path d="M661.789 751.955C663.501 756.114 693.503 754.966 695.512 751.306C696.506 749.462 688.579 746.025 684.129 745.774C677.19 745.385 660.609 749.088 661.789 751.955Z" fill="#201F1F"/>
<path d="M663.414 717.875L664.382 779.422L682.858 779.769L692.042 718.413L663.414 717.875Z" fill="url(#paint2_linear_48_673)"/>
<path d="M663.62 783.214L682.341 785.601L685.127 764.768L664.128 762.266L663.62 783.214Z" fill="#CCCCCC"/>
<path d="M663.062 781.465C661.735 791.571 656.514 799.349 655.19 806.471C654.517 810.002 654.997 820.059 669.749 816.456C677.505 814.562 683.193 813.825 687.108 812.407C705.132 805.877 687.674 801.529 683.987 782.238C675.628 777.371 663.634 777.043 663.062 781.465Z" fill="url(#paint3_linear_48_673)"/>
<path d="M654.667 809.843C663.07 816.35 666.957 815.632 678.169 814.37C696.39 812.319 693.513 804.756 694.718 803.572C696.803 806.991 694.38 813.012 693.446 813.977C690.598 816.92 686.964 817.939 678.216 819.61C670.39 821.106 662.966 819.66 659.317 816.82C657.225 815.192 656.178 814.378 654.667 809.843Z" fill="white" stroke="#CCCCCC" stroke-width="0.180102" stroke-linejoin="round"/>
<path d="M668.303 786.075C668.259 786.027 668.23 785.964 668.2 785.933C668.041 785.604 668.159 785.225 668.487 785.038C674.731 781.913 678.76 785.304 678.925 785.449C679.209 785.69 679.243 786.105 678.99 786.372C678.751 786.655 678.352 786.67 678.067 786.429C677.918 786.301 674.516 783.486 669.082 786.212C668.802 786.354 668.497 786.282 668.303 786.075Z" fill="black"/>
<path d="M668.252 790.566C668.196 790.517 668.173 790.468 668.117 790.419C667.877 790.093 667.94 789.642 668.269 789.451C670.915 787.79 674.962 786.36 679.242 788.965C679.313 788.996 679.35 789.028 679.369 789.045C679.741 789.218 679.922 789.613 679.799 789.982C679.657 790.334 679.258 790.494 678.871 790.337C678.782 790.289 678.692 790.242 678.565 790.162C675.657 788.388 672.465 788.566 669.121 790.694C668.851 790.817 668.495 790.776 668.252 790.566Z" fill="black"/>
<path d="M667.948 794.691C667.869 794.631 667.824 794.568 667.758 794.491C667.522 794.146 667.624 793.725 667.942 793.55C673.123 790.687 678.876 792.855 679.114 792.952C679.496 793.103 679.712 793.516 679.611 793.855C679.496 794.211 679.092 794.376 678.729 794.24C678.676 794.227 673.365 792.255 668.774 794.79C668.516 794.926 668.205 794.885 667.948 794.691Z" fill="black"/>
<path d="M748.675 544.064C748.675 544.064 763.851 605.727 767.388 658.336C766.602 676.441 763.092 756.861 760.86 756.861C758.628 756.861 729.109 753.623 728.887 752.004C726.188 732.402 723.446 717.632 719.813 664.734C718.253 659.793 712.079 579.513 696.654 559.308C695.485 544.095 691.65 543.513 691.65 543.513L748.675 544.064Z" fill="#3F3F3F"/>
<path d="M723.918 557.837C723.918 557.837 710.466 629.137 706.051 672.019C703.462 697.17 696.507 751.6 695.293 751.6C694.079 751.6 662.745 751.802 661.7 751.6C660.925 751.45 652.863 710.724 661.667 662.461C661.667 662.461 656.488 566.178 661.667 549.14C666.109 534.543 670.995 536.592 670.995 536.592L723.918 557.837Z" fill="#3F3F3F"/>
<path d="M707.996 426.354C705.653 423.764 677.842 418.226 676.506 422.521C675.837 424.678 689.1 430.071 691.109 430.474C694.214 431.091 710.206 428.793 707.996 426.354Z" fill="black"/>
<path d="M705.644 431.61C705.644 431.61 685.301 433.576 679.344 430.649L679.888 417.291C679.888 417.291 675.434 417.367 668.586 414.166C666.106 413.004 666.42 409.098 667.17 407.051C667.818 405.316 670.413 399.032 668.975 397.529C667.534 396.007 666.605 394.926 667.161 394.423C667.716 393.92 672.083 390.896 672.002 389.624C671.841 386.684 672.524 380.88 672.524 380.88C672.524 380.88 678.957 382.859 681.14 383.465C683.806 384.195 685.439 385.963 686.021 386.756C689.379 391.487 688.114 396.499 691.566 400.412C696.471 405.996 693.773 400.263 697.978 398.534C701.858 396.95 701.53 403.53 700.766 404.618C698.775 407.495 700.055 407.093 700.373 408.889C701.664 416.072 703.358 430.712 705.644 431.61Z" fill="#F4D4CD"/>
<path d="M699.654 405.813C699.654 405.813 693.625 413.621 689.914 415.604C686.363 417.497 679.809 417.242 679.809 417.242L679.42 428.627L685.472 424.901C685.472 424.901 691.835 422.69 694.364 419.537C697.296 415.857 699.654 405.813 699.654 405.813Z" fill="url(#paint4_linear_48_673)"/>
<path d="M709.165 400.41C711.229 397.319 718.689 387.081 715.339 377.794C713.611 372.986 709.802 374.922 707.938 370.278C704.261 361.115 695.962 360.119 688.908 360.965C683.975 361.556 671.874 358.129 668.378 356.572C660.213 352.967 663.879 370.505 670.895 379.338C674.519 383.894 685.309 385.768 685.555 386.799C688.829 400.121 694.327 404.992 695.274 402.833C699.093 394.327 702.379 400.703 699.736 405.673C699.158 406.744 700.43 409.279 700.43 409.279C700.43 409.279 706.29 404.705 709.165 400.41Z" fill="url(#paint5_linear_48_673)"/>
<path d="M675.747 391.648C676.426 392.073 677.158 392.421 677.957 392.534C678.359 392.609 678.753 392.591 679.165 392.572C679.263 392.563 679.357 392.616 679.367 392.722C679.374 392.797 679.325 392.877 679.234 392.904C678.81 393 678.367 393.098 677.914 393.084C677.01 393.092 676.118 392.853 675.298 392.48C674.878 392.279 674.471 392.067 674.087 391.803C673.844 391.618 673.792 391.266 673.975 391.004C674.159 390.761 674.512 390.709 674.774 390.892C674.778 390.886 675.666 391.589 675.747 391.648Z" fill="black"/>
<path d="M675.464 385.2C677.646 385.874 679.749 386.831 681.578 388.207C681.658 388.256 681.669 388.368 681.601 388.449C681.55 388.511 681.459 388.538 681.379 388.489C679.501 387.405 677.389 386.66 675.247 386.312C674.929 386.342 674.716 385.925 674.772 385.66C674.807 385.432 675.229 385.006 675.464 385.2Z" fill="black"/>
<path d="M669.972 404.835C670.203 404.946 670.493 404.998 670.744 405.045C671.557 405.198 672.377 405.28 673.203 405.174C674.314 405.032 675.32 404.531 676.077 403.701C676.146 403.638 676.24 403.63 676.321 403.697C676.383 403.748 676.391 403.842 676.342 403.921C675.61 404.935 674.554 405.608 673.347 405.913C672.445 406.142 671.52 406.18 670.597 406.094C670.284 406.046 669.972 406.028 669.662 405.955C669.355 405.89 669.176 405.587 669.241 405.279C669.29 405.049 669.526 404.621 669.972 404.835Z" fill="black"/>
<path d="M772.247 490.343C791.498 517.91 780.204 545.604 756.332 533.668C716.845 508.848 748.16 521.707 741.664 495.154C737.642 478.716 710.095 429.588 710.095 429.588C726.689 437.278 752.996 462.776 772.247 490.343Z" fill="url(#paint6_linear_48_673)"/>
<path d="M676.507 422.521C676.507 422.521 686.218 430.398 707.264 426.756C709.287 425.137 709.032 428.423 712.525 432.826C729.165 453.758 749.9 533.738 751.23 545.536C751.926 551.619 661.699 559.437 660.299 552.722C653.136 518.444 654 433.007 655.199 431.911C658.772 428.658 676.704 429.176 676.507 422.521Z" fill="url(#paint7_linear_48_673)"/>
<path d="M619.759 511.858C623.5 537.294 664.379 540.299 664.379 540.299C664.379 540.299 675.734 520.219 681.179 511.858C683.876 507.721 658.958 508.527 659.52 503.969C660.557 495.314 667.935 483.521 667.984 477.791C668.064 467.767 663.095 428.636 655.22 431.914C634.798 440.409 616.547 489.982 619.759 511.858Z" fill="url(#paint8_linear_48_673)"/>
<path d="M814.07 469.32C810.298 467.169 727.971 453.607 726.775 455.271C724.122 458.961 696.499 509.073 696.499 509.073L785.801 523.445C785.801 523.445 815.493 470.132 814.07 469.32Z" fill="url(#paint9_linear_48_673)"/>
<path d="M785.801 523.445L658.872 503.018L658.387 506.028L784.394 525.792L785.801 523.445Z" fill="url(#paint10_linear_48_673)"/>
<path d="M667.361 542.805C671.137 543.193 683.138 524.208 684.627 520.291C685.606 517.7 684.267 508.805 682.772 510.189C680.443 512.344 664.017 542.453 667.361 542.805Z" fill="black"/>
<path d="M695.417 511.925L669.394 507.952L660.847 530.412C671.397 531.188 695.129 528.185 699.552 529.443C708.75 532.059 717.999 530.834 724.576 530.412C732.263 529.919 737.073 528.823 742.017 524.34C750.105 517.006 734.798 516.813 726.134 517.633C743.344 514.151 742.446 510.444 739.845 509.026C723.475 513.247 712.751 511.822 709.436 510.582C713.686 497.788 710.03 495.157 707.671 495.44C706.881 499.585 704.559 506.757 702.512 507.658C700.432 508.574 696.935 509.847 695.417 511.925Z" fill="#EBCCC8"/>
<path d="M743.404 520.49C743.404 520.49 733.105 524.036 726.228 522.007" stroke="#E4C5BE" stroke-width="1.09231" stroke-miterlimit="10" stroke-linecap="round" stroke-linejoin="round"/>
<path d="M738.183 525.907C738.183 525.907 730.764 528.418 725.639 527.06" stroke="#E4C5BE" stroke-width="1.09231" stroke-miterlimit="10" stroke-linecap="round" stroke-linejoin="round"/>
<path d="M667.477 507.582C653.796 530.328 642.271 540.042 657.327 543.751C668.331 546.471 669.856 541.412 670.495 539.652C675.371 526.221 681.313 511.298 683.149 510.058C683.925 509.529 670.699 508.065 667.477 507.582Z" fill="url(#paint11_linear_48_673)"/>
<ellipse cx="401.624" cy="67.5531" rx="26.6387" ry="26.5531" fill="#DCDDDD" stroke="#DCDDDD" stroke-width="3" stroke-linejoin="round"/>
<path d="M401.625 104.728C382.499 104.728 359.003 128.625 359.003 128.625C374.986 131.281 430.928 131.281 444.247 128.625C444.247 128.625 420.751 104.728 401.625 104.728Z" fill="#DCDDDD" stroke="#DCDDDD" stroke-width="3" stroke-linecap="round" stroke-linejoin="round"/>
<path d="M651.752 198.178L681.311 168.714M681.311 168.714L659.813 168.714M681.311 168.714L681.311 190.143" stroke="#DCDDDD" stroke-width="3" stroke-linecap="round" stroke-linejoin="round"/>
<path d="M717.007 237.549H701.806V180.728H717.007V237.549Z" stroke="#DCDDDD" stroke-width="3" stroke-linecap="round" stroke-linejoin="round"/>
<path d="M690.412 237.549H675.211V207.245H690.412V237.549Z" stroke="#DCDDDD" stroke-width="3" stroke-linecap="round" stroke-linejoin="round"/>
<path d="M663.801 237.549H648.6V222.396H663.801V237.549Z" fill="#DCDDDD" stroke="#DCDDDD" stroke-width="3" stroke-linecap="round" stroke-linejoin="round"/>
<path d="M90.2904 13.6007C100.056 13.6007 109.663 16.0586 118.221 20.7465C126.78 25.4343 134.012 32.2004 139.247 40.4172C144.483 48.634 147.552 58.0356 148.171 67.75C148.789 77.4645 146.936 87.1773 142.785 95.9878C138.633 104.798 132.317 112.421 124.422 118.15C116.526 123.878 107.308 127.527 97.6207 128.757C87.9337 129.987 78.0918 128.76 69.0077 125.188C59.9236 121.615 51.8914 115.815 45.656 108.324L90.2904 71.4107L90.2904 13.6007Z" stroke="#DCDDDD" stroke-width="3" stroke-linejoin="round"/>
<path d="M22.9084 94.1616C16.7675 86.2135 12.9506 76.7279 11.8796 66.7528C10.8085 56.7778 12.5251 46.7018 16.8395 37.6383C21.1539 28.5749 27.8982 20.8768 36.3271 15.395C44.756 9.91306 54.5413 6.86075 64.6016 6.57533L66.1546 60.9627L22.9084 94.1616Z" fill="#DCDDDD" stroke="#DCDDDD" stroke-width="3" stroke-linejoin="round"/>
<ellipse cx="337.896" cy="1007" rx="12.8957" ry="12.8542" fill="#DCDDDD" stroke="#DCDDDD" stroke-width="3" stroke-linejoin="round"/>
<path d="M399.79 989L397.216 1009.57C399.795 1009.57 415.265 1019.85 415.265 1035.28H423.002V1055.84H412.686L404.948 1066.13C406.668 1070.41 408.043 1079.49 399.79 1081.55C389.473 1084.12 387.754 1075.55 386.894 1071.27C376.578 1073.32 365.401 1072.12 361.103 1071.27C358.524 1076.41 358.524 1084.12 348.207 1081.55C340.47 1079.62 337.896 1076.41 340.475 1066.13C333.531 1056.9 329.061 1046.91 330.45 1035.28C342.389 1037.85 366.267 1035.28 366.267 1004.42C371.877 1004.43 377.281 1004.21 381.741 1004.42C385.868 992.084 394.637 991.571 399.79 989Z" stroke="#DCDDDD" stroke-width="3" stroke-linecap="round" stroke-linejoin="round"/>
<path d="M641 1015V939H717.245V1015H641Z" stroke="#DCDDDD" stroke-width="3" stroke-linecap="round" stroke-linejoin="round"/>
<path d="M657.942 993.89L670.65 964.334L687.593 981.223L698.183 960.112" stroke="#DCDDDD" stroke-width="3" stroke-linecap="round" stroke-linejoin="round"/>
<ellipse cx="699.221" cy="958.806" rx="2.31046" ry="2.30303" fill="#DCDDDD" stroke="#DCDDDD" stroke-width="3" stroke-linejoin="round"/>
<ellipse cx="658.097" cy="992.89" rx="2.31046" ry="2.30303" stroke="#DCDDDD" stroke-width="3" stroke-linejoin="round"/>
<ellipse cx="670.574" cy="965.254" rx="2.31046" ry="2.30303" stroke="#DCDDDD" stroke-width="3" stroke-linejoin="round"/>
<ellipse cx="687.207" cy="979.534" rx="2.31046" ry="2.30303" fill="#DCDDDD" stroke="#DCDDDD" stroke-width="3" stroke-linejoin="round"/>
<path d="M2.00002 1017.92L107.438 1017.92L107.438 1100.92L2.14208 1100.92L2.14209 986L107.438 986L107.437 1017.19" stroke="#DCDDDD" stroke-width="3" stroke-linecap="round" stroke-linejoin="round"/>
<ellipse cx="24.9792" cy="1046.51" rx="8.85227" ry="9.66123" stroke="#DCDDDD" stroke-width="3" stroke-linejoin="round"/>
<ellipse cx="24.9792" cy="1079.05" rx="8.85227" ry="9.66123" stroke="#DCDDDD" stroke-width="3" stroke-linejoin="round"/>
<ellipse cx="55.2562" cy="1079.05" rx="9.31818" ry="9.66123" stroke="#DCDDDD" stroke-width="3" stroke-linejoin="round"/>
<ellipse cx="86.0115" cy="1079.05" rx="9.31818" ry="9.66123" fill="#DCDDDD" stroke="#DCDDDD" stroke-width="3" stroke-linejoin="round"/>
<ellipse cx="55.7234" cy="1046.51" rx="8.85227" ry="9.66123" stroke="#DCDDDD" stroke-width="3" stroke-linejoin="round"/>
<ellipse cx="86.4782" cy="1046.51" rx="8.85227" ry="9.66123" stroke="#DCDDDD" stroke-width="3" stroke-linejoin="round"/>
<defs>
<filter id="filter0_f_48_673" x="626.169" y="795.974" width="187.119" height="22.6781" filterUnits="userSpaceOnUse" color-interpolation-filters="sRGB">
<feFlood flood-opacity="0" result="BackgroundImageFix"/>
<feBlend mode="normal" in="SourceGraphic" in2="BackgroundImageFix" result="shape"/>
<feGaussianBlur stdDeviation="1.94235" result="effect1_foregroundBlur_48_673"/>
</filter>
<linearGradient id="paint0_linear_48_673" x1="735.991" y1="737.538" x2="750.46" y2="778.196" gradientUnits="userSpaceOnUse">
<stop stop-color="#F4D4CD"/>
<stop offset="1" stop-color="#E1C3C1"/>
</linearGradient>
<linearGradient id="paint1_linear_48_673" x1="735.119" y1="774.636" x2="786.828" y2="827.162" gradientUnits="userSpaceOnUse">
<stop stop-color="#36B35F"/>
<stop offset="0.9994" stop-color="#1D6A36"/>
</linearGradient>
<linearGradient id="paint2_linear_48_673" x1="677.736" y1="718.139" x2="676.579" y2="779.652" gradientUnits="userSpaceOnUse">
<stop stop-color="#F4D4CD"/>
<stop offset="1" stop-color="#E1C3C1"/>
</linearGradient>
<linearGradient id="paint3_linear_48_673" x1="697.486" y1="789.173" x2="699.098" y2="816.77" gradientUnits="userSpaceOnUse">
<stop stop-color="#36B35F"/>
<stop offset="1" stop-color="#1D6A36"/>
</linearGradient>
<linearGradient id="paint4_linear_48_673" x1="688.68" y1="413.967" x2="694.299" y2="434.997" gradientUnits="userSpaceOnUse">
<stop stop-color="#DEC1C0"/>
<stop offset="1" stop-color="#DEC1C0" stop-opacity="0"/>
</linearGradient>
<linearGradient id="paint5_linear_48_673" x1="708.688" y1="397.226" x2="670.457" y2="350.55" gradientUnits="userSpaceOnUse">
<stop stop-color="#201F1F"/>
<stop offset="1" stop-color="#3F3F3F"/>
</linearGradient>
<linearGradient id="paint6_linear_48_673" x1="726.859" y1="422.153" x2="844.634" y2="554.499" gradientUnits="userSpaceOnUse">
<stop stop-color="#FFDE82"/>
<stop offset="1" stop-color="#F1BE66"/>
</linearGradient>
<linearGradient id="paint7_linear_48_673" x1="660.485" y1="473.149" x2="706.219" y2="566.236" gradientUnits="userSpaceOnUse">
<stop stop-color="#FFDE82"/>
<stop offset="1" stop-color="#F1BE66"/>
</linearGradient>
<linearGradient id="paint8_linear_48_673" x1="653.604" y1="488.123" x2="685.56" y2="489.385" gradientUnits="userSpaceOnUse">
<stop stop-color="#FFDE82"/>
<stop offset="1" stop-color="#F1BE66"/>
</linearGradient>
<linearGradient id="paint9_linear_48_673" x1="721.811" y1="456.592" x2="755.32" y2="540.344" gradientUnits="userSpaceOnUse">
<stop stop-color="#6B7072"/>
<stop offset="1" stop-color="#353232"/>
</linearGradient>
<linearGradient id="paint10_linear_48_673" x1="678.086" y1="506.285" x2="677.367" y2="511.653" gradientUnits="userSpaceOnUse">
<stop stop-color="#6B7072"/>
<stop offset="1" stop-color="#353232"/>
</linearGradient>
<linearGradient id="paint11_linear_48_673" x1="656.846" y1="543.568" x2="672.365" y2="509.165" gradientUnits="userSpaceOnUse">
<stop stop-color="#FFDE82"/>
<stop offset="1" stop-color="#F1BE66"/>
</linearGradient>
</defs>
</svg>
