<svg width="1204" height="756" viewBox="0 0 1204 756" fill="none" xmlns="http://www.w3.org/2000/svg">
<ellipse cx="200.957" cy="61.5425" rx="25.6251" ry="25.5427" fill="#DCDDDD" stroke="#DCDDDD" stroke-width="3" stroke-linejoin="round"/>
<path d="M200.958 97.3024C182.56 97.3024 159.958 120.291 159.958 120.291C175.333 122.845 229.145 122.845 241.958 120.291C241.958 120.291 219.356 97.3024 200.958 97.3024Z" fill="#DCDDDD" stroke="#DCDDDD" stroke-width="3" stroke-linecap="round" stroke-linejoin="round"/>
<ellipse cx="1114.31" cy="585.303" rx="11.9459" ry="11.9075" fill="#DCDDDD" stroke="#DCDDDD" stroke-width="3" stroke-linejoin="round"/>
<path d="M1171.64 568.632L1169.26 587.684C1171.64 587.684 1185.98 597.21 1185.98 611.499H1193.14V630.551H1183.59L1176.42 640.077C1178.01 644.046 1179.29 652.461 1171.64 654.366C1162.08 656.747 1160.49 648.809 1159.69 644.84C1150.14 646.745 1139.78 645.634 1135.8 644.84C1133.41 649.603 1133.41 656.747 1123.86 654.366C1116.69 652.58 1114.3 649.603 1116.69 640.077C1110.26 631.528 1106.12 622.278 1107.41 611.499C1118.47 613.881 1140.59 611.499 1140.59 582.921C1145.78 582.93 1150.79 582.724 1154.92 582.92C1158.74 571.489 1166.87 571.014 1171.64 568.632Z" stroke="#DCDDDD" stroke-width="3" stroke-linecap="round" stroke-linejoin="round"/>
<path d="M1060.27 78.886L1092.46 46.8039M1092.46 46.8039L1069.05 46.8039M1092.46 46.8039L1092.46 70.1363" stroke="#DCDDDD" stroke-width="3" stroke-linecap="round" stroke-linejoin="round"/>
<path d="M1131.33 121.755H1114.77V59.8854H1131.33V121.755Z" stroke="#DCDDDD" stroke-width="3" stroke-linecap="round" stroke-linejoin="round"/>
<path d="M1102.36 121.755H1085.81V88.7581H1102.36V121.755Z" stroke="#DCDDDD" stroke-width="3" stroke-linecap="round" stroke-linejoin="round"/>
<path d="M1073.39 121.755H1056.84V105.256H1073.39V121.755Z" fill="#DCDDDD" stroke="#DCDDDD" stroke-width="3" stroke-linecap="round" stroke-linejoin="round"/>
<path d="M150.841 577.706C157.356 577.706 163.765 579.346 169.475 582.473C175.184 585.6 180.009 590.114 183.502 595.596C186.995 601.078 189.042 607.35 189.455 613.83C189.867 620.311 188.631 626.791 185.862 632.669C183.092 638.546 178.878 643.632 173.611 647.453C168.344 651.275 162.194 653.709 155.732 654.53C149.269 655.351 142.703 654.531 136.643 652.148C130.583 649.765 125.224 645.896 121.065 640.898L150.841 616.273L150.841 577.706Z" stroke="#DCDDDD" stroke-width="3" stroke-linejoin="round"/>
<path d="M105.893 631.45C101.796 626.148 99.2498 619.82 98.5353 613.165C97.8208 606.511 98.966 599.789 101.844 593.742C104.723 587.696 109.222 582.56 114.845 578.903C120.468 575.246 126.996 573.21 133.708 573.019L134.744 609.302L105.893 631.45Z" fill="#DCDDDD" stroke="#DCDDDD" stroke-width="3" stroke-linejoin="round"/>
<path d="M64.743 565.052C-19.6529 466.713 -18.1725 260.504 64.7428 169.788C157.739 89.015 181.713 1.99998 571.12 2C873.169 2.00002 1036.04 79.549 1121.92 156.544C1285.9 367.23 1145.24 595.164 1157.45 563.147" stroke="#DCDDDD" stroke-width="3" stroke-linecap="round" stroke-linejoin="round" stroke-dasharray="30 30"/>
<path d="M1110.95 355.069V316.276H1149.87V355.069H1110.95Z" stroke="#DCDDDD" stroke-width="3" stroke-linecap="round" stroke-linejoin="round"/>
<path d="M1119.6 344.293L1126.09 329.207L1134.74 337.828L1140.14 327.052" stroke="#DCDDDD" stroke-width="3" stroke-linecap="round" stroke-linejoin="round"/>
<ellipse cx="1140.67" cy="326.385" rx="1.17934" ry="1.17555" stroke="#DCDDDD" stroke-width="3" stroke-linejoin="round"/>
<ellipse cx="1119.68" cy="343.783" rx="1.17934" ry="1.17555" stroke="#DCDDDD" stroke-width="3" stroke-linejoin="round"/>
<ellipse cx="1126.05" cy="329.677" rx="1.17934" ry="1.17555" stroke="#DCDDDD" stroke-width="3" stroke-linejoin="round"/>
<ellipse cx="1134.54" cy="336.965" rx="1.17934" ry="1.17555" stroke="#DCDDDD" stroke-width="3" stroke-linejoin="round"/>
<path d="M39.9144 320.195L115.846 320.195L115.846 379.965L40.0167 379.965L40.0167 297.207L115.846 297.207L115.846 319.665" stroke="#DCDDDD" stroke-width="3" stroke-linecap="round" stroke-linejoin="round"/>
<ellipse cx="56.458" cy="340.783" rx="6.37501" ry="6.95758" stroke="#DCDDDD" stroke-width="3" stroke-linejoin="round"/>
<ellipse cx="56.458" cy="364.219" rx="6.37501" ry="6.95758" stroke="#DCDDDD" stroke-width="3" stroke-linejoin="round"/>
<ellipse cx="78.2667" cy="364.219" rx="6.71053" ry="6.95758" stroke="#DCDDDD" stroke-width="3" stroke-linejoin="round"/>
<ellipse cx="100.411" cy="364.219" rx="6.71053" ry="6.95758" fill="#DCDDDD" stroke="#DCDDDD" stroke-width="3" stroke-linejoin="round"/>
<ellipse cx="78.6025" cy="340.783" rx="6.37501" ry="6.95758" stroke="#DCDDDD" stroke-width="3" stroke-linejoin="round"/>
<ellipse cx="100.747" cy="340.783" rx="6.37501" ry="6.95758" stroke="#DCDDDD" stroke-width="3" stroke-linejoin="round"/>
<g filter="url(#filter0_f_46_84)">
<path d="M933.473 716.504C932.432 720.602 971.728 724.258 1021.24 724.672C1070.76 725.085 1111.74 722.098 1112.78 718.001C1113.82 713.904 1074.53 710.247 1025.01 709.834C975.498 709.421 934.514 712.407 933.473 716.504Z" fill="#959595" fill-opacity="0.2"/>
</g>
<path d="M1032.38 661.699C1032.11 665.617 1062.12 669.971 1064.42 666.873C1065.57 665.312 1046.44 659.997 1043.69 659.68C1040.69 659.337 1032.58 658.642 1032.38 661.699Z" fill="#201F1F"/>
<path d="M1032.35 641.246L1036.8 694.171L1052.6 698.27L1060.14 651.908L1032.35 641.246Z" fill="url(#paint0_linear_46_84)"/>
<path d="M1036.09 684.874L1053.78 691.022L1056.1 676.763L1034.96 672.233L1036.09 684.874Z" fill="#CCCCCC"/>
<path d="M1033.02 684.066C1031.18 692.482 1032.18 702.507 1030.55 708.411C1029.75 711.351 1026.73 715.424 1039.35 716.814C1051.97 718.203 1095.69 723.963 1098.49 714.828C1101.3 705.694 1085.55 695.882 1078.63 693.705C1071.02 691.303 1054.36 690.712 1047.67 686.024C1040.99 681.31 1033.82 680.384 1033.02 684.066Z" fill="url(#paint1_linear_46_84)"/>
<path d="M1030.58 708.412C1030.61 708.281 1030.62 708.095 1030.6 707.856C1030.58 707.617 1030.55 707.337 1030.51 707.044C1030.5 706.977 1030.5 706.924 1030.49 706.857C1030.42 706.311 1030.34 705.698 1030.32 705.127C1030.32 704.822 1030.33 704.53 1030.37 704.266C1030.42 704.016 1030.49 703.794 1030.63 703.64C1030.76 703.473 1030.92 703.373 1031.16 703.355C1031.38 703.324 1031.67 703.362 1032.05 703.523C1039.71 706.577 1062.43 712.613 1086.73 712.159C1088.51 712.122 1090.07 712.129 1091.45 712.13C1092.11 712.129 1092.75 712.127 1093.32 712.135C1095.1 712.125 1096.46 712.085 1097.49 711.872C1098.12 711.751 1098.52 711.793 1098.75 711.934C1098.98 712.076 1099.08 712.318 1099.08 712.623C1099.08 712.928 1098.99 713.296 1098.87 713.689C1098.81 713.873 1098.75 714.056 1098.67 714.252L1098.67 714.278C1098.6 714.474 1098.54 714.658 1098.49 714.828C1098.14 715.969 1097.15 716.859 1095.68 717.584C1094.19 718.296 1092.21 718.803 1089.88 719.177C1085.18 719.897 1079.06 719.992 1072.64 719.758C1061.68 719.361 1049.82 718.001 1042.65 717.18C1041.42 717.04 1040.31 716.917 1039.4 716.816C1036.25 716.469 1034.07 715.96 1032.59 715.333C1031.12 714.706 1030.35 713.986 1029.98 713.203C1029.63 712.433 1029.68 711.613 1029.88 710.799C1029.98 710.392 1030.12 709.986 1030.24 709.593C1030.25 709.553 1030.27 709.488 1030.29 709.449C1030.37 709.067 1030.49 708.727 1030.58 708.412Z" fill="white" stroke="#CCCCCC" stroke-width="0.180102"/>
<path d="M1057.89 696.617C1057.74 696.757 1057.52 696.802 1057.31 696.741C1057.01 696.636 1056.85 696.325 1056.96 696.024C1058.69 690.84 1062.78 690.507 1062.95 690.5C1063.26 690.472 1063.53 690.708 1063.57 691.028C1063.58 691.347 1063.35 691.616 1063.04 691.644C1062.89 691.652 1059.53 691.959 1058.04 696.398C1058.01 696.476 1057.96 696.553 1057.89 696.617Z" fill="black"/>
<path d="M1062.96 697.41C1062.81 697.55 1062.6 697.594 1062.41 697.534C1062.11 697.43 1061.95 697.119 1062.04 696.83C1062.75 694.617 1064.32 691.866 1067.72 691.374C1067.76 691.362 1067.79 691.363 1067.81 691.364C1068.11 691.296 1068.41 691.453 1068.5 691.749C1068.59 692.044 1068.42 692.356 1068.13 692.45C1068.06 692.461 1067.98 692.484 1067.89 692.494C1065.62 692.831 1064.01 694.4 1063.13 697.177C1063.1 697.256 1063.03 697.346 1062.96 697.41Z" fill="black"/>
<path d="M1073.02 693.157C1072.95 693.221 1072.88 693.258 1072.79 693.294C1072.74 693.318 1069.06 694.397 1067.49 697.943C1067.37 698.23 1067.03 698.349 1066.74 698.232C1066.45 698.115 1066.32 697.778 1066.45 697.478C1068.24 693.423 1072.31 692.228 1072.48 692.181C1072.78 692.1 1073.09 692.271 1073.18 692.58C1073.25 692.795 1073.17 693.017 1073.02 693.157Z" fill="black"/>
<path d="M965.187 661.895C966.899 666.054 996.901 664.909 998.911 661.248C999.905 659.403 991.978 655.965 987.528 655.714C980.589 655.324 964.008 659.027 965.187 661.895Z" fill="#201F1F"/>
<path d="M966.811 627.815L967.781 689.363L986.259 689.71L995.44 628.353L966.811 627.815Z" fill="url(#paint2_linear_46_84)"/>
<path d="M967.019 693.155L985.74 695.542L988.526 674.708L967.526 672.207L967.019 693.155Z" fill="#CCCCCC"/>
<path d="M966.461 691.404C965.134 701.511 959.913 709.288 958.588 716.41C957.915 719.942 958.395 730 973.147 726.397C980.904 724.503 986.592 723.766 990.507 722.348C1008.53 715.819 991.073 711.47 987.387 692.178C979.029 687.31 967.034 686.982 966.461 691.404Z" fill="url(#paint3_linear_46_84)"/>
<path d="M958.066 719.782C966.468 726.29 970.356 725.572 981.569 724.311C999.789 722.261 996.912 714.697 998.118 713.512C1000.2 716.932 997.779 722.954 996.845 723.919C993.997 726.862 990.363 727.88 981.615 729.552C973.788 731.047 966.365 729.601 962.716 726.76C960.623 725.132 959.577 724.317 958.066 719.782Z" fill="white" stroke="#CCCCCC" stroke-width="0.180102" stroke-linejoin="round"/>
<path d="M971.703 696.015C971.658 695.967 971.629 695.904 971.599 695.873C971.44 695.544 971.559 695.165 971.886 694.978C978.131 691.853 982.159 695.245 982.324 695.389C982.609 695.63 982.642 696.046 982.389 696.313C982.151 696.595 981.751 696.611 981.467 696.37C981.317 696.241 977.916 693.426 972.481 696.152C972.201 696.295 971.896 696.222 971.703 696.015Z" fill="black"/>
<path d="M971.651 700.506C971.595 700.457 971.573 700.408 971.517 700.359C971.276 700.033 971.34 699.582 971.668 699.391C974.314 697.73 978.361 696.301 982.641 698.905C982.712 698.937 982.749 698.969 982.768 698.985C983.14 699.159 983.322 699.553 983.199 699.922C983.057 700.275 982.657 700.434 982.27 700.277C982.181 700.23 982.092 700.182 981.965 700.102C979.057 698.328 975.864 698.507 972.52 700.634C972.251 700.757 971.894 700.716 971.651 700.506Z" fill="black"/>
<path d="M971.348 704.631C971.269 704.571 971.223 704.508 971.157 704.431C970.921 704.086 971.023 703.665 971.341 703.49C976.523 700.628 982.276 702.796 982.513 702.893C982.896 703.044 983.112 703.456 983.01 703.795C982.896 704.152 982.491 704.316 982.129 704.18C982.076 704.168 976.765 702.196 972.174 704.73C971.915 704.866 971.605 704.825 971.348 704.631Z" fill="black"/>
<path d="M1052.08 454.007C1052.08 454.007 1067.25 515.669 1070.78 568.277C1070 586.382 1066.49 666.802 1064.25 666.801C1062.02 666.801 1032.51 663.563 1032.28 661.944C1029.58 642.342 1026.84 627.572 1023.21 574.674C1021.65 569.733 1015.48 489.454 1000.06 469.248C998.889 454.035 995.054 453.454 995.054 453.454L1052.08 454.007Z" fill="#3F3F3F"/>
<path d="M1027.32 467.78C1027.32 467.78 1013.86 539.079 1009.45 581.961C1006.86 607.112 999.901 661.541 998.687 661.541C997.473 661.541 966.14 661.742 965.095 661.539C964.32 661.389 956.26 620.663 965.066 572.401C965.066 572.401 959.891 476.118 965.071 459.08C969.513 444.484 974.4 446.533 974.4 446.533L1027.32 467.78Z" fill="#3F3F3F"/>
<path d="M1011.39 336.294C1009.05 333.704 981.241 328.166 979.905 332.461C979.236 334.618 992.498 340.011 994.507 340.414C997.612 341.031 1013.6 338.733 1011.39 336.294Z" fill="black"/>
<path d="M1009.04 341.551C1009.04 341.551 988.699 343.516 982.742 340.589L983.286 327.231C983.286 327.231 978.832 327.307 971.984 324.105C969.504 322.944 969.818 319.037 970.569 316.991C971.216 315.255 973.812 308.972 972.373 307.468C970.933 305.946 970.004 304.866 970.559 304.362C971.115 303.859 975.482 300.836 975.401 299.563C975.24 296.623 975.923 290.819 975.923 290.819C975.923 290.819 982.357 292.799 984.54 293.405C987.205 294.135 988.838 295.903 989.42 296.696C992.778 301.427 991.514 306.439 994.965 310.352C999.871 315.937 997.172 310.203 1001.38 308.475C1005.26 306.89 1004.93 313.471 1004.17 314.558C1002.17 317.435 1003.45 317.034 1003.77 318.83C1005.06 326.012 1006.76 340.654 1009.04 341.551Z" fill="#F4D4CD"/>
<path d="M1003.05 315.753C1003.05 315.753 997.024 323.561 993.313 325.544C989.762 327.437 983.207 327.182 983.207 327.182L982.818 338.568L988.871 334.842C988.871 334.842 995.234 332.631 997.763 329.478C1000.7 325.798 1003.05 315.753 1003.05 315.753Z" fill="url(#paint4_linear_46_84)"/>
<path d="M1012.56 310.351C1014.63 307.26 1022.09 297.023 1018.74 287.736C1017.01 282.928 1013.2 284.863 1011.34 280.218C1007.66 271.056 999.362 270.06 992.307 270.905C987.375 271.496 975.273 268.068 971.777 266.511C963.612 262.905 967.278 280.445 974.293 289.278C977.917 293.834 988.707 295.709 988.954 296.74C992.228 310.062 997.726 314.933 998.673 312.774C1002.49 304.269 1005.78 310.645 1003.13 315.615C1002.56 316.685 1003.83 319.221 1003.83 319.221C1003.83 319.221 1009.69 314.647 1012.56 310.351Z" fill="url(#paint5_linear_46_84)"/>
<path d="M979.147 301.588C979.825 302.013 980.557 302.361 981.356 302.474C981.759 302.55 982.152 302.532 982.564 302.512C982.662 302.503 982.757 302.556 982.767 302.663C982.774 302.737 982.725 302.817 982.633 302.845C982.209 302.941 981.766 303.038 981.313 303.024C980.409 303.033 979.517 302.793 978.697 302.421C978.277 302.219 977.871 302.007 977.486 301.743C977.243 301.558 977.191 301.206 977.374 300.944C977.559 300.701 977.911 300.649 978.173 300.832C978.178 300.826 979.065 301.529 979.147 301.588Z" fill="black"/>
<path d="M978.863 295.141C981.044 295.814 983.148 296.771 984.977 298.147C985.057 298.196 985.068 298.308 985 298.39C984.949 298.451 984.858 298.478 984.778 298.429C982.9 297.346 980.788 296.6 978.646 296.252C978.328 296.282 978.115 295.865 978.171 295.6C978.206 295.372 978.628 294.946 978.863 295.141Z" fill="black"/>
<path d="M973.371 314.775C973.603 314.886 973.892 314.938 974.143 314.985C974.956 315.138 975.777 315.22 976.602 315.114C977.713 314.972 978.719 314.471 979.477 313.642C979.546 313.579 979.639 313.57 979.721 313.638C979.782 313.688 979.791 313.782 979.742 313.862C979.009 314.875 977.954 315.548 976.746 315.853C975.844 316.082 974.919 316.12 973.996 316.034C973.684 315.986 973.371 315.968 973.061 315.896C972.754 315.83 972.575 315.527 972.641 315.219C972.69 314.989 972.925 314.561 973.371 314.775Z" fill="black"/>
<path d="M1075.64 400.284C1094.89 427.852 1083.6 455.545 1059.73 443.607C1020.24 418.787 1051.56 431.647 1045.06 405.094C1041.04 388.656 1013.5 339.529 1013.5 339.529C1030.09 347.219 1056.4 372.717 1075.64 400.284Z" fill="url(#paint6_linear_46_84)"/>
<path d="M979.91 332.462C979.91 332.462 989.62 340.339 1010.67 336.698C1012.69 335.079 1012.43 338.365 1015.93 342.769C1032.56 363.7 1053.3 443.679 1054.63 455.477C1055.32 461.56 965.097 469.374 963.697 462.66C956.535 428.381 957.403 342.947 958.602 341.851C962.176 338.598 980.106 339.116 979.91 332.462Z" fill="url(#paint7_linear_46_84)"/>
<path d="M923.158 421.797C926.898 447.233 967.775 450.239 967.775 450.239C967.775 450.239 979.13 430.16 984.575 421.799C987.272 417.662 962.355 418.467 962.917 413.909C963.955 405.255 971.333 393.461 971.382 387.732C971.462 377.708 966.495 338.577 958.62 341.855C938.199 350.349 919.947 399.92 923.158 421.797Z" fill="url(#paint8_linear_46_84)"/>
<path d="M1117.47 379.259C1113.7 377.108 1031.37 363.547 1030.17 365.211C1027.52 368.901 999.897 419.014 999.897 419.014L1089.2 433.385C1089.2 433.385 1118.89 380.071 1117.47 379.259Z" fill="url(#paint9_linear_46_84)"/>
<path d="M1089.2 433.385L962.271 412.958L961.786 415.968L1087.79 435.732L1089.2 433.385Z" fill="url(#paint10_linear_46_84)"/>
<path d="M970.759 452.745C974.535 453.134 986.537 434.149 988.026 430.231C989.005 427.64 987.666 418.746 986.171 420.129C983.842 422.284 967.415 452.393 970.759 452.745Z" fill="black"/>
<path d="M998.816 421.866L972.792 417.893L964.246 440.353C974.796 441.129 998.528 438.126 1002.95 439.383C1012.15 441.999 1021.4 440.774 1027.97 440.352C1035.66 439.859 1040.47 438.762 1045.42 434.279C1053.5 426.945 1038.2 426.752 1029.53 427.573C1046.74 424.09 1045.84 420.384 1043.24 418.966C1026.87 423.187 1016.15 421.762 1012.83 420.522C1017.08 407.728 1013.43 405.097 1011.07 405.38C1010.28 409.525 1007.96 416.697 1005.91 417.599C1003.83 418.514 1000.33 419.787 998.816 421.866Z" fill="#EBCCC8"/>
<path d="M1046.8 430.431C1046.8 430.431 1036.5 433.977 1029.63 431.947" stroke="#E4C5BE" stroke-width="1.09231" stroke-miterlimit="10" stroke-linecap="round" stroke-linejoin="round"/>
<path d="M1041.58 435.847C1041.58 435.847 1034.16 438.359 1029.04 437" stroke="#E4C5BE" stroke-width="1.09231" stroke-miterlimit="10" stroke-linecap="round" stroke-linejoin="round"/>
<path d="M970.876 417.522C957.194 440.268 945.669 449.982 960.725 453.691C971.729 456.411 973.255 451.352 973.893 449.592C978.769 436.161 984.712 421.238 986.548 419.998C987.324 419.469 974.099 418.005 970.876 417.522Z" fill="url(#paint11_linear_46_84)"/>
<defs>
<filter id="filter0_f_46_84" x="929.568" y="705.911" width="187.12" height="22.6833" filterUnits="userSpaceOnUse" color-interpolation-filters="sRGB">
<feFlood flood-opacity="0" result="BackgroundImageFix"/>
<feBlend mode="normal" in="SourceGraphic" in2="BackgroundImageFix" result="shape"/>
<feGaussianBlur stdDeviation="1.94235" result="effect1_foregroundBlur_46_84"/>
</filter>
<linearGradient id="paint0_linear_46_84" x1="1039.39" y1="647.478" x2="1053.86" y2="688.137" gradientUnits="userSpaceOnUse">
<stop stop-color="#F4D4CD"/>
<stop offset="1" stop-color="#E1C3C1"/>
</linearGradient>
<linearGradient id="paint1_linear_46_84" x1="1038.52" y1="684.576" x2="1090.23" y2="737.103" gradientUnits="userSpaceOnUse">
<stop stop-color="#36B35F"/>
<stop offset="0.9994" stop-color="#1D6A36"/>
</linearGradient>
<linearGradient id="paint2_linear_46_84" x1="981.134" y1="628.079" x2="979.978" y2="689.593" gradientUnits="userSpaceOnUse">
<stop stop-color="#F4D4CD"/>
<stop offset="1" stop-color="#E1C3C1"/>
</linearGradient>
<linearGradient id="paint3_linear_46_84" x1="1000.89" y1="699.114" x2="1002.5" y2="726.712" gradientUnits="userSpaceOnUse">
<stop stop-color="#36B35F"/>
<stop offset="1" stop-color="#1D6A36"/>
</linearGradient>
<linearGradient id="paint4_linear_46_84" x1="992.079" y1="323.907" x2="997.697" y2="344.938" gradientUnits="userSpaceOnUse">
<stop stop-color="#DEC1C0"/>
<stop offset="1" stop-color="#DEC1C0" stop-opacity="0"/>
</linearGradient>
<linearGradient id="paint5_linear_46_84" x1="1012.09" y1="307.168" x2="973.857" y2="260.489" gradientUnits="userSpaceOnUse">
<stop stop-color="#201F1F"/>
<stop offset="1" stop-color="#3F3F3F"/>
</linearGradient>
<linearGradient id="paint6_linear_46_84" x1="1030.26" y1="332.094" x2="1148.03" y2="464.44" gradientUnits="userSpaceOnUse">
<stop stop-color="#FFDE82"/>
<stop offset="1" stop-color="#F1BE66"/>
</linearGradient>
<linearGradient id="paint7_linear_46_84" x1="963.886" y1="383.088" x2="1009.62" y2="476.174" gradientUnits="userSpaceOnUse">
<stop stop-color="#FFDE82"/>
<stop offset="1" stop-color="#F1BE66"/>
</linearGradient>
<linearGradient id="paint8_linear_46_84" x1="957.002" y1="398.063" x2="988.956" y2="399.326" gradientUnits="userSpaceOnUse">
<stop stop-color="#FFDE82"/>
<stop offset="1" stop-color="#F1BE66"/>
</linearGradient>
<linearGradient id="paint9_linear_46_84" x1="1025.21" y1="366.532" x2="1058.72" y2="450.284" gradientUnits="userSpaceOnUse">
<stop stop-color="#6B7072"/>
<stop offset="1" stop-color="#353232"/>
</linearGradient>
<linearGradient id="paint10_linear_46_84" x1="981.485" y1="416.225" x2="980.766" y2="421.593" gradientUnits="userSpaceOnUse">
<stop stop-color="#6B7072"/>
<stop offset="1" stop-color="#353232"/>
</linearGradient>
<linearGradient id="paint11_linear_46_84" x1="960.244" y1="453.509" x2="975.763" y2="419.105" gradientUnits="userSpaceOnUse">
<stop stop-color="#FFDE82"/>
<stop offset="1" stop-color="#F1BE66"/>
</linearGradient>
</defs>
</svg>
