<svg width="1396" height="752" viewBox="0 0 1396 752" fill="none" xmlns="http://www.w3.org/2000/svg">
<g filter="url(#filter0_f_19_120)">
<path d="M1043.97 705.22C1042.76 709.992 1088.54 714.253 1146.23 714.736C1203.93 715.22 1251.68 711.743 1252.89 706.971C1254.1 702.2 1208.32 697.939 1150.63 697.456C1092.93 696.972 1045.18 700.448 1043.97 705.22Z" fill="#959595" fill-opacity="0.2"/>
</g>
<path d="M1159.21 641.369C1158.9 645.933 1193.86 651.004 1196.54 647.394C1197.88 645.576 1175.59 639.385 1172.38 639.016C1168.89 638.616 1159.45 637.807 1159.21 641.369Z" fill="#201F1F"/>
<path d="M1159.17 617.536L1164.36 679.203L1182.77 683.977L1191.56 629.958L1159.17 617.536Z" fill="url(#paint0_linear_19_120)"/>
<path d="M1163.53 668.37L1184.14 675.532L1186.85 658.919L1162.21 653.641L1163.53 668.37Z" fill="#CCCCCC"/>
<path d="M1159.95 667.428C1157.81 677.234 1158.98 688.914 1157.08 695.794C1156.14 699.219 1152.62 703.966 1167.33 705.584C1182.04 707.203 1232.97 713.914 1236.24 703.27C1239.51 692.627 1221.16 681.195 1213.1 678.659C1204.23 675.859 1184.82 675.172 1177.03 669.71C1169.24 664.217 1160.89 663.138 1159.95 667.428Z" fill="url(#paint1_linear_19_120)"/>
<path d="M1157.11 695.795C1157.15 695.642 1157.16 695.426 1157.14 695.147C1157.12 694.868 1157.08 694.543 1157.03 694.201C1157.02 694.123 1157.02 694.061 1157.01 693.984C1156.93 693.347 1156.83 692.632 1156.81 691.967C1156.81 691.612 1156.82 691.272 1156.86 690.965C1156.92 690.674 1157.01 690.414 1157.17 690.235C1157.32 690.04 1157.51 689.924 1157.79 689.903C1158.05 689.867 1158.39 689.911 1158.83 690.098C1167.75 693.657 1194.22 700.69 1222.53 700.161C1224.61 700.117 1226.43 700.126 1228.04 700.126C1228.81 700.125 1229.55 700.123 1230.21 700.133C1232.28 700.12 1233.88 700.074 1235.08 699.826C1235.81 699.685 1236.27 699.733 1236.54 699.898C1236.81 700.063 1236.93 700.346 1236.93 700.701C1236.93 701.057 1236.82 701.485 1236.68 701.943C1236.61 702.157 1236.54 702.37 1236.45 702.599V702.63C1236.37 702.858 1236.3 703.072 1236.24 703.271C1235.84 704.599 1234.68 705.636 1232.97 706.482C1231.23 707.311 1228.92 707.902 1226.2 708.337C1220.73 709.177 1213.61 709.288 1206.12 709.014C1193.35 708.552 1179.53 706.967 1171.18 706.011C1169.75 705.848 1168.46 705.705 1167.39 705.587C1163.72 705.182 1161.17 704.59 1159.46 703.859C1157.74 703.128 1156.84 702.29 1156.42 701.377C1156 700.481 1156.07 699.525 1156.29 698.576C1156.42 698.102 1156.58 697.629 1156.72 697.171C1156.73 697.125 1156.75 697.049 1156.77 697.003C1156.86 696.558 1157 696.162 1157.11 695.795Z" fill="white" stroke="#CCCCCC" stroke-width="0.180102"/>
<path d="M1188.93 682.052C1188.76 682.215 1188.51 682.267 1188.26 682.196C1187.91 682.074 1187.72 681.712 1187.85 681.361C1189.87 675.32 1194.63 674.932 1194.83 674.925C1195.19 674.892 1195.5 675.167 1195.55 675.54C1195.57 675.911 1195.29 676.225 1194.93 676.258C1194.76 676.266 1190.84 676.625 1189.11 681.796C1189.08 681.888 1189.01 681.978 1188.93 682.052Z" fill="black"/>
<path d="M1194.84 682.975C1194.67 683.138 1194.42 683.191 1194.21 683.121C1193.86 682.999 1193.67 682.636 1193.77 682.3C1194.6 679.721 1196.42 676.516 1200.39 675.942C1200.43 675.929 1200.46 675.93 1200.49 675.931C1200.84 675.852 1201.19 676.035 1201.3 676.379C1201.41 676.724 1201.21 677.087 1200.86 677.197C1200.78 677.209 1200.69 677.237 1200.58 677.248C1197.94 677.64 1196.06 679.468 1195.04 682.705C1195.01 682.796 1194.93 682.901 1194.84 682.975Z" fill="black"/>
<path d="M1206.56 678.02C1206.48 678.095 1206.4 678.138 1206.29 678.18C1206.23 678.208 1201.95 679.465 1200.12 683.597C1199.98 683.931 1199.58 684.07 1199.24 683.934C1198.91 683.797 1198.75 683.405 1198.91 683.055C1200.99 678.331 1205.74 676.938 1205.93 676.883C1206.29 676.789 1206.65 676.989 1206.74 677.348C1206.83 677.598 1206.74 677.857 1206.56 678.02Z" fill="black"/>
<path d="M1080.92 641.596C1082.92 646.442 1117.87 645.104 1120.21 640.84C1121.37 638.691 1112.14 634.687 1106.95 634.395C1098.87 633.941 1079.55 638.256 1080.92 641.596Z" fill="#201F1F"/>
<path d="M1082.81 601.887L1083.94 673.599L1105.47 674.004L1116.17 602.515L1082.81 601.887Z" fill="url(#paint2_linear_19_120)"/>
<path d="M1083.05 678.018L1104.87 680.799L1108.11 656.525L1083.65 653.61L1083.05 678.018Z" fill="#CCCCCC"/>
<path d="M1082.4 675.98C1080.86 687.755 1074.78 696.817 1073.23 705.115C1072.45 709.23 1073.01 720.948 1090.2 716.75C1099.23 714.543 1105.86 713.684 1110.42 712.031C1131.42 704.423 1111.08 699.357 1106.79 676.881C1097.05 671.209 1083.07 670.828 1082.4 675.98Z" fill="url(#paint3_linear_19_120)"/>
<path d="M1072.62 709.044C1082.41 716.626 1086.94 715.789 1100.01 714.319C1121.24 711.93 1117.88 703.118 1119.29 701.737C1121.72 705.721 1118.89 712.737 1117.81 713.862C1114.49 717.291 1110.25 718.477 1100.06 720.425C1090.94 722.168 1082.29 720.483 1078.04 717.174C1075.6 715.277 1074.38 714.328 1072.62 709.044Z" fill="white" stroke="#CCCCCC" stroke-width="0.180102" stroke-linejoin="round"/>
<path d="M1088.51 681.351C1088.46 681.295 1088.43 681.222 1088.39 681.185C1088.21 680.802 1088.34 680.361 1088.73 680.143C1096 676.502 1100.69 680.453 1100.89 680.621C1101.22 680.902 1101.26 681.386 1100.96 681.697C1100.68 682.026 1100.22 682.045 1099.89 681.764C1099.71 681.614 1095.75 678.334 1089.42 681.51C1089.09 681.677 1088.74 681.592 1088.51 681.351Z" fill="black"/>
<path d="M1088.45 686.583C1088.39 686.527 1088.36 686.469 1088.29 686.413C1088.01 686.032 1088.09 685.507 1088.47 685.285C1091.55 683.349 1096.27 681.683 1101.26 684.718C1101.34 684.755 1101.38 684.792 1101.4 684.811C1101.84 685.013 1102.05 685.473 1101.91 685.903C1101.74 686.314 1101.28 686.5 1100.82 686.317C1100.72 686.261 1100.62 686.206 1100.47 686.113C1097.08 684.046 1093.36 684.254 1089.46 686.733C1089.15 686.876 1088.73 686.828 1088.45 686.583Z" fill="black"/>
<path d="M1088.1 691.389C1088.01 691.32 1087.95 691.247 1087.88 691.157C1087.6 690.755 1087.72 690.264 1088.09 690.061C1094.13 686.725 1100.83 689.251 1101.11 689.364C1101.55 689.54 1101.8 690.021 1101.69 690.415C1101.55 690.831 1101.08 691.023 1100.66 690.864C1100.6 690.85 1094.41 688.552 1089.06 691.505C1088.76 691.664 1088.4 691.616 1088.1 691.389Z" fill="black"/>
<path d="M1182.16 399.372C1182.16 399.372 1199.84 471.218 1203.96 532.515C1203.05 553.61 1198.95 647.313 1196.35 647.313C1193.75 647.313 1159.36 643.54 1159.1 641.654C1155.96 618.814 1152.76 601.605 1148.53 539.97C1146.71 534.213 1139.52 440.675 1121.54 417.133C1120.18 399.407 1115.71 398.73 1115.71 398.73L1182.16 399.372Z" fill="#3F3F3F"/>
<path d="M1153.31 415.419C1153.31 415.419 1137.64 498.494 1132.49 548.459C1129.48 577.764 1121.37 641.183 1119.96 641.183C1118.54 641.182 1082.03 641.419 1080.82 641.183C1079.91 641.007 1070.52 593.556 1080.78 537.322C1080.78 537.322 1074.74 425.138 1080.78 405.286C1085.95 388.278 1091.65 390.666 1091.65 390.666L1153.31 415.419Z" fill="#3F3F3F"/>
<path d="M1134.76 262.22C1132.03 259.202 1099.62 252.75 1098.07 257.755C1097.29 260.268 1112.74 266.551 1115.08 267.021C1118.7 267.74 1137.33 265.062 1134.76 262.22Z" fill="black"/>
<path d="M1132.02 268.344C1132.02 268.344 1108.32 270.635 1101.38 267.224L1102.01 251.661C1102.01 251.661 1096.82 251.749 1088.84 248.019C1085.95 246.666 1086.32 242.114 1087.19 239.73C1087.95 237.708 1090.97 230.386 1089.29 228.635C1087.61 226.861 1086.53 225.602 1087.18 225.016C1087.83 224.429 1092.92 220.907 1092.82 219.424C1092.63 215.999 1093.43 209.236 1093.43 209.236C1093.43 209.236 1100.92 211.542 1103.47 212.248C1106.57 213.099 1108.48 215.159 1109.15 216.082C1113.07 221.595 1111.59 227.434 1115.61 231.994C1121.33 238.501 1118.19 231.82 1123.09 229.806C1127.61 227.96 1127.23 235.627 1126.33 236.894C1124.02 240.246 1125.51 239.778 1125.88 241.871C1127.38 250.24 1129.35 267.299 1132.02 268.344Z" fill="#F4D4CD"/>
<path d="M1125.04 238.287C1125.04 238.287 1118.01 247.384 1113.69 249.695C1109.55 251.901 1101.92 251.604 1101.92 251.604L1101.46 264.87L1108.52 260.528C1108.52 260.528 1115.93 257.952 1118.88 254.278C1122.29 249.99 1125.04 238.287 1125.04 238.287Z" fill="url(#paint4_linear_19_120)"/>
<path d="M1136.12 231.992C1138.53 228.39 1147.22 216.462 1143.31 205.641C1141.3 200.039 1136.86 202.295 1134.69 196.883C1130.41 186.208 1120.74 185.047 1112.52 186.033C1106.77 186.722 1092.67 182.728 1088.6 180.915C1079.08 176.713 1083.36 197.149 1091.53 207.44C1095.75 212.748 1108.32 214.932 1108.61 216.134C1112.43 231.655 1118.83 237.331 1119.94 234.815C1124.39 224.905 1128.21 232.334 1125.13 238.125C1124.46 239.372 1125.94 242.326 1125.94 242.326C1125.94 242.326 1132.77 236.997 1136.12 231.992Z" fill="url(#paint5_linear_19_120)"/>
<path d="M1097.19 221.783C1097.98 222.278 1098.83 222.683 1099.76 222.815C1100.23 222.903 1100.69 222.882 1101.17 222.859C1101.28 222.848 1101.39 222.911 1101.4 223.035C1101.41 223.121 1101.35 223.215 1101.25 223.246C1100.75 223.358 1100.24 223.472 1099.71 223.455C1098.66 223.466 1097.62 223.186 1096.66 222.753C1096.17 222.518 1095.7 222.271 1095.25 221.963C1094.97 221.748 1094.91 221.337 1095.12 221.032C1095.33 220.749 1095.75 220.689 1096.05 220.902C1096.06 220.895 1097.09 221.714 1097.19 221.783Z" fill="black"/>
<path d="M1096.85 214.27C1099.4 215.055 1101.85 216.17 1103.98 217.773C1104.07 217.83 1104.08 217.961 1104 218.056C1103.95 218.127 1103.84 218.159 1103.75 218.102C1101.56 216.839 1099.1 215.971 1096.6 215.566C1096.23 215.6 1095.98 215.115 1096.05 214.806C1096.09 214.54 1096.58 214.044 1096.85 214.27Z" fill="black"/>
<path d="M1090.45 237.148C1090.72 237.277 1091.06 237.338 1091.36 237.393C1092.3 237.57 1093.26 237.666 1094.22 237.542C1095.51 237.377 1096.69 236.793 1097.57 235.827C1097.65 235.754 1097.76 235.743 1097.85 235.822C1097.92 235.881 1097.93 235.99 1097.88 236.083C1097.02 237.264 1095.79 238.048 1094.39 238.404C1093.34 238.67 1092.26 238.714 1091.18 238.615C1090.82 238.559 1090.45 238.537 1090.09 238.453C1089.74 238.377 1089.53 238.023 1089.6 237.665C1089.66 237.398 1089.94 236.898 1090.45 237.148Z" fill="black"/>
<path d="M1209.62 336.778C1232.05 368.898 1218.89 401.166 1191.08 387.258C1145.07 358.339 1181.56 373.322 1173.99 342.384C1169.3 323.231 1137.21 265.989 1137.21 265.989C1156.54 274.949 1187.19 304.658 1209.62 336.778Z" fill="url(#paint6_linear_19_120)"/>
<path d="M1098.07 257.754C1098.07 257.754 1109.38 266.933 1133.91 262.689C1136.26 260.802 1135.97 264.632 1140.04 269.762C1159.42 294.151 1183.58 387.339 1185.13 401.086C1185.94 408.173 1080.82 417.283 1079.19 409.459C1070.84 369.519 1071.85 269.973 1073.24 268.696C1077.41 264.905 1098.3 265.508 1098.07 257.754Z" fill="url(#paint7_linear_19_120)"/>
<path d="M1031.95 361.846C1036.31 391.483 1083.94 394.984 1083.94 394.984C1083.94 394.984 1097.17 371.588 1103.51 361.846C1106.66 357.026 1077.62 357.965 1078.28 352.654C1079.49 342.57 1088.08 328.828 1088.14 322.152C1088.23 310.474 1082.44 264.879 1073.27 268.698C1049.47 278.597 1028.21 336.357 1031.95 361.846Z" fill="url(#paint8_linear_19_120)"/>
<path d="M1258.35 312.282C1253.96 309.776 1158.03 293.974 1156.64 295.913C1153.55 300.213 1121.36 358.601 1121.36 358.601L1225.41 375.347C1225.41 375.347 1260.01 313.228 1258.35 312.282Z" fill="url(#paint9_linear_19_120)"/>
<path d="M1225.41 375.347L1077.52 351.545L1076.96 355.053L1223.77 378.081L1225.41 375.347Z" fill="url(#paint10_linear_19_120)"/>
<path d="M1087.41 397.903C1091.81 398.356 1105.8 376.236 1107.53 371.671C1108.67 368.652 1107.11 358.289 1105.37 359.901C1102.66 362.412 1083.52 397.494 1087.41 397.903Z" fill="black"/>
<path d="M1120.1 361.925L1089.78 357.295L1079.82 383.464C1092.12 384.368 1119.77 380.87 1124.92 382.335C1135.64 385.383 1146.41 383.956 1154.08 383.464C1163.03 382.89 1168.64 381.613 1174.4 376.389C1183.82 367.844 1165.99 367.619 1155.89 368.575C1175.94 364.517 1174.9 360.199 1171.87 358.547C1152.79 363.464 1140.3 361.804 1136.44 360.359C1141.39 345.453 1137.13 342.387 1134.38 342.717C1133.46 347.547 1130.75 355.903 1128.37 356.953C1125.95 358.019 1121.87 359.503 1120.1 361.925Z" fill="#EBCCC8"/>
<path d="M1176.01 371.904C1176.01 371.904 1164.01 376.036 1156 373.671" stroke="#E4C5BE" stroke-width="1.09231" stroke-miterlimit="10" stroke-linecap="round" stroke-linejoin="round"/>
<path d="M1169.93 378.215C1169.93 378.215 1161.29 381.141 1155.32 379.558" stroke="#E4C5BE" stroke-width="1.09231" stroke-miterlimit="10" stroke-linecap="round" stroke-linejoin="round"/>
<path d="M1087.55 356.864C1071.61 383.366 1058.18 394.684 1075.72 399.006C1088.54 402.175 1090.32 396.28 1091.06 394.23C1096.75 378.581 1103.67 361.193 1105.81 359.748C1106.71 359.132 1091.3 357.426 1087.55 356.864Z" fill="url(#paint11_linear_19_120)"/>
<path d="M232.79 91.7592C249.207 91.7592 262.515 78.4936 262.515 62.1296C262.515 45.7656 249.207 32.5 232.79 32.5C216.373 32.5 203.065 45.7656 203.065 62.1296C203.065 78.4936 216.373 91.7592 232.79 91.7592Z" fill="#DCDDDD" stroke="#DCDDDD" stroke-width="3" stroke-linejoin="round"/>
<path d="M232.791 103.611C211.449 103.611 185.23 130.278 185.23 130.278C203.066 133.241 265.488 133.241 280.351 130.278C280.351 130.278 254.132 103.611 232.791 103.611Z" fill="#DCDDDD" stroke="#DCDDDD" stroke-width="3" stroke-linecap="round" stroke-linejoin="round"/>
<path d="M1292.28 683.505C1299.93 683.505 1306.14 677.321 1306.14 669.692C1306.14 662.063 1299.93 655.879 1292.28 655.879C1284.63 655.879 1278.42 662.063 1278.42 669.692C1278.42 677.321 1284.63 683.505 1292.28 683.505Z" fill="#DCDDDD" stroke="#DCDDDD" stroke-width="3" stroke-linejoin="round"/>
<path d="M1358.78 650.354L1356.02 672.454C1358.79 672.454 1375.41 683.504 1375.41 700.079H1383.73V722.179H1372.64L1364.33 733.23C1366.17 737.834 1367.65 747.595 1358.78 749.805C1347.7 752.567 1345.85 743.359 1344.93 738.755C1333.84 740.965 1321.83 739.675 1317.21 738.755C1314.44 744.28 1314.44 752.567 1303.35 749.805C1295.04 747.733 1292.27 744.28 1295.05 733.23C1287.58 723.313 1282.78 712.583 1284.27 700.079C1297.1 702.842 1322.76 700.079 1322.76 666.929C1328.79 666.939 1334.6 666.701 1339.39 666.928C1343.82 653.668 1353.25 653.116 1358.78 650.354Z" stroke="#DCDDDD" stroke-width="3" stroke-linecap="round" stroke-linejoin="round"/>
<path d="M1204.87 249.5V204.5H1250.01V249.5H1204.87Z" stroke="#DCDDDD" stroke-width="3" stroke-linecap="round" stroke-linejoin="round"/>
<path d="M1214.9 237L1222.42 219.5L1232.45 229.5L1238.73 217" stroke="#DCDDDD" stroke-width="3" stroke-linecap="round" stroke-linejoin="round"/>
<path d="M1239.34 217.591C1240.1 217.591 1240.71 216.98 1240.71 216.227C1240.71 215.474 1240.1 214.863 1239.34 214.863C1238.58 214.863 1237.97 215.474 1237.97 216.227C1237.97 216.98 1238.58 217.591 1239.34 217.591Z" stroke="#DCDDDD" stroke-width="3" stroke-linejoin="round"/>
<path d="M1214.99 237.773C1215.75 237.773 1216.36 237.162 1216.36 236.409C1216.36 235.656 1215.75 235.045 1214.99 235.045C1214.23 235.045 1213.62 235.656 1213.62 236.409C1213.62 237.162 1214.23 237.773 1214.99 237.773Z" stroke="#DCDDDD" stroke-width="3" stroke-linejoin="round"/>
<path d="M1222.38 221.41C1223.14 221.41 1223.75 220.799 1223.75 220.046C1223.75 219.293 1223.14 218.682 1222.38 218.682C1221.62 218.682 1221.01 219.293 1221.01 220.046C1221.01 220.799 1221.62 221.41 1222.38 221.41Z" stroke="#DCDDDD" stroke-width="3" stroke-linejoin="round"/>
<path d="M1232.22 229.864C1232.98 229.864 1233.59 229.253 1233.59 228.5C1233.59 227.747 1232.98 227.136 1232.22 227.136C1231.46 227.136 1230.85 227.747 1230.85 228.5C1230.85 229.253 1231.46 229.864 1232.22 229.864Z" stroke="#DCDDDD" stroke-width="3" stroke-linejoin="round"/>
<path d="M1229.6 82.248L1266.93 45.0328M1266.93 45.0328H1239.78M1266.93 45.0328V72.098" stroke="#DCDDDD" stroke-width="3" stroke-linecap="round" stroke-linejoin="round"/>
<path d="M1312.02 131.976H1292.82V60.2073H1312.02V131.976Z" stroke="#DCDDDD" stroke-width="3" stroke-linecap="round" stroke-linejoin="round"/>
<path d="M1278.42 131.976H1259.22V93.699H1278.42V131.976Z" stroke="#DCDDDD" stroke-width="3" stroke-linecap="round" stroke-linejoin="round"/>
<path d="M1244.82 131.976H1225.62V112.837H1244.82V131.976Z" fill="#DCDDDD" stroke="#DCDDDD" stroke-width="3" stroke-linecap="round" stroke-linejoin="round"/>
<path d="M174.656 660.879C182.213 660.879 189.648 662.781 196.271 666.409C202.894 670.037 208.491 675.273 212.542 681.631C216.594 687.99 218.969 695.266 219.448 702.783C219.926 710.301 218.493 717.817 215.28 724.636C212.067 731.454 207.179 737.353 201.069 741.786C194.959 746.219 187.825 749.043 180.329 749.995C172.832 750.947 165.216 749.997 158.186 747.232C151.156 744.468 144.94 739.979 140.115 734.182L174.656 705.616V660.879Z" stroke="#DCDDDD" stroke-width="3" stroke-linejoin="round"/>
<path d="M122.516 723.222C117.764 717.072 114.81 709.731 113.981 702.012C113.152 694.292 114.481 686.495 117.819 679.481C121.158 672.467 126.377 666.51 132.9 662.267C139.423 658.025 146.996 655.663 154.781 655.442L155.983 697.531L122.516 723.222Z" fill="#DCDDDD" stroke="#DCDDDD" stroke-width="3" stroke-linejoin="round"/>
<path d="M74.7818 646.201C-23.1172 532.127 -21.4002 292.925 74.7818 187.694C182.657 93.998 210.467 2 662.179 2C1012.56 2 1201.49 83.017 1301.1 172.331C1491.32 416.727 1328.15 681.13 1342.32 643.99" stroke="#DCDDDD" stroke-width="3" stroke-linecap="round" stroke-linejoin="round" stroke-dasharray="30 30"/>
<path d="M45.981 362.167H134.061V431.5H46.099V335.5H134.061V361.552" stroke="#DCDDDD" stroke-width="3" stroke-linecap="round" stroke-linejoin="round"/>
<path d="M65.1709 394.12C69.255 394.12 72.5659 390.506 72.5659 386.049C72.5659 381.592 69.255 377.978 65.1709 377.978C61.0867 377.978 57.7759 381.592 57.7759 386.049C57.7759 390.506 61.0867 394.12 65.1709 394.12Z" stroke="#DCDDDD" stroke-width="3" stroke-linejoin="round"/>
<path d="M65.1709 421.305C69.255 421.305 72.5659 417.691 72.5659 413.234C72.5659 408.777 69.255 405.163 65.1709 405.163C61.0867 405.163 57.7759 408.777 57.7759 413.234C57.7759 417.691 61.0867 421.305 65.1709 421.305Z" stroke="#DCDDDD" stroke-width="3" stroke-linejoin="round"/>
<path d="M90.4688 421.305C94.7679 421.305 98.253 417.691 98.253 413.234C98.253 408.777 94.7679 405.163 90.4688 405.163C86.1697 405.163 82.6846 408.777 82.6846 413.234C82.6846 417.691 86.1697 421.305 90.4688 421.305Z" stroke="#DCDDDD" stroke-width="3" stroke-linejoin="round"/>
<path d="M116.157 421.305C120.456 421.305 123.941 417.691 123.941 413.234C123.941 408.777 120.456 405.163 116.157 405.163C111.858 405.163 108.373 408.777 108.373 413.234C108.373 417.691 111.858 421.305 116.157 421.305Z" fill="#DCDDDD" stroke="#DCDDDD" stroke-width="3" stroke-linejoin="round"/>
<path d="M90.8589 394.12C94.943 394.12 98.2539 390.506 98.2539 386.049C98.2539 381.592 94.943 377.978 90.8589 377.978C86.7747 377.978 83.4639 381.592 83.4639 386.049C83.4639 390.506 86.7747 394.12 90.8589 394.12Z" stroke="#DCDDDD" stroke-width="3" stroke-linejoin="round"/>
<path d="M116.547 394.12C120.631 394.12 123.942 390.506 123.942 386.049C123.942 381.592 120.631 377.978 116.547 377.978C112.463 377.978 109.152 381.592 109.152 386.049C109.152 390.506 112.463 394.12 116.547 394.12Z" stroke="#DCDDDD" stroke-width="3" stroke-linejoin="round"/>
<defs>
<filter id="filter0_f_19_120" x="1040.06" y="693.526" width="216.736" height="25.1394" filterUnits="userSpaceOnUse" color-interpolation-filters="sRGB">
<feFlood flood-opacity="0" result="BackgroundImageFix"/>
<feBlend mode="normal" in="SourceGraphic" in2="BackgroundImageFix" result="shape"/>
<feGaussianBlur stdDeviation="1.94235" result="effect1_foregroundBlur_19_120"/>
</filter>
<linearGradient id="paint0_linear_19_120" x1="1167.38" y1="624.798" x2="1184.24" y2="672.171" gradientUnits="userSpaceOnUse">
<stop stop-color="#F4D4CD"/>
<stop offset="1" stop-color="#E1C3C1"/>
</linearGradient>
<linearGradient id="paint1_linear_19_120" x1="1166.36" y1="668.023" x2="1226.61" y2="729.223" gradientUnits="userSpaceOnUse">
<stop stop-color="#36B35F"/>
<stop offset="0.9994" stop-color="#1D6A36"/>
</linearGradient>
<linearGradient id="paint2_linear_19_120" x1="1099.5" y1="602.195" x2="1098.15" y2="673.868" gradientUnits="userSpaceOnUse">
<stop stop-color="#F4D4CD"/>
<stop offset="1" stop-color="#E1C3C1"/>
</linearGradient>
<linearGradient id="paint3_linear_19_120" x1="1122.51" y1="684.961" x2="1124.39" y2="717.115" gradientUnits="userSpaceOnUse">
<stop stop-color="#36B35F"/>
<stop offset="1" stop-color="#1D6A36"/>
</linearGradient>
<linearGradient id="paint4_linear_19_120" x1="1112.25" y1="247.788" x2="1118.8" y2="272.291" gradientUnits="userSpaceOnUse">
<stop stop-color="#DEC1C0"/>
<stop offset="1" stop-color="#DEC1C0" stop-opacity="0"/>
</linearGradient>
<linearGradient id="paint5_linear_19_120" x1="1135.57" y1="228.282" x2="1091.02" y2="173.898" gradientUnits="userSpaceOnUse">
<stop stop-color="#201F1F"/>
<stop offset="1" stop-color="#3F3F3F"/>
</linearGradient>
<linearGradient id="paint6_linear_19_120" x1="1156.74" y1="257.326" x2="1293.96" y2="411.529" gradientUnits="userSpaceOnUse">
<stop stop-color="#FFDE82"/>
<stop offset="1" stop-color="#F1BE66"/>
</linearGradient>
<linearGradient id="paint7_linear_19_120" x1="1079.4" y1="316.744" x2="1132.69" y2="425.205" gradientUnits="userSpaceOnUse">
<stop stop-color="#FFDE82"/>
<stop offset="1" stop-color="#F1BE66"/>
</linearGradient>
<linearGradient id="paint8_linear_19_120" x1="1071.38" y1="334.191" x2="1108.62" y2="335.661" gradientUnits="userSpaceOnUse">
<stop stop-color="#FFDE82"/>
<stop offset="1" stop-color="#F1BE66"/>
</linearGradient>
<linearGradient id="paint9_linear_19_120" x1="1150.86" y1="297.452" x2="1189.9" y2="395.036" gradientUnits="userSpaceOnUse">
<stop stop-color="#6B7072"/>
<stop offset="1" stop-color="#353232"/>
</linearGradient>
<linearGradient id="paint10_linear_19_120" x1="1099.91" y1="355.352" x2="1099.07" y2="361.607" gradientUnits="userSpaceOnUse">
<stop stop-color="#6B7072"/>
<stop offset="1" stop-color="#353232"/>
</linearGradient>
<linearGradient id="paint11_linear_19_120" x1="1075.16" y1="398.793" x2="1093.24" y2="358.709" gradientUnits="userSpaceOnUse">
<stop stop-color="#FFDE82"/>
<stop offset="1" stop-color="#F1BE66"/>
</linearGradient>
</defs>
</svg>
