<svg width="553" height="818" viewBox="0 0 553 818" fill="none" xmlns="http://www.w3.org/2000/svg">
<path d="M58.8993 747.316C65.414 747.316 71.8233 748.776 77.5328 751.561C83.2423 754.346 88.0671 758.365 91.5598 763.246C95.0526 768.128 97.1001 773.713 97.5127 779.484C97.9252 785.255 96.6893 791.024 93.9197 796.258C91.15 801.492 86.9363 806.021 81.6691 809.424C76.402 812.827 70.252 814.994 63.7895 815.725C57.327 816.456 50.7612 815.727 44.701 813.605C38.6407 811.483 33.2822 808.037 29.1224 803.587L58.8993 781.658L58.8993 747.316Z" stroke="#DCDDDD" stroke-width="3" stroke-linejoin="round"/>
<path d="M13.9504 795.174C9.85357 790.452 7.30721 784.817 6.5927 778.891C5.8782 772.965 7.02336 766.98 9.90162 761.595C12.7799 756.211 17.2792 751.638 22.9023 748.382C28.5255 745.125 35.0535 743.312 41.765 743.142L42.801 775.451L13.9504 795.174Z" fill="#DCDDDD" stroke="#DCDDDD" stroke-width="3" stroke-linejoin="round"/>
<ellipse cx="471.813" cy="754.082" rx="11.9459" ry="10.6033" fill="#DCDDDD" stroke="#DCDDDD" stroke-width="3" stroke-linejoin="round"/>
<path d="M529.147 739.236L526.763 756.201C529.152 756.201 543.482 764.684 543.482 777.408H550.649V794.373H541.093L533.925 802.856C535.518 806.39 536.792 813.883 529.147 815.58C519.59 817.7 517.997 810.632 517.201 807.097C507.644 808.794 497.291 807.804 493.309 807.097C490.92 811.338 490.92 817.7 481.363 815.58C474.196 813.989 471.811 811.338 474.201 802.856C467.768 795.243 463.627 787.007 464.914 777.408C475.974 779.529 498.092 777.408 498.092 751.96C503.289 751.968 508.296 751.785 512.428 751.96C516.25 741.78 524.373 741.357 529.147 739.236Z" stroke="#DCDDDD" stroke-width="3" stroke-linecap="round" stroke-linejoin="round"/>
<path d="M235.594 815.817V739.236H321.871V815.817H235.594Z" stroke="#DCDDDD" stroke-width="3" stroke-linecap="round" stroke-linejoin="round"/>
<path d="M254.766 794.545L269.145 764.764L288.318 781.782L300.301 760.51" stroke="#DCDDDD" stroke-width="3" stroke-linecap="round" stroke-linejoin="round"/>
<ellipse cx="301.474" cy="759.193" rx="2.61447" ry="2.32063" fill="#DCDDDD" stroke="#DCDDDD" stroke-width="3" stroke-linejoin="round"/>
<ellipse cx="254.935" cy="793.538" rx="2.61447" ry="2.32063" stroke="#DCDDDD" stroke-width="3" stroke-linejoin="round"/>
<ellipse cx="269.052" cy="765.691" rx="2.61447" ry="2.32063" stroke="#DCDDDD" stroke-width="3" stroke-linejoin="round"/>
<ellipse cx="287.88" cy="780.079" rx="2.61447" ry="2.32063" stroke="#DCDDDD" stroke-width="3" stroke-linejoin="round"/>
<ellipse cx="269.145" cy="25.2838" rx="21.3406" ry="18.9421" fill="#DCDDDD" stroke="#DCDDDD" stroke-width="3" stroke-linejoin="round"/>
<path d="M269.145 51.8025C253.823 51.8025 235 68.8504 235 68.8504C247.804 70.7446 292.62 70.7446 303.29 68.8504C303.29 68.8504 284.467 51.8025 269.145 51.8025Z" fill="#DCDDDD" stroke="#DCDDDD" stroke-width="3" stroke-linecap="round" stroke-linejoin="round"/>
<path d="M2.00007 22.3597L77.9314 22.3597L77.9314 75.5834L2.10238 75.5834L2.10239 1.8891L77.9314 1.88911L77.9314 21.8879" stroke="#DCDDDD" stroke-width="3" stroke-linecap="round" stroke-linejoin="round"/>
<ellipse cx="18.5437" cy="40.6926" rx="6.37501" ry="6.19554" stroke="#DCDDDD" stroke-width="3" stroke-linejoin="round"/>
<ellipse cx="18.5437" cy="61.5615" rx="6.37501" ry="6.19554" stroke="#DCDDDD" stroke-width="3" stroke-linejoin="round"/>
<ellipse cx="40.3526" cy="61.5615" rx="6.71053" ry="6.19554" stroke="#DCDDDD" stroke-width="3" stroke-linejoin="round"/>
<ellipse cx="62.4973" cy="61.5615" rx="6.71053" ry="6.19554" fill="#DCDDDD" stroke="#DCDDDD" stroke-width="3" stroke-linejoin="round"/>
<ellipse cx="40.6885" cy="40.6926" rx="6.37501" ry="6.19554" stroke="#DCDDDD" stroke-width="3" stroke-linejoin="round"/>
<ellipse cx="62.8331" cy="40.6926" rx="6.37501" ry="6.19554" stroke="#DCDDDD" stroke-width="3" stroke-linejoin="round"/>
<path d="M471.704 39.0647L503.889 10.4966M503.889 10.4966L480.482 10.4966M503.889 10.4966L503.889 31.2734" stroke="#DCDDDD" stroke-width="3" stroke-linecap="round" stroke-linejoin="round"/>
<path d="M542.758 77.2379H526.206V22.145H542.758V77.2379Z" stroke="#DCDDDD" stroke-width="3" stroke-linecap="round" stroke-linejoin="round"/>
<path d="M513.792 77.2385H497.24V47.8556H513.792V77.2385Z" stroke="#DCDDDD" stroke-width="3" stroke-linecap="round" stroke-linejoin="round"/>
<path d="M484.826 77.2381H468.274V62.5466H484.826V77.2381Z" fill="#DCDDDD" stroke="#DCDDDD" stroke-width="3" stroke-linecap="round" stroke-linejoin="round"/>
</svg>
