<svg width="24" height="23" viewBox="0 0 24 23" fill="none" xmlns="http://www.w3.org/2000/svg">
<path fillRule="evenodd" clipRule="evenodd" d="M7.65503 6.72592L5.89597 4.98242L4.62317 6.24395L6.14789 7.75517C5.0082 8.66044 3.8742 9.84944 2.74427 11.316C2.498 11.6357 2.498 12.0792 2.74427 12.3988C5.64672 16.1661 8.57604 18.1017 11.5596 18.1017C12.8708 18.1017 14.1715 17.7278 15.4641 16.9889L17.2232 18.7324L18.496 17.4709L16.9713 15.9597C18.1109 15.0544 19.2449 13.8654 20.3749 12.3988C20.6211 12.0792 20.6211 11.6357 20.3749 11.316C17.4724 7.54878 14.5431 5.61319 11.5596 5.61319C10.2484 5.61319 8.94762 5.98704 7.65503 6.72592ZM7.42911 9.02505C6.5055 9.73344 5.56299 10.6758 4.60301 11.8574C7.04244 14.8601 9.36898 16.3176 11.5596 16.3176C12.3985 16.3176 13.2573 16.1038 14.1348 15.6714L7.42911 9.02505ZM15.69 14.6898L8.98432 8.04344C9.86181 7.61101 10.7207 7.39725 11.5596 7.39725C13.7502 7.39725 16.0767 8.85475 18.5161 11.8574C17.5561 13.0391 16.6136 13.9814 15.69 14.6898Z" fill="#DCDDDD"/>
</svg>
