<svg width="25" height="25" viewBox="0 0 25 25" fill="none" xmlns="http://www.w3.org/2000/svg">
<path fill-rule="evenodd" clip-rule="evenodd" d="M7.94489 6.52806L5.89798 4.49927L4.41691 5.96723L6.19112 7.72574C4.86494 8.77914 3.54538 10.1627 2.23055 11.8693C1.94398 12.2413 1.94398 12.7573 2.23055 13.1292C5.60795 17.513 9.01661 19.7653 12.4884 19.7653C14.0141 19.7653 15.5277 19.3303 17.0318 18.4705L19.0787 20.4993L20.5598 19.0313L18.7856 17.2728C20.1118 16.2194 21.4313 14.8358 22.7462 13.1292C23.0327 12.7573 23.0327 12.2413 22.7462 11.8693C19.3688 7.48558 15.9601 5.23325 12.4884 5.23325C10.9626 5.23325 9.44899 5.66827 7.94489 6.52806ZM7.682 9.20341C6.60725 10.0277 5.51052 11.1243 4.39344 12.4993C7.23205 15.9933 9.9393 17.6893 12.4884 17.6893C13.4645 17.6893 14.4639 17.4406 15.485 16.9374L7.682 9.20341ZM17.2947 15.7951L9.4917 8.06118C10.5128 7.55799 11.5122 7.30925 12.4884 7.30925C15.0374 7.30925 17.7447 9.00525 20.5833 12.4993C19.4662 13.8743 18.3695 14.9708 17.2947 15.7951Z" fill="#DCDDDD"/>
</svg>
